{"glyphs":{"0":{"ha":915,"x_min":0,"x_max":0,"o":"m 457 978 b 868 479 763 978 868 860 b 457 -19 868 99 763 -19 b 47 479 153 -19 47 99 b 457 978 47 860 153 978 m 456 754 b 346 479 368 754 346 726 b 456 204 346 232 368 204 b 569 479 547 204 569 232 b 456 754 569 726 547 754 "},"1":{"ha":647,"x_min":0,"x_max":0,"o":"m 247 0 l 247 600 b 258 724 247 642 249 682 l 38 681 l 3 865 l 247 958 l 547 958 l 547 0 "},"2":{"ha":833,"x_min":0,"x_max":0,"o":"m 413 975 b 767 736 625 975 767 928 b 621 453 767 636 749 581 l 394 239 b 522 253 438 251 476 254 l 789 253 l 789 0 l 46 0 l 46 150 b 88 271 46 199 57 235 l 288 467 b 458 697 392 571 458 654 b 374 726 458 724 436 726 b 64 724 271 726 200 726 l 54 944 b 413 975 199 971 303 975 "},"3":{"ha":803,"x_min":0,"x_max":0,"o":"m 396 978 b 729 754 642 978 729 925 b 571 513 729 613 700 531 l 571 507 b 754 267 710 486 753 417 b 397 -19 757 61 660 -19 b 39 7 278 -19 151 -8 l 47 218 b 314 211 176 213 232 211 b 457 308 428 211 457 221 b 350 404 457 382 438 406 l 165 401 l 165 585 l 350 585 b 449 671 442 585 449 614 b 342 749 449 735 426 749 l 68 749 l 60 951 b 396 978 172 969 286 978 "},"4":{"ha":915,"x_min":0,"x_max":0,"o":"m 892 222 l 785 194 l 782 194 l 782 0 l 508 0 l 508 194 l 124 194 b 21 338 44 194 -7 264 l 253 958 l 531 958 l 336 421 b 360 386 328 400 339 386 l 508 386 l 508 622 l 557 769 l 782 769 l 782 386 l 892 386 "},"5":{"ha":789,"x_min":0,"x_max":0,"o":"m 318 743 l 310 643 l 488 619 b 751 299 704 593 751 438 b 389 -17 751 119 665 -17 b 33 8 288 -17 161 -7 l 58 232 b 310 224 153 228 240 224 b 453 310 421 224 447 246 b 325 404 458 375 421 397 l 150 426 b 68 521 100 433 65 472 l 94 958 l 722 958 l 713 743 "},"6":{"ha":844,"x_min":0,"x_max":0,"o":"m 524 633 b 810 342 747 633 810 546 b 435 -17 810 88 740 -17 b 49 471 146 -17 49 76 b 482 975 49 907 193 975 b 744 944 535 975 640 975 l 733 765 l 482 765 b 338 586 369 765 343 738 b 524 633 388 622 443 633 m 438 193 b 529 335 526 193 529 226 b 433 436 529 424 513 436 b 336 413 397 436 371 429 b 438 193 338 218 347 193 "},"7":{"ha":754,"x_min":0,"x_max":0,"o":"m 635 958 b 742 818 715 958 768 893 l 454 0 l 161 0 l 382 608 b 435 718 394 644 408 682 l 32 718 l 19 958 "},"8":{"ha":888,"x_min":0,"x_max":0,"o":"m 444 978 b 813 719 751 978 813 900 b 663 500 813 622 769 511 l 663 494 b 838 239 806 482 838 361 b 444 -21 838 47 761 -18 b 51 239 132 -22 51 47 b 226 494 51 361 83 482 l 226 500 b 76 719 119 511 76 622 b 444 978 76 900 140 978 m 446 783 b 346 679 365 783 346 768 b 449 589 346 604 367 589 b 543 679 528 589 543 604 b 446 783 543 768 525 783 m 447 406 b 333 294 353 406 333 383 b 446 190 333 208 354 190 b 554 294 535 190 554 208 b 447 406 554 386 535 406 "},"9":{"ha":844,"x_min":0,"x_max":0,"o":"m 411 975 b 794 488 722 975 794 882 b 361 -17 794 51 678 -17 b 76 14 304 -17 194 -17 l 89 194 b 361 193 179 193 228 193 b 506 372 472 193 499 235 b 319 325 456 338 400 325 b 38 617 100 325 38 440 b 411 975 38 871 114 975 m 319 624 b 411 522 319 536 336 522 b 507 547 447 522 472 529 b 408 765 506 740 496 765 b 319 624 324 765 319 732 "},"A":{"ha":949,"x_min":0,"x_max":0,"o":"m 343 207 l 294 0 l -12 0 l 236 881 b 338 958 249 928 289 958 l 611 958 b 713 881 660 958 700 928 l 961 0 l 654 0 l 606 207 m 510 624 b 493 733 503 658 496 699 l 456 733 b 439 624 451 699 446 658 l 392 418 l 557 418 "},"Á":{"ha":949,"x_min":0,"x_max":0,"o":"m 335 1119 l 658 1328 l 768 1143 l 414 1000 m 343 207 l 294 0 l -12 0 l 236 881 b 338 958 249 928 289 958 l 611 958 b 713 881 660 958 700 928 l 961 0 l 654 0 l 606 207 m 510 624 b 493 733 503 658 496 699 l 456 733 b 439 624 451 699 446 658 l 392 418 l 557 418 "},"Ă":{"ha":949,"x_min":0,"x_max":0,"o":"m 476 1024 b 228 1263 306 1024 206 1139 l 363 1281 b 476 1199 363 1222 393 1199 b 589 1281 558 1199 589 1222 l 724 1263 b 476 1024 746 1139 647 1024 m 343 207 l 294 0 l -12 0 l 236 881 b 338 958 249 928 289 958 l 611 958 b 713 881 660 958 700 928 l 961 0 l 654 0 l 606 207 m 510 624 b 493 733 503 658 496 699 l 456 733 b 439 624 451 699 446 658 l 392 418 l 557 418 "},"Â":{"ha":949,"x_min":0,"x_max":0,"o":"m 178 1093 l 372 1278 l 583 1278 l 771 1082 l 704 986 l 483 1115 l 472 1115 l 247 986 m 343 207 l 294 0 l -12 0 l 236 881 b 338 958 249 928 289 958 l 611 958 b 713 881 660 958 700 928 l 961 0 l 654 0 l 606 207 m 510 624 b 493 733 503 658 496 699 l 456 733 b 439 624 451 699 446 658 l 392 418 l 557 418 "},"Ä":{"ha":949,"x_min":0,"x_max":0,"o":"m 294 1060 b 240 1114 258 1060 240 1078 l 240 1201 b 294 1256 240 1238 258 1256 l 390 1256 b 444 1201 426 1256 444 1238 l 444 1114 b 390 1060 444 1078 426 1060 m 557 1060 b 503 1114 521 1060 503 1078 l 503 1201 b 557 1256 503 1238 521 1256 l 653 1256 b 707 1201 689 1256 707 1238 l 707 1114 b 653 1060 707 1078 689 1060 m 343 207 l 294 0 l -12 0 l 236 881 b 338 958 249 928 289 958 l 611 958 b 713 881 660 958 700 928 l 961 0 l 654 0 l 606 207 m 510 624 b 493 733 503 658 496 699 l 456 733 b 439 624 451 699 446 658 l 392 418 l 557 418 "},"À":{"ha":949,"x_min":0,"x_max":0,"o":"m 182 1143 l 292 1328 l 615 1119 l 536 1000 m 343 207 l 294 0 l -12 0 l 236 881 b 338 958 249 928 289 958 l 611 958 b 713 881 660 958 700 928 l 961 0 l 654 0 l 606 207 m 510 624 b 493 733 503 658 496 699 l 456 733 b 439 624 451 699 446 658 l 392 418 l 557 418 "},"Ā":{"ha":949,"x_min":0,"x_max":0,"o":"m 256 1072 l 256 1243 l 700 1243 l 700 1072 m 343 207 l 294 0 l -12 0 l 236 881 b 338 958 249 928 289 958 l 611 958 b 713 881 660 958 700 928 l 961 0 l 654 0 l 606 207 m 510 624 b 493 733 503 658 496 699 l 456 733 b 439 624 451 699 446 658 l 392 418 l 557 418 "},"Ą":{"ha":949,"x_min":0,"x_max":0,"o":"m 979 -267 b 704 -146 754 -351 671 -247 b 846 0 718 -103 763 -49 l 654 0 l 606 207 l 343 207 l 294 0 l -12 0 l 236 881 b 338 958 249 928 289 958 l 611 958 b 713 881 660 958 700 928 l 961 0 b 896 -121 939 -40 918 -75 b 963 -167 872 -171 911 -175 m 510 624 b 493 733 503 658 496 699 l 456 733 b 439 624 451 699 446 658 l 392 418 l 557 418 "},"Å":{"ha":949,"x_min":0,"x_max":0,"o":"m 476 990 b 297 1164 379 990 297 1067 b 476 1338 297 1260 379 1338 b 656 1164 574 1338 656 1260 b 476 990 656 1067 574 990 m 476 1226 b 415 1164 443 1226 415 1197 b 476 1101 415 1129 443 1101 b 538 1164 510 1101 538 1129 b 476 1226 538 1197 510 1226 m 343 207 l 294 0 l -12 0 l 236 881 b 338 958 249 928 289 958 l 611 958 b 713 881 660 958 700 928 l 961 0 l 654 0 l 606 207 m 510 624 b 493 733 503 658 496 699 l 456 733 b 439 624 451 699 446 658 l 392 418 l 557 418 "},"Ã":{"ha":949,"x_min":0,"x_max":0,"o":"m 211 1043 b 329 1278 181 1208 256 1283 b 564 1218 424 1271 492 1233 b 604 1271 606 1210 604 1226 l 725 1271 b 607 1036 754 1115 693 1031 b 371 1096 513 1043 433 1085 b 332 1043 329 1103 332 1088 m 343 207 l 294 0 l -12 0 l 236 881 b 338 958 249 928 289 958 l 611 958 b 713 881 660 958 700 928 l 961 0 l 654 0 l 606 207 m 510 624 b 493 733 503 658 496 699 l 456 733 b 439 624 451 699 446 658 l 392 418 l 557 418 "},"Æ":{"ha":1325,"x_min":0,"x_max":0,"o":"m 1286 13 b 813 -6 1142 -6 971 -6 b 610 213 686 -6 610 83 l 610 224 l 374 224 l 281 0 l -26 0 l 308 742 b 800 961 378 897 469 961 b 1286 946 978 961 1118 961 l 1272 738 l 944 738 b 890 688 913 738 890 717 l 890 583 l 1225 583 l 1225 397 l 890 397 l 890 271 b 944 221 890 242 911 221 l 1272 221 m 610 692 b 631 778 610 721 618 753 l 611 778 b 579 717 599 760 588 733 l 460 429 l 610 429 "},"B":{"ha":917,"x_min":0,"x_max":0,"o":"m 672 493 b 879 239 825 481 879 392 b 532 -11 879 42 772 -11 b 72 0 325 -11 208 -10 l 72 958 b 486 969 196 968 303 969 b 847 719 753 969 847 917 b 672 501 847 582 799 513 m 560 676 b 471 765 560 750 543 765 l 367 765 l 367 585 l 474 585 b 560 676 543 585 560 601 m 478 193 b 579 300 561 193 579 213 b 476 408 579 389 561 408 l 367 408 l 367 193 "},"C":{"ha":840,"x_min":0,"x_max":0,"o":"m 479 975 b 794 938 629 975 699 964 l 772 718 b 479 721 675 719 611 721 b 361 479 385 721 361 674 b 479 238 361 285 385 238 b 793 249 618 238 700 239 l 815 29 b 479 -17 718 -4 629 -17 b 44 479 161 -17 44 114 b 479 975 44 844 161 975 "},"Ć":{"ha":840,"x_min":0,"x_max":0,"o":"m 415 1000 l 336 1119 l 660 1328 l 769 1143 m 479 975 b 794 938 629 975 699 964 l 772 718 b 479 721 675 719 611 721 b 361 479 385 721 361 674 b 479 238 361 285 385 238 b 793 249 618 238 700 239 l 815 29 b 479 -17 718 -4 629 -17 b 44 479 161 -17 44 114 b 479 975 44 844 161 975 "},"Č":{"ha":840,"x_min":0,"x_max":0,"o":"m 535 1022 l 421 1022 l 193 1204 l 263 1311 l 472 1206 l 483 1206 l 694 1311 l 761 1204 m 479 975 b 794 938 629 975 699 964 l 772 718 b 479 721 675 719 611 721 b 361 479 385 721 361 674 b 479 238 361 285 385 238 b 793 249 618 238 700 239 l 815 29 b 479 -17 718 -4 629 -17 b 44 479 161 -17 44 114 b 479 975 44 844 161 975 "},"Ç":{"ha":840,"x_min":0,"x_max":0,"o":"m 479 975 b 794 938 629 975 699 964 l 772 718 b 479 721 675 719 611 721 b 361 479 385 721 361 674 b 479 238 361 285 385 238 b 793 249 618 238 700 239 l 815 29 b 479 -17 718 -4 629 -17 b 44 479 161 -17 44 114 b 479 975 44 844 161 975 m 354 -90 b 599 -181 528 -71 604 -69 b 274 -385 592 -340 447 -408 l 304 -276 b 425 -206 365 -276 419 -271 b 328 -190 428 -186 415 -190 "},"Ċ":{"ha":840,"x_min":0,"x_max":0,"o":"m 522 1268 b 604 1189 578 1268 604 1243 l 604 1124 b 522 1044 604 1071 578 1044 l 435 1044 b 353 1124 379 1044 353 1071 l 353 1189 b 435 1268 353 1243 379 1268 m 479 975 b 794 938 629 975 699 964 l 772 718 b 479 721 675 719 611 721 b 361 479 385 721 361 674 b 479 238 361 285 385 238 b 793 249 618 238 700 239 l 815 29 b 479 -17 718 -4 629 -17 b 44 479 161 -17 44 114 b 479 975 44 844 161 975 "},"D":{"ha":974,"x_min":0,"x_max":0,"o":"m 482 972 b 929 479 811 972 929 868 b 482 -14 929 90 811 -14 b 72 0 322 -14 193 -8 l 72 958 b 482 972 194 965 318 972 m 482 204 b 611 479 585 204 611 257 b 482 754 611 701 585 754 l 374 754 l 374 206 "},"Ð":{"ha":974,"x_min":0,"x_max":0,"o":"m 482 972 b 929 479 811 972 929 868 b 482 -14 929 90 811 -14 b 72 0 322 -14 193 -8 l 72 424 l 10 424 l 10 568 l 72 568 l 72 958 b 482 972 194 965 318 972 m 482 204 b 611 479 585 204 611 257 b 482 754 611 701 585 754 l 374 754 l 374 568 l 511 568 l 511 424 l 374 424 l 374 206 "},"Ď":{"ha":974,"x_min":0,"x_max":0,"o":"m 199 1204 l 268 1311 l 478 1206 l 489 1206 l 700 1311 l 767 1204 l 540 1022 l 426 1022 m 482 972 b 929 479 811 972 929 868 b 482 -14 929 90 811 -14 b 72 0 322 -14 193 -8 l 72 958 b 482 972 194 965 318 972 m 482 204 b 611 479 585 204 611 257 b 482 754 611 701 585 754 l 374 754 l 374 206 "},"Đ":{"ha":974,"x_min":0,"x_max":0,"o":"m 482 972 b 929 479 811 972 929 868 b 482 -14 929 90 811 -14 b 72 0 322 -14 193 -8 l 72 424 l 10 424 l 10 568 l 72 568 l 72 958 b 482 972 194 965 318 972 m 482 204 b 611 479 585 204 611 257 b 482 754 611 701 585 754 l 374 754 l 374 568 l 511 568 l 511 424 l 374 424 l 374 206 "},"E":{"ha":828,"x_min":0,"x_max":0,"o":"m 789 13 b 290 -6 650 -6 456 -6 b 65 213 158 -6 65 83 l 65 746 b 290 964 65 875 158 964 b 789 946 456 964 650 964 l 775 733 l 424 733 b 367 683 389 733 367 713 l 367 590 l 725 590 l 725 390 l 367 390 l 367 275 b 424 225 367 246 389 225 l 775 225 "},"É":{"ha":828,"x_min":0,"x_max":0,"o":"m 307 1119 l 631 1328 l 740 1143 l 386 1000 m 789 13 b 290 -6 650 -6 456 -6 b 65 213 158 -6 65 83 l 65 746 b 290 964 65 875 158 964 b 789 946 456 964 650 964 l 775 733 l 424 733 b 367 683 389 733 367 713 l 367 590 l 725 590 l 725 390 l 367 390 l 367 275 b 424 225 367 246 389 225 l 775 225 "},"Ě":{"ha":828,"x_min":0,"x_max":0,"o":"m 164 1204 l 233 1311 l 443 1206 l 454 1206 l 665 1311 l 732 1204 l 506 1022 l 392 1022 m 789 13 b 290 -6 650 -6 456 -6 b 65 213 158 -6 65 83 l 65 746 b 290 964 65 875 158 964 b 789 946 456 964 650 964 l 775 733 l 424 733 b 367 683 389 733 367 713 l 367 590 l 725 590 l 725 390 l 367 390 l 367 275 b 424 225 367 246 389 225 l 775 225 "},"Ê":{"ha":828,"x_min":0,"x_max":0,"o":"m 150 1093 l 344 1278 l 556 1278 l 743 1082 l 676 986 l 456 1115 l 444 1115 l 219 986 m 789 13 b 290 -6 650 -6 456 -6 b 65 213 158 -6 65 83 l 65 746 b 290 964 65 875 158 964 b 789 946 456 964 650 964 l 775 733 l 424 733 b 367 683 389 733 367 713 l 367 590 l 725 590 l 725 390 l 367 390 l 367 275 b 424 225 367 246 389 225 l 775 225 "},"Ë":{"ha":828,"x_min":0,"x_max":0,"o":"m 267 1060 b 213 1114 231 1060 213 1078 l 213 1201 b 267 1256 213 1238 231 1256 l 363 1256 b 417 1201 399 1256 417 1238 l 417 1114 b 363 1060 417 1078 399 1060 m 529 1060 b 475 1114 493 1060 475 1078 l 475 1201 b 529 1256 475 1238 493 1256 l 625 1256 b 679 1201 661 1256 679 1238 l 679 1114 b 625 1060 679 1078 661 1060 m 789 13 b 290 -6 650 -6 456 -6 b 65 213 158 -6 65 83 l 65 746 b 290 964 65 875 158 964 b 789 946 456 964 650 964 l 775 733 l 424 733 b 367 683 389 733 367 713 l 367 590 l 725 590 l 725 390 l 367 390 l 367 275 b 424 225 367 246 389 225 l 775 225 "},"Ė":{"ha":828,"x_min":0,"x_max":0,"o":"m 406 1044 b 324 1124 350 1044 324 1071 l 324 1189 b 406 1268 324 1243 350 1268 l 493 1268 b 575 1189 549 1268 575 1243 l 575 1124 b 493 1044 575 1071 549 1044 m 789 13 b 290 -6 650 -6 456 -6 b 65 213 158 -6 65 83 l 65 746 b 290 964 65 875 158 964 b 789 946 456 964 650 964 l 775 733 l 424 733 b 367 683 389 733 367 713 l 367 590 l 725 590 l 725 390 l 367 390 l 367 275 b 424 225 367 246 389 225 l 775 225 "},"È":{"ha":828,"x_min":0,"x_max":0,"o":"m 154 1143 l 264 1328 l 588 1119 l 508 1000 m 789 13 b 290 -6 650 -6 456 -6 b 65 213 158 -6 65 83 l 65 746 b 290 964 65 875 158 964 b 789 946 456 964 650 964 l 775 733 l 424 733 b 367 683 389 733 367 713 l 367 590 l 725 590 l 725 390 l 367 390 l 367 275 b 424 225 367 246 389 225 l 775 225 "},"Ē":{"ha":828,"x_min":0,"x_max":0,"o":"m 228 1072 l 228 1243 l 672 1243 l 672 1072 m 789 13 b 290 -6 650 -6 456 -6 b 65 213 158 -6 65 83 l 65 746 b 290 964 65 875 158 964 b 789 946 456 964 650 964 l 775 733 l 424 733 b 367 683 389 733 367 713 l 367 590 l 725 590 l 725 390 l 367 390 l 367 275 b 424 225 367 246 389 225 l 775 225 "},"Ę":{"ha":828,"x_min":0,"x_max":0,"o":"m 807 -254 b 532 -133 582 -339 499 -235 b 654 1 544 -93 583 -44 b 290 -6 538 -6 407 -6 b 65 213 158 -6 65 83 l 65 746 b 290 964 65 875 158 964 b 789 946 456 964 650 964 l 775 733 l 424 733 b 367 683 389 733 367 713 l 367 590 l 725 590 l 725 390 l 367 390 l 367 275 b 424 225 367 246 389 225 l 775 225 l 789 13 b 724 -108 767 -28 746 -62 b 790 -154 700 -158 739 -162 "},"F":{"ha":797,"x_min":0,"x_max":0,"o":"m 431 733 b 371 683 393 733 371 713 l 371 571 l 714 571 l 714 371 l 371 371 l 371 0 l 69 0 l 69 746 b 297 964 69 875 164 964 b 779 944 457 964 647 964 l 765 733 "},"G":{"ha":928,"x_min":0,"x_max":0,"o":"m 876 0 l 654 0 l 628 99 b 363 -19 583 44 492 -19 b 44 479 142 -19 44 117 b 496 978 44 847 165 978 b 836 938 649 978 735 967 l 814 721 b 497 724 708 722 626 724 b 361 479 390 724 361 676 b 483 238 361 285 389 238 b 588 246 524 238 560 242 l 588 551 l 876 551 "},"Ğ":{"ha":928,"x_min":0,"x_max":0,"o":"m 489 1024 b 240 1263 318 1024 218 1139 l 375 1281 b 489 1199 375 1222 406 1199 b 601 1281 571 1199 601 1222 l 736 1263 b 489 1024 758 1139 660 1024 m 876 0 l 654 0 l 628 99 b 363 -19 583 44 492 -19 b 44 479 142 -19 44 117 b 496 978 44 847 165 978 b 836 938 649 978 735 967 l 814 721 b 497 724 708 722 626 724 b 361 479 390 724 361 676 b 483 238 361 285 389 238 b 588 246 524 238 560 242 l 588 551 l 876 551 "},"Ģ":{"ha":928,"x_min":0,"x_max":0,"o":"m 876 0 l 654 0 l 628 99 b 363 -19 583 44 492 -19 b 44 479 142 -19 44 117 b 496 978 44 847 165 978 b 836 938 649 978 735 967 l 814 721 b 497 724 708 722 626 724 b 361 479 390 724 361 676 b 483 238 361 285 389 238 b 588 246 524 238 560 242 l 588 551 l 876 551 m 513 -67 b 603 -142 579 -67 601 -85 l 603 -208 b 518 -429 603 -314 571 -368 l 419 -403 b 444 -260 439 -356 443 -307 b 367 -193 392 -260 368 -236 l 371 -142 b 460 -67 372 -85 393 -67 "},"Ġ":{"ha":928,"x_min":0,"x_max":0,"o":"m 446 1044 b 364 1124 390 1044 364 1071 l 364 1189 b 446 1268 364 1243 390 1268 l 533 1268 b 615 1189 589 1268 615 1243 l 615 1124 b 533 1044 615 1071 589 1044 m 876 0 l 654 0 l 628 99 b 363 -19 583 44 492 -19 b 44 479 142 -19 44 117 b 496 978 44 847 165 978 b 836 938 649 978 735 967 l 814 721 b 497 724 708 722 626 724 b 361 479 390 724 361 676 b 483 238 361 285 389 238 b 588 246 524 238 560 242 l 588 551 l 876 551 "},"H":{"ha":992,"x_min":0,"x_max":0,"o":"m 918 0 l 617 0 l 617 403 l 375 403 l 375 0 l 74 0 l 74 958 l 375 958 l 375 614 l 617 614 l 617 958 l 918 958 "},"Ħ":{"ha":992,"x_min":0,"x_max":0,"o":"m 918 704 l 918 0 l 617 0 l 617 403 l 375 403 l 375 0 l 74 0 l 74 704 l 6 704 l 6 835 l 74 835 l 74 958 l 375 958 l 375 835 l 617 835 l 617 958 l 918 958 l 918 835 l 989 835 l 989 704 m 375 704 l 375 614 l 617 614 l 617 704 "},"I":{"ha":446,"x_min":0,"x_max":0,"o":"m 74 0 l 74 958 l 372 958 l 372 0 "},"Ĳ":{"ha":1007,"x_min":0,"x_max":0,"o":"m 74 0 l 74 958 l 372 958 l 372 0 m 938 176 b 683 -19 938 51 840 -19 b 460 17 622 -19 507 -8 l 492 206 l 557 206 b 639 254 613 206 639 219 l 639 958 l 938 958 "},"Í":{"ha":446,"x_min":0,"x_max":0,"o":"m 161 1000 l 82 1119 l 406 1328 l 515 1143 m 74 0 l 74 958 l 372 958 l 372 0 "},"Î":{"ha":446,"x_min":0,"x_max":0,"o":"m 451 986 l 231 1115 l 219 1115 l -6 986 l -75 1093 l 119 1278 l 331 1278 l 518 1082 m 74 0 l 74 958 l 372 958 l 372 0 "},"Ï":{"ha":446,"x_min":0,"x_max":0,"o":"m 138 1256 b 192 1201 174 1256 192 1238 l 192 1114 b 138 1060 192 1078 174 1060 l 42 1060 b -12 1114 6 1060 -12 1078 l -12 1201 b 42 1256 -12 1238 6 1256 m 400 1256 b 454 1201 436 1256 454 1238 l 454 1114 b 400 1060 454 1078 436 1060 l 304 1060 b 250 1114 268 1060 250 1078 l 250 1201 b 304 1256 250 1238 268 1256 m 74 0 l 74 958 l 372 958 l 372 0 "},"İ":{"ha":446,"x_min":0,"x_max":0,"o":"m 268 1268 b 350 1189 324 1268 350 1243 l 350 1124 b 268 1044 350 1071 324 1044 l 181 1044 b 99 1124 125 1044 99 1071 l 99 1189 b 181 1268 99 1243 125 1268 m 74 0 l 74 958 l 372 958 l 372 0 "},"Ì":{"ha":446,"x_min":0,"x_max":0,"o":"m 283 1000 l -71 1143 l 39 1328 l 363 1119 m 74 0 l 74 958 l 372 958 l 372 0 "},"Ī":{"ha":446,"x_min":0,"x_max":0,"o":"m 3 1072 l 3 1243 l 447 1243 l 447 1072 m 74 0 l 74 958 l 372 958 l 372 0 "},"Į":{"ha":446,"x_min":0,"x_max":0,"o":"m 333 0 b 268 -121 311 -40 290 -75 b 335 -167 244 -171 283 -175 l 351 -267 b 76 -146 126 -351 43 -247 b 218 0 90 -103 135 -49 l 74 0 l 74 958 l 372 958 l 372 0 "},"J":{"ha":561,"x_min":0,"x_max":0,"o":"m 492 176 b 238 -19 492 51 394 -19 b 14 17 176 -19 61 -8 l 46 206 l 111 206 b 193 254 167 206 193 219 l 193 958 l 492 958 "},"K":{"ha":939,"x_min":0,"x_max":0,"o":"m 364 400 b 375 313 371 369 375 339 l 375 0 l 74 0 l 74 958 l 375 958 l 375 717 b 361 594 375 678 371 635 l 414 594 l 614 958 l 938 958 l 717 583 b 632 499 693 540 658 510 l 632 493 b 728 399 658 482 706 440 l 951 0 l 617 0 l 414 400 "},"Ķ":{"ha":939,"x_min":0,"x_max":0,"o":"m 617 0 l 414 400 l 364 400 b 375 313 371 369 375 339 l 375 0 l 74 0 l 74 958 l 375 958 l 375 717 b 361 594 375 678 371 635 l 414 594 l 614 958 l 938 958 l 717 583 b 632 499 693 540 658 510 l 632 493 b 728 399 658 482 706 440 l 951 0 m 510 -67 b 600 -142 576 -67 599 -85 l 600 -208 b 515 -429 600 -314 568 -368 l 417 -403 b 442 -260 436 -356 440 -307 b 364 -193 389 -260 365 -236 l 368 -142 b 457 -67 369 -85 390 -67 "},"L":{"ha":774,"x_min":0,"x_max":0,"o":"m 371 289 b 429 239 371 260 393 239 l 751 239 l 765 14 b 297 -6 622 -6 454 -6 b 69 213 158 -6 69 83 l 69 958 l 371 958 "},"Ĺ":{"ha":774,"x_min":0,"x_max":0,"o":"m 165 1000 l 86 1119 l 410 1328 l 519 1143 m 371 289 b 429 239 371 260 393 239 l 751 239 l 765 14 b 297 -6 622 -6 454 -6 b 69 213 158 -6 69 83 l 69 958 l 371 958 "},"Ľ":{"ha":774,"x_min":0,"x_max":0,"o":"m 371 289 b 429 239 371 260 393 239 l 751 239 l 765 14 b 297 -6 622 -6 454 -6 b 69 213 158 -6 69 83 l 69 958 l 371 958 m 594 957 b 685 882 661 957 683 939 l 685 815 b 600 594 685 710 653 656 l 501 621 b 526 764 521 668 525 717 b 449 831 474 764 450 788 l 453 882 b 542 957 454 939 475 957 "},"Ļ":{"ha":774,"x_min":0,"x_max":0,"o":"m 371 289 b 429 239 371 260 393 239 l 751 239 l 765 14 b 297 -6 622 -6 454 -6 b 69 213 158 -6 69 83 l 69 958 l 371 958 m 435 -67 b 525 -142 501 -67 524 -85 l 525 -208 b 440 -429 525 -314 493 -368 l 342 -403 b 367 -260 361 -356 365 -307 b 289 -193 314 -260 290 -236 l 293 -142 b 382 -67 294 -85 315 -67 "},"Ŀ":{"ha":774,"x_min":0,"x_max":0,"o":"m 371 289 b 429 239 371 260 393 239 l 751 239 l 765 14 b 297 -6 622 -6 454 -6 b 69 213 158 -6 69 83 l 69 958 l 371 958 m 561 476 b 479 556 506 476 479 501 l 479 621 b 561 700 479 674 506 700 l 649 700 b 731 621 704 700 731 674 l 731 556 b 649 476 731 501 704 476 "},"Ł":{"ha":774,"x_min":0,"x_max":0,"o":"m 765 14 b 297 -6 622 -6 454 -6 b 69 213 158 -6 69 83 l 69 397 l 10 374 l 10 518 l 69 542 l 69 958 l 371 958 l 371 657 l 515 713 l 515 568 l 371 513 l 371 289 b 429 239 371 260 393 239 l 751 239 "},"M":{"ha":1322,"x_min":0,"x_max":0,"o":"m 1128 958 b 1233 854 1197 958 1231 922 l 1267 0 l 996 0 l 967 733 l 946 733 l 851 244 b 738 153 842 183 801 153 l 582 153 b 467 244 518 153 478 183 l 371 733 l 350 733 l 326 0 l 56 0 l 89 854 b 194 958 92 922 125 958 l 454 958 b 568 865 517 958 557 928 l 638 485 b 653 342 644 438 649 389 l 665 342 b 682 485 671 389 675 438 l 747 865 b 863 958 758 928 799 958 "},"N":{"ha":1025,"x_min":0,"x_max":0,"o":"m 954 104 b 850 0 954 36 918 0 l 735 0 b 618 88 672 0 650 31 l 410 417 b 346 581 383 464 363 522 l 336 581 b 350 406 344 522 350 461 l 350 0 l 72 0 l 72 854 b 176 958 72 922 108 958 l 292 958 b 408 871 354 958 375 928 l 608 557 b 682 393 635 511 660 454 l 692 393 b 679 567 685 451 679 508 l 678 958 l 954 958 "},"Ń":{"ha":1025,"x_min":0,"x_max":0,"o":"m 461 1000 l 382 1119 l 706 1328 l 815 1143 m 954 104 b 850 0 954 36 918 0 l 735 0 b 618 88 672 0 650 31 l 410 417 b 346 581 383 464 363 522 l 336 581 b 350 406 344 522 350 461 l 350 0 l 72 0 l 72 854 b 176 958 72 922 108 958 l 292 958 b 408 871 354 958 375 928 l 608 557 b 682 393 635 511 660 454 l 692 393 b 679 567 685 451 679 508 l 678 958 l 954 958 "},"Ň":{"ha":1025,"x_min":0,"x_max":0,"o":"m 581 1022 l 467 1022 l 239 1204 l 308 1311 l 518 1206 l 529 1206 l 740 1311 l 807 1204 m 954 104 b 850 0 954 36 918 0 l 735 0 b 618 88 672 0 650 31 l 410 417 b 346 581 383 464 363 522 l 336 581 b 350 406 344 522 350 461 l 350 0 l 72 0 l 72 854 b 176 958 72 922 108 958 l 292 958 b 408 871 354 958 375 928 l 608 557 b 682 393 635 511 660 454 l 692 393 b 679 567 685 451 679 508 l 678 958 l 954 958 "},"Ņ":{"ha":1025,"x_min":0,"x_max":0,"o":"m 954 104 b 850 0 954 36 918 0 l 735 0 b 618 88 672 0 650 31 l 410 417 b 346 581 383 464 363 522 l 336 581 b 350 406 344 522 350 461 l 350 0 l 72 0 l 72 854 b 176 958 72 922 108 958 l 292 958 b 408 871 354 958 375 928 l 608 557 b 682 393 635 511 660 454 l 692 393 b 679 567 685 451 679 508 l 678 958 l 954 958 m 553 -67 b 643 -142 619 -67 642 -85 l 643 -208 b 558 -429 643 -314 611 -368 l 460 -403 b 485 -260 479 -356 483 -307 b 407 -193 432 -260 408 -236 l 411 -142 b 500 -67 413 -85 433 -67 "},"Ŋ":{"ha":1028,"x_min":0,"x_max":0,"o":"m 954 -46 b 753 -283 954 -196 874 -283 b 553 -247 699 -283 608 -272 l 585 -58 l 635 -58 b 694 -21 672 -58 694 -47 l 694 13 l 688 13 b 625 88 674 13 647 50 l 410 417 b 344 581 382 464 363 525 l 336 581 b 349 419 343 526 349 474 l 349 0 l 72 0 l 72 854 b 176 958 72 922 108 958 l 290 958 b 408 871 353 958 376 928 l 608 557 b 681 393 631 519 658 460 l 690 393 b 676 564 682 450 676 507 l 676 958 l 954 958 "},"Ñ":{"ha":1025,"x_min":0,"x_max":0,"o":"m 376 1278 b 611 1218 471 1271 539 1233 b 651 1271 653 1210 651 1226 l 772 1271 b 654 1036 801 1115 740 1031 b 418 1096 560 1043 481 1085 b 379 1043 376 1103 379 1088 l 258 1043 b 376 1278 228 1208 303 1283 m 954 104 b 850 0 954 36 918 0 l 735 0 b 618 88 672 0 650 31 l 410 417 b 346 581 383 464 363 522 l 336 581 b 350 406 344 522 350 461 l 350 0 l 72 0 l 72 854 b 176 958 72 922 108 958 l 292 958 b 408 871 354 958 375 928 l 608 557 b 682 393 635 511 660 454 l 692 393 b 679 567 685 451 679 508 l 678 958 l 954 958 "},"O":{"ha":982,"x_min":0,"x_max":0,"o":"m 490 978 b 938 479 819 978 938 874 b 490 -19 938 85 819 -19 b 44 479 163 -19 44 85 b 490 978 44 874 163 978 m 490 754 b 361 479 388 754 361 701 b 490 204 361 257 388 204 b 619 479 593 204 619 257 b 490 754 619 701 593 754 "},"Ó":{"ha":982,"x_min":0,"x_max":0,"o":"m 428 1000 l 349 1119 l 672 1328 l 782 1143 m 490 978 b 938 479 819 978 938 874 b 490 -19 938 85 819 -19 b 44 479 163 -19 44 85 b 490 978 44 874 163 978 m 490 754 b 361 479 388 754 361 701 b 490 204 361 257 388 204 b 619 479 593 204 619 257 b 490 754 619 701 593 754 "},"Ô":{"ha":982,"x_min":0,"x_max":0,"o":"m 718 986 l 497 1115 l 486 1115 l 261 986 l 192 1093 l 386 1278 l 597 1278 l 785 1082 m 490 978 b 938 479 819 978 938 874 b 490 -19 938 85 819 -19 b 44 479 163 -19 44 85 b 490 978 44 874 163 978 m 490 754 b 361 479 388 754 361 701 b 490 204 361 257 388 204 b 619 479 593 204 619 257 b 490 754 619 701 593 754 "},"Ö":{"ha":982,"x_min":0,"x_max":0,"o":"m 404 1256 b 458 1201 440 1256 458 1238 l 458 1114 b 404 1060 458 1078 440 1060 l 308 1060 b 254 1114 272 1060 254 1078 l 254 1201 b 308 1256 254 1238 272 1256 m 667 1256 b 721 1201 703 1256 721 1238 l 721 1114 b 667 1060 721 1078 703 1060 l 571 1060 b 517 1114 535 1060 517 1078 l 517 1201 b 571 1256 517 1238 535 1256 m 490 978 b 938 479 819 978 938 874 b 490 -19 938 85 819 -19 b 44 479 163 -19 44 85 b 490 978 44 874 163 978 m 490 754 b 361 479 388 754 361 701 b 490 204 361 257 388 204 b 619 479 593 204 619 257 b 490 754 619 701 593 754 "},"Ò":{"ha":982,"x_min":0,"x_max":0,"o":"m 550 1000 l 196 1143 l 306 1328 l 629 1119 m 490 978 b 938 479 819 978 938 874 b 490 -19 938 85 819 -19 b 44 479 163 -19 44 85 b 490 978 44 874 163 978 m 490 754 b 361 479 388 754 361 701 b 490 204 361 257 388 204 b 619 479 593 204 619 257 b 490 754 619 701 593 754 "},"Ő":{"ha":982,"x_min":0,"x_max":0,"o":"m 324 983 l 208 1076 l 379 1344 l 558 1228 m 621 983 l 507 1075 l 678 1344 l 857 1228 m 490 978 b 938 479 819 978 938 874 b 490 -19 938 85 819 -19 b 44 479 163 -19 44 85 b 490 978 44 874 163 978 m 490 754 b 361 479 388 754 361 701 b 490 204 361 257 388 204 b 619 479 593 204 619 257 b 490 754 619 701 593 754 "},"Ō":{"ha":982,"x_min":0,"x_max":0,"o":"m 269 1072 l 269 1243 l 714 1243 l 714 1072 m 490 978 b 938 479 819 978 938 874 b 490 -19 938 85 819 -19 b 44 479 163 -19 44 85 b 490 978 44 874 163 978 m 490 754 b 361 479 388 754 361 701 b 490 204 361 257 388 204 b 619 479 593 204 619 257 b 490 754 619 701 593 754 "},"Ø":{"ha":982,"x_min":0,"x_max":0,"o":"m 822 892 b 938 479 904 818 938 690 b 490 -19 938 85 819 -19 b 393 -15 456 -19 424 -18 l 324 -164 l 100 -57 l 160 68 b 44 479 78 140 44 268 b 490 978 44 874 163 978 b 588 974 525 978 557 976 l 654 1119 l 878 1014 m 490 204 b 619 479 593 204 619 257 b 490 754 619 701 593 754 b 361 479 388 754 361 701 b 490 204 361 257 388 204 "},"Õ":{"ha":982,"x_min":0,"x_max":0,"o":"m 343 1278 b 578 1218 438 1271 506 1233 b 618 1271 619 1210 618 1226 l 739 1271 b 621 1036 768 1115 707 1031 b 385 1096 526 1043 447 1085 b 346 1043 343 1103 346 1088 l 225 1043 b 343 1278 194 1208 269 1283 m 490 978 b 938 479 819 978 938 874 b 490 -19 938 85 819 -19 b 44 479 163 -19 44 85 b 490 978 44 874 163 978 m 490 754 b 361 479 388 754 361 701 b 490 204 361 257 388 204 b 619 479 593 204 619 257 b 490 754 619 701 593 754 "},"Œ":{"ha":1364,"x_min":0,"x_max":0,"o":"m 1325 13 b 836 -6 1190 -6 999 -6 b 718 26 792 -6 751 6 b 485 -19 650 -6 575 -19 b 46 479 163 -19 46 85 b 485 978 46 874 163 978 b 733 940 581 978 661 967 b 838 964 764 956 799 964 b 1325 946 1000 964 1190 964 l 1311 733 l 976 733 b 922 683 943 733 922 713 l 922 583 l 1264 583 l 1264 397 l 922 397 l 922 275 b 976 225 922 246 943 225 l 1311 225 m 364 479 b 485 204 364 257 388 204 b 619 219 546 204 588 208 l 619 742 b 485 754 588 750 544 754 b 364 479 388 754 364 701 "},"P":{"ha":897,"x_min":0,"x_max":0,"o":"m 478 972 b 875 646 782 972 875 901 b 519 322 875 393 782 322 b 374 331 471 322 421 325 l 374 0 l 72 0 l 72 958 b 478 972 200 971 286 972 m 471 535 b 574 646 553 535 574 557 b 471 760 574 738 553 760 l 374 760 l 374 535 "},"Þ":{"ha":879,"x_min":0,"x_max":0,"o":"m 468 803 b 856 476 765 803 856 732 b 510 153 856 224 765 153 b 375 160 465 153 419 156 l 375 0 l 74 0 l 74 958 l 375 958 l 375 803 m 461 365 b 554 476 536 365 554 388 b 461 590 554 568 536 590 l 375 590 l 375 365 "},"Q":{"ha":982,"x_min":0,"x_max":0,"o":"m 490 978 b 938 479 819 978 938 874 b 490 -19 938 85 819 -19 b 44 479 163 -19 44 85 b 490 978 44 874 163 978 m 490 754 b 361 479 388 754 361 701 b 490 204 361 257 388 204 b 619 479 593 204 619 257 b 490 754 619 701 593 754 m 408 -36 b 865 -139 547 -87 689 -112 l 792 -382 b 344 -179 603 -328 453 -257 "},"R":{"ha":939,"x_min":0,"x_max":0,"o":"m 606 0 l 543 285 b 461 350 532 338 513 350 l 368 350 l 368 0 l 72 0 l 72 958 b 479 972 200 971 288 972 b 883 681 761 972 883 904 b 689 453 883 565 838 468 l 689 444 b 846 294 742 438 822 411 l 921 0 m 472 563 b 581 661 558 563 581 582 b 472 760 581 740 558 760 l 368 760 l 368 563 "},"Ŕ":{"ha":939,"x_min":0,"x_max":0,"o":"m 329 1119 l 653 1328 l 763 1143 l 408 1000 m 606 0 l 543 285 b 461 350 532 338 513 350 l 368 350 l 368 0 l 72 0 l 72 958 b 479 972 200 971 288 972 b 883 681 761 972 883 904 b 689 453 883 565 838 468 l 689 444 b 846 294 742 438 822 411 l 921 0 m 472 563 b 581 661 558 563 581 582 b 472 760 581 740 558 760 l 368 760 l 368 563 "},"Ř":{"ha":939,"x_min":0,"x_max":0,"o":"m 186 1204 l 256 1311 l 465 1206 l 476 1206 l 688 1311 l 754 1204 l 528 1022 l 414 1022 m 606 0 l 543 285 b 461 350 532 338 513 350 l 368 350 l 368 0 l 72 0 l 72 958 b 479 972 200 971 288 972 b 883 681 761 972 883 904 b 689 453 883 565 838 468 l 689 444 b 846 294 742 438 822 411 l 921 0 m 472 563 b 581 661 558 563 581 582 b 472 760 581 740 558 760 l 368 760 l 368 563 "},"Ŗ":{"ha":939,"x_min":0,"x_max":0,"o":"m 606 0 l 543 285 b 461 350 532 338 513 350 l 368 350 l 368 0 l 72 0 l 72 958 b 479 972 200 971 288 972 b 883 681 761 972 883 904 b 689 453 883 565 838 468 l 689 444 b 846 294 742 438 822 411 l 921 0 m 472 563 b 581 661 558 563 581 582 b 472 760 581 740 558 760 l 368 760 l 368 563 m 508 -67 b 599 -142 575 -67 597 -85 l 599 -208 b 514 -429 599 -314 567 -368 l 415 -403 b 440 -260 435 -356 439 -307 b 363 -193 388 -260 364 -236 l 367 -142 b 456 -67 368 -85 389 -67 "},"S":{"ha":847,"x_min":0,"x_max":0,"o":"m 436 978 b 785 929 536 978 669 969 l 767 736 b 429 739 683 738 549 739 b 340 703 360 739 340 732 b 424 638 340 676 358 663 l 597 565 b 813 274 757 496 813 414 b 421 -19 813 58 719 -19 b 50 28 356 -19 217 -15 l 68 239 b 417 232 233 235 365 232 b 511 265 493 232 511 239 b 446 324 511 292 497 304 l 256 407 b 42 696 100 476 42 556 b 436 978 42 914 147 978 "},"Ś":{"ha":847,"x_min":0,"x_max":0,"o":"m 374 1000 l 294 1119 l 618 1328 l 728 1143 m 436 978 b 785 929 536 978 669 969 l 767 736 b 429 739 683 738 549 739 b 340 703 360 739 340 732 b 424 638 340 676 358 663 l 597 565 b 813 274 757 496 813 414 b 421 -19 813 58 719 -19 b 50 28 356 -19 217 -15 l 68 239 b 417 232 233 235 365 232 b 511 265 493 232 511 239 b 446 324 511 292 497 304 l 256 407 b 42 696 100 476 42 556 b 436 978 42 914 147 978 "},"Š":{"ha":847,"x_min":0,"x_max":0,"o":"m 493 1022 l 379 1022 l 151 1204 l 221 1311 l 431 1206 l 442 1206 l 653 1311 l 719 1204 m 436 978 b 785 929 536 978 669 969 l 767 736 b 429 739 683 738 549 739 b 340 703 360 739 340 732 b 424 638 340 676 358 663 l 597 565 b 813 274 757 496 813 414 b 421 -19 813 58 719 -19 b 50 28 356 -19 217 -15 l 68 239 b 417 232 233 235 365 232 b 511 265 493 232 511 239 b 446 324 511 292 497 304 l 256 407 b 42 696 100 476 42 556 b 436 978 42 914 147 978 "},"Ş":{"ha":847,"x_min":0,"x_max":0,"o":"m 436 978 b 785 929 536 978 669 969 l 767 736 b 429 739 683 738 549 739 b 340 703 360 739 340 732 b 424 638 340 676 358 663 l 597 565 b 813 274 757 496 813 414 b 421 -19 813 58 719 -19 b 50 28 356 -19 217 -15 l 68 239 b 417 232 233 235 365 232 b 511 265 493 232 511 239 b 446 324 511 292 497 304 l 256 407 b 42 696 100 476 42 556 b 436 978 42 914 147 978 m 329 -93 b 574 -183 503 -74 579 -72 b 249 -387 567 -343 422 -411 l 279 -279 b 400 -208 340 -279 394 -274 b 303 -193 403 -189 390 -193 "},"Ș":{"ha":847,"x_min":0,"x_max":0,"o":"m 436 978 b 785 929 536 978 669 969 l 767 736 b 429 739 683 738 549 739 b 340 703 360 739 340 732 b 424 638 340 676 358 663 l 597 565 b 813 274 757 496 813 414 b 421 -19 813 58 719 -19 b 50 28 356 -19 217 -15 l 68 239 b 417 232 233 235 365 232 b 511 265 493 232 511 239 b 446 324 511 292 497 304 l 256 407 b 42 696 100 476 42 556 b 436 978 42 914 147 978 m 407 -67 b 497 -142 474 -67 496 -85 l 497 -208 b 413 -429 497 -314 465 -368 l 314 -403 b 339 -260 333 -356 338 -307 b 261 -193 286 -260 263 -236 l 265 -142 b 354 -67 267 -85 288 -67 "},"T":{"ha":865,"x_min":0,"x_max":0,"o":"m 583 733 l 583 0 l 282 0 l 282 733 l 14 733 l 14 958 l 851 958 l 851 733 "},"Ŧ":{"ha":871,"x_min":0,"x_max":0,"o":"m 586 557 l 746 557 l 746 426 l 586 426 l 586 0 l 285 0 l 285 426 l 122 426 l 122 557 l 285 557 l 285 733 l 17 733 l 17 958 l 854 958 l 854 733 l 586 733 "},"Ť":{"ha":865,"x_min":0,"x_max":0,"o":"m 147 1204 l 217 1311 l 426 1206 l 438 1206 l 649 1311 l 715 1204 l 489 1022 l 375 1022 m 583 733 l 583 0 l 282 0 l 282 733 l 14 733 l 14 958 l 851 958 l 851 733 "},"Ţ":{"ha":865,"x_min":0,"x_max":0,"o":"m 583 733 l 583 0 l 282 0 l 282 733 l 14 733 l 14 958 l 851 958 l 851 733 m 326 -74 b 571 -164 500 -54 576 -53 b 246 -368 564 -324 419 -392 l 276 -260 b 397 -189 338 -260 392 -254 b 300 -174 400 -169 388 -174 "},"Ț":{"ha":865,"x_min":0,"x_max":0,"o":"m 583 733 l 583 0 l 282 0 l 282 733 l 14 733 l 14 958 l 851 958 l 851 733 m 450 -67 b 540 -142 517 -67 539 -85 l 540 -208 b 456 -429 540 -314 508 -368 l 357 -403 b 382 -260 376 -356 381 -307 b 304 -193 329 -260 306 -236 l 308 -142 b 397 -67 310 -85 331 -67 "},"U":{"ha":979,"x_min":0,"x_max":0,"o":"m 914 396 b 506 -19 914 90 806 -19 b 65 396 182 -19 65 90 l 65 958 l 367 958 l 367 396 b 490 204 367 242 393 204 b 613 396 586 204 613 242 l 613 958 l 914 958 "},"Ú":{"ha":979,"x_min":0,"x_max":0,"o":"m 428 1000 l 349 1119 l 672 1328 l 782 1143 m 914 396 b 506 -19 914 90 806 -19 b 65 396 182 -19 65 90 l 65 958 l 367 958 l 367 396 b 490 204 367 242 393 204 b 613 396 586 204 613 242 l 613 958 l 914 958 "},"Û":{"ha":979,"x_min":0,"x_max":0,"o":"m 718 986 l 497 1115 l 486 1115 l 261 986 l 192 1093 l 386 1278 l 597 1278 l 785 1082 m 914 396 b 506 -19 914 90 806 -19 b 65 396 182 -19 65 90 l 65 958 l 367 958 l 367 396 b 490 204 367 242 393 204 b 613 396 586 204 613 242 l 613 958 l 914 958 "},"Ü":{"ha":979,"x_min":0,"x_max":0,"o":"m 404 1256 b 458 1201 440 1256 458 1238 l 458 1114 b 404 1060 458 1078 440 1060 l 308 1060 b 254 1114 272 1060 254 1078 l 254 1201 b 308 1256 254 1238 272 1256 m 667 1256 b 721 1201 703 1256 721 1238 l 721 1114 b 667 1060 721 1078 703 1060 l 571 1060 b 517 1114 535 1060 517 1078 l 517 1201 b 571 1256 517 1238 535 1256 m 914 396 b 506 -19 914 90 806 -19 b 65 396 182 -19 65 90 l 65 958 l 367 958 l 367 396 b 490 204 367 242 393 204 b 613 396 586 204 613 242 l 613 958 l 914 958 "},"Ù":{"ha":979,"x_min":0,"x_max":0,"o":"m 550 1000 l 196 1143 l 306 1328 l 629 1119 m 914 396 b 506 -19 914 90 806 -19 b 65 396 182 -19 65 90 l 65 958 l 367 958 l 367 396 b 490 204 367 242 393 204 b 613 396 586 204 613 242 l 613 958 l 914 958 "},"Ű":{"ha":979,"x_min":0,"x_max":0,"o":"m 324 983 l 208 1076 l 379 1344 l 558 1228 m 621 983 l 507 1075 l 678 1344 l 857 1228 m 914 396 b 506 -19 914 90 806 -19 b 65 396 182 -19 65 90 l 65 958 l 367 958 l 367 396 b 490 204 367 242 393 204 b 613 396 586 204 613 242 l 613 958 l 914 958 "},"Ū":{"ha":979,"x_min":0,"x_max":0,"o":"m 269 1072 l 269 1243 l 714 1243 l 714 1072 m 914 396 b 506 -19 914 90 806 -19 b 65 396 182 -19 65 90 l 65 958 l 367 958 l 367 396 b 490 204 367 242 393 204 b 613 396 586 204 613 242 l 613 958 l 914 958 "},"Ų":{"ha":979,"x_min":0,"x_max":0,"o":"m 914 396 b 553 -18 914 107 817 -7 b 490 -133 532 -57 511 -90 b 557 -179 467 -183 506 -187 l 574 -279 b 299 -158 349 -364 265 -260 b 432 -17 311 -117 354 -65 b 65 396 164 0 65 115 l 65 958 l 367 958 l 367 396 b 490 204 367 242 393 204 b 613 396 586 204 613 242 l 613 958 l 914 958 "},"Ů":{"ha":979,"x_min":0,"x_max":0,"o":"m 490 1338 b 669 1164 588 1338 669 1260 b 490 990 669 1067 588 990 b 311 1164 393 990 311 1067 b 490 1338 311 1260 393 1338 m 490 1226 b 429 1164 457 1226 429 1197 b 490 1101 429 1129 457 1101 b 551 1164 524 1101 551 1129 b 490 1226 551 1197 524 1226 m 914 396 b 506 -19 914 90 806 -19 b 65 396 182 -19 65 90 l 65 958 l 367 958 l 367 396 b 490 204 367 242 393 204 b 613 396 586 204 613 242 l 613 958 l 914 958 "},"V":{"ha":931,"x_min":0,"x_max":0,"o":"m 700 81 b 597 0 689 32 649 0 l 333 0 b 231 81 282 0 242 32 l -3 958 l 307 958 l 431 335 b 449 225 438 300 443 260 l 482 225 b 500 335 486 260 493 300 l 624 958 l 933 958 "},"W":{"ha":1393,"x_min":0,"x_max":0,"o":"m 1246 81 b 1143 0 1239 32 1194 0 l 888 0 b 785 81 836 0 790 32 l 719 610 b 708 750 714 656 711 704 l 685 750 b 674 608 682 703 679 654 l 610 81 b 507 0 604 32 558 0 l 250 0 b 147 81 199 0 154 32 l 28 958 l 325 958 l 374 371 b 379 211 376 324 379 272 l 401 211 b 424 372 408 260 418 322 l 488 869 b 589 958 493 922 535 958 l 804 958 b 906 869 858 958 899 922 l 971 369 b 992 211 976 319 985 261 l 1014 211 b 1021 368 1014 263 1018 321 l 1068 958 l 1365 958 "},"Ẃ":{"ha":1393,"x_min":0,"x_max":0,"o":"m 635 1000 l 556 1119 l 879 1328 l 989 1143 m 1246 81 b 1143 0 1239 32 1194 0 l 888 0 b 785 81 836 0 790 32 l 719 610 b 708 750 714 656 711 704 l 685 750 b 674 608 682 703 679 654 l 610 81 b 507 0 604 32 558 0 l 250 0 b 147 81 199 0 154 32 l 28 958 l 325 958 l 374 371 b 379 211 376 324 379 272 l 401 211 b 424 372 408 260 418 322 l 488 869 b 589 958 493 922 535 958 l 804 958 b 906 869 858 958 899 922 l 971 369 b 992 211 976 319 985 261 l 1014 211 b 1021 368 1014 263 1018 321 l 1068 958 l 1365 958 "},"Ŵ":{"ha":1393,"x_min":0,"x_max":0,"o":"m 925 986 l 704 1115 l 693 1115 l 468 986 l 399 1093 l 593 1278 l 804 1278 l 992 1082 m 1246 81 b 1143 0 1239 32 1194 0 l 888 0 b 785 81 836 0 790 32 l 719 610 b 708 750 714 656 711 704 l 685 750 b 674 608 682 703 679 654 l 610 81 b 507 0 604 32 558 0 l 250 0 b 147 81 199 0 154 32 l 28 958 l 325 958 l 374 371 b 379 211 376 324 379 272 l 401 211 b 424 372 408 260 418 322 l 488 869 b 589 958 493 922 535 958 l 804 958 b 906 869 858 958 899 922 l 971 369 b 992 211 976 319 985 261 l 1014 211 b 1021 368 1014 263 1018 321 l 1068 958 l 1365 958 "},"Ẅ":{"ha":1393,"x_min":0,"x_max":0,"o":"m 611 1256 b 665 1201 647 1256 665 1238 l 665 1114 b 611 1060 665 1078 647 1060 l 515 1060 b 461 1114 479 1060 461 1078 l 461 1201 b 515 1256 461 1238 479 1256 m 874 1256 b 928 1201 910 1256 928 1238 l 928 1114 b 874 1060 928 1078 910 1060 l 778 1060 b 724 1114 742 1060 724 1078 l 724 1201 b 778 1256 724 1238 742 1256 m 1246 81 b 1143 0 1239 32 1194 0 l 888 0 b 785 81 836 0 790 32 l 719 610 b 708 750 714 656 711 704 l 685 750 b 674 608 682 703 679 654 l 610 81 b 507 0 604 32 558 0 l 250 0 b 147 81 199 0 154 32 l 28 958 l 325 958 l 374 371 b 379 211 376 324 379 272 l 401 211 b 424 372 408 260 418 322 l 488 869 b 589 958 493 922 535 958 l 804 958 b 906 869 858 958 899 922 l 971 369 b 992 211 976 319 985 261 l 1014 211 b 1021 368 1014 263 1018 321 l 1068 958 l 1365 958 "},"Ẁ":{"ha":1393,"x_min":0,"x_max":0,"o":"m 757 1000 l 403 1143 l 513 1328 l 836 1119 m 1246 81 b 1143 0 1239 32 1194 0 l 888 0 b 785 81 836 0 790 32 l 719 610 b 708 750 714 656 711 704 l 685 750 b 674 608 682 703 679 654 l 610 81 b 507 0 604 32 558 0 l 250 0 b 147 81 199 0 154 32 l 28 958 l 325 958 l 374 371 b 379 211 376 324 379 272 l 401 211 b 424 372 408 260 418 322 l 488 869 b 589 958 493 922 535 958 l 804 958 b 906 869 858 958 899 922 l 971 369 b 992 211 976 319 985 261 l 1014 211 b 1021 368 1014 263 1018 321 l 1068 958 l 1365 958 "},"X":{"ha":940,"x_min":0,"x_max":0,"o":"m 471 403 l 292 0 l -7 0 l 231 489 l 13 958 l 310 958 l 471 579 l 631 958 l 928 958 l 710 489 l 947 0 l 649 0 "},"Y":{"ha":908,"x_min":0,"x_max":0,"o":"m 606 0 l 304 0 l 304 296 l -14 958 l 296 958 l 417 657 b 446 522 433 615 439 565 l 464 522 b 493 658 471 565 478 617 l 613 958 l 922 958 l 606 299 "},"Ý":{"ha":908,"x_min":0,"x_max":0,"o":"m 313 1119 l 636 1328 l 746 1143 l 392 1000 m 606 0 l 304 0 l 304 296 l -14 958 l 296 958 l 417 657 b 446 522 433 615 439 565 l 464 522 b 493 658 471 565 478 617 l 613 958 l 922 958 l 606 299 "},"Ŷ":{"ha":908,"x_min":0,"x_max":0,"o":"m 156 1093 l 350 1278 l 561 1278 l 749 1082 l 682 986 l 461 1115 l 450 1115 l 225 986 m 606 0 l 304 0 l 304 296 l -14 958 l 296 958 l 417 657 b 446 522 433 615 439 565 l 464 522 b 493 658 471 565 478 617 l 613 958 l 922 958 l 606 299 "},"Ÿ":{"ha":908,"x_min":0,"x_max":0,"o":"m 272 1060 b 218 1114 236 1060 218 1078 l 218 1201 b 272 1256 218 1238 236 1256 l 368 1256 b 422 1201 404 1256 422 1238 l 422 1114 b 368 1060 422 1078 404 1060 m 535 1060 b 481 1114 499 1060 481 1078 l 481 1201 b 535 1256 481 1238 499 1256 l 631 1256 b 685 1201 667 1256 685 1238 l 685 1114 b 631 1060 685 1078 667 1060 m 606 0 l 304 0 l 304 296 l -14 958 l 296 958 l 417 657 b 446 522 433 615 439 565 l 464 522 b 493 658 471 565 478 617 l 613 958 l 922 958 l 606 299 "},"Ỳ":{"ha":908,"x_min":0,"x_max":0,"o":"m 160 1143 l 269 1328 l 593 1119 l 514 1000 m 606 0 l 304 0 l 304 296 l -14 958 l 296 958 l 417 657 b 446 522 433 615 439 565 l 464 522 b 493 658 471 565 478 617 l 613 958 l 922 958 l 606 299 "},"Z":{"ha":840,"x_min":0,"x_max":0,"o":"m 801 0 l 40 0 l 40 211 l 454 747 l 54 747 l 54 958 l 788 958 l 788 747 l 374 211 l 801 211 "},"Ź":{"ha":840,"x_min":0,"x_max":0,"o":"m 288 1119 l 611 1328 l 721 1143 l 367 1000 m 801 0 l 40 0 l 40 211 l 454 747 l 54 747 l 54 958 l 788 958 l 788 747 l 374 211 l 801 211 "},"Ž":{"ha":840,"x_min":0,"x_max":0,"o":"m 144 1204 l 214 1311 l 424 1206 l 435 1206 l 646 1311 l 713 1204 l 486 1022 l 372 1022 m 801 0 l 40 0 l 40 211 l 454 747 l 54 747 l 54 958 l 788 958 l 788 747 l 374 211 l 801 211 "},"Ż":{"ha":840,"x_min":0,"x_max":0,"o":"m 386 1044 b 304 1124 331 1044 304 1071 l 304 1189 b 386 1268 304 1243 331 1268 l 474 1268 b 556 1189 529 1268 556 1243 l 556 1124 b 474 1044 556 1071 529 1044 m 801 0 l 40 0 l 40 211 l 454 747 l 54 747 l 54 958 l 788 958 l 788 747 l 374 211 l 801 211 "},"a":{"ha":819,"x_min":0,"x_max":0,"o":"m 463 714 b 767 431 658 714 767 647 l 767 0 l 535 0 l 508 97 b 268 -19 461 38 386 -19 b 29 178 139 -19 29 47 l 29 247 b 258 426 29 358 117 426 l 475 426 l 475 432 b 393 501 474 481 454 501 b 93 494 321 501 211 500 l 67 679 b 463 714 172 699 357 714 m 313 221 b 371 178 313 196 332 178 b 475 213 403 178 440 192 l 475 286 l 365 286 b 313 243 331 286 313 268 "},"á":{"ha":819,"x_min":0,"x_max":0,"o":"m 279 858 l 603 1067 l 713 882 l 358 739 m 463 714 b 767 431 658 714 767 647 l 767 0 l 535 0 l 508 97 b 268 -19 461 38 386 -19 b 29 178 139 -19 29 47 l 29 247 b 258 426 29 358 117 426 l 475 426 l 475 432 b 393 501 474 481 454 501 b 93 494 321 501 211 500 l 67 679 b 463 714 172 699 357 714 m 313 221 b 371 178 313 196 332 178 b 475 213 403 178 440 192 l 475 286 l 365 286 b 313 243 331 286 313 268 "},"ă":{"ha":819,"x_min":0,"x_max":0,"o":"m 421 763 b 172 1001 250 763 150 878 l 307 1019 b 421 938 307 961 338 938 b 533 1019 503 938 533 961 l 668 1001 b 421 763 690 878 592 763 m 463 714 b 767 431 658 714 767 647 l 767 0 l 535 0 l 508 97 b 268 -19 461 38 386 -19 b 29 178 139 -19 29 47 l 29 247 b 258 426 29 358 117 426 l 475 426 l 475 432 b 393 501 474 481 454 501 b 93 494 321 501 211 500 l 67 679 b 463 714 172 699 357 714 m 313 221 b 371 178 313 196 332 178 b 475 213 403 178 440 192 l 475 286 l 365 286 b 313 243 331 286 313 268 "},"â":{"ha":819,"x_min":0,"x_max":0,"o":"m 122 832 l 317 1017 l 528 1017 l 715 821 l 649 725 l 428 854 l 417 854 l 192 725 m 463 714 b 767 431 658 714 767 647 l 767 0 l 535 0 l 508 97 b 268 -19 461 38 386 -19 b 29 178 139 -19 29 47 l 29 247 b 258 426 29 358 117 426 l 475 426 l 475 432 b 393 501 474 481 454 501 b 93 494 321 501 211 500 l 67 679 b 463 714 172 699 357 714 m 313 221 b 371 178 313 196 332 178 b 475 213 403 178 440 192 l 475 286 l 365 286 b 313 243 331 286 313 268 "},"ä":{"ha":819,"x_min":0,"x_max":0,"o":"m 239 799 b 185 853 203 799 185 817 l 185 940 b 239 994 185 976 203 994 l 335 994 b 389 940 371 994 389 976 l 389 853 b 335 799 389 817 371 799 m 501 799 b 447 853 465 799 447 817 l 447 940 b 501 994 447 976 465 994 l 597 994 b 651 940 633 994 651 976 l 651 853 b 597 799 651 817 633 799 m 463 714 b 767 431 658 714 767 647 l 767 0 l 535 0 l 508 97 b 268 -19 461 38 386 -19 b 29 178 139 -19 29 47 l 29 247 b 258 426 29 358 117 426 l 475 426 l 475 432 b 393 501 474 481 454 501 b 93 494 321 501 211 500 l 67 679 b 463 714 172 699 357 714 m 313 221 b 371 178 313 196 332 178 b 475 213 403 178 440 192 l 475 286 l 365 286 b 313 243 331 286 313 268 "},"à":{"ha":819,"x_min":0,"x_max":0,"o":"m 126 882 l 236 1067 l 560 858 l 481 739 m 463 714 b 767 431 658 714 767 647 l 767 0 l 535 0 l 508 97 b 268 -19 461 38 386 -19 b 29 178 139 -19 29 47 l 29 247 b 258 426 29 358 117 426 l 475 426 l 475 432 b 393 501 474 481 454 501 b 93 494 321 501 211 500 l 67 679 b 463 714 172 699 357 714 m 313 221 b 371 178 313 196 332 178 b 475 213 403 178 440 192 l 475 286 l 365 286 b 313 243 331 286 313 268 "},"ā":{"ha":819,"x_min":0,"x_max":0,"o":"m 200 811 l 200 982 l 644 982 l 644 811 m 463 714 b 767 431 658 714 767 647 l 767 0 l 535 0 l 508 97 b 268 -19 461 38 386 -19 b 29 178 139 -19 29 47 l 29 247 b 258 426 29 358 117 426 l 475 426 l 475 432 b 393 501 474 481 454 501 b 93 494 321 501 211 500 l 67 679 b 463 714 172 699 357 714 m 313 221 b 371 178 313 196 332 178 b 475 213 403 178 440 192 l 475 286 l 365 286 b 313 243 331 286 313 268 "},"ą":{"ha":819,"x_min":0,"x_max":0,"o":"m 785 -267 b 510 -146 560 -351 476 -247 b 651 0 524 -103 568 -49 l 535 0 l 508 97 b 268 -19 461 38 386 -19 b 29 178 139 -19 29 47 l 29 247 b 258 426 29 358 117 426 l 475 426 l 475 432 b 393 501 474 481 454 501 b 93 494 321 501 211 500 l 67 679 b 463 714 172 699 357 714 b 767 431 658 714 767 647 l 767 0 b 701 -121 744 -40 724 -75 b 768 -167 678 -171 717 -175 m 313 221 b 371 178 313 196 332 178 b 475 213 403 178 440 192 l 475 286 l 365 286 b 313 243 331 286 313 268 "},"å":{"ha":819,"x_min":0,"x_max":0,"o":"m 421 729 b 242 903 324 729 242 806 b 421 1076 242 999 324 1076 b 600 903 518 1076 600 999 b 421 729 600 806 518 729 m 421 965 b 360 903 388 965 360 936 b 421 840 360 868 388 840 b 482 903 454 840 482 868 b 421 965 482 936 454 965 m 463 714 b 767 431 658 714 767 647 l 767 0 l 535 0 l 508 97 b 268 -19 461 38 386 -19 b 29 178 139 -19 29 47 l 29 247 b 258 426 29 358 117 426 l 475 426 l 475 432 b 393 501 474 481 454 501 b 93 494 321 501 211 500 l 67 679 b 463 714 172 699 357 714 m 313 221 b 371 178 313 196 332 178 b 475 213 403 178 440 192 l 475 286 l 365 286 b 313 243 331 286 313 268 "},"ã":{"ha":819,"x_min":0,"x_max":0,"o":"m 156 782 b 274 1017 125 947 200 1022 b 508 957 368 1010 436 972 b 549 1010 550 949 549 965 l 669 1010 b 551 775 699 854 638 769 b 315 835 457 782 378 824 b 276 782 274 842 276 826 m 463 714 b 767 431 658 714 767 647 l 767 0 l 535 0 l 508 97 b 268 -19 461 38 386 -19 b 29 178 139 -19 29 47 l 29 247 b 258 426 29 358 117 426 l 475 426 l 475 432 b 393 501 474 481 454 501 b 93 494 321 501 211 500 l 67 679 b 463 714 172 699 357 714 m 313 221 b 371 178 313 196 332 178 b 475 213 403 178 440 192 l 475 286 l 365 286 b 313 243 331 286 313 268 "},"æ":{"ha":1231,"x_min":0,"x_max":0,"o":"m 881 207 b 1156 222 932 207 1038 210 l 1182 47 b 849 -17 1085 -3 972 -17 b 521 106 683 -17 579 25 b 263 -19 475 44 396 -19 b 29 178 136 -19 29 47 l 29 247 b 253 422 29 354 115 422 l 460 422 l 460 432 b 385 501 460 481 440 501 b 92 494 314 501 207 500 l 65 679 b 454 714 168 699 351 714 b 632 682 525 714 585 704 b 847 714 688 704 758 714 b 1201 467 1104 714 1200 629 b 933 283 1203 338 1138 283 l 758 283 b 881 207 771 226 801 207 m 856 526 b 754 421 781 528 758 515 l 851 421 b 922 474 913 421 922 426 b 856 526 922 518 903 526 m 367 178 b 472 215 400 178 438 193 b 463 285 468 238 464 261 l 363 286 b 313 243 329 286 313 268 l 313 221 b 367 178 313 196 331 178 "},"b":{"ha":858,"x_min":0,"x_max":0,"o":"m 558 714 b 821 356 753 714 821 610 b 447 -17 821 168 764 -17 b 58 42 346 -17 139 0 l 58 972 l 350 972 l 353 779 b 332 613 354 724 347 665 b 558 714 389 665 469 714 m 442 179 b 521 354 501 183 521 213 b 436 496 521 472 503 496 b 350 478 400 496 375 488 l 350 185 b 442 179 382 181 419 178 "},"c":{"ha":733,"x_min":0,"x_max":0,"o":"m 408 714 b 699 663 493 714 615 703 l 669 482 l 458 482 b 342 349 369 482 342 456 b 458 214 342 240 369 214 b 682 224 506 214 594 214 l 708 42 b 406 -17 626 -1 513 -17 b 36 349 133 -17 36 81 b 408 714 36 617 135 714 "},"ć":{"ha":733,"x_min":0,"x_max":0,"o":"m 343 739 l 264 858 l 588 1067 l 697 882 m 408 714 b 699 663 493 714 615 703 l 669 482 l 458 482 b 342 349 369 482 342 456 b 458 214 342 240 369 214 b 682 224 506 214 594 214 l 708 42 b 406 -17 626 -1 513 -17 b 36 349 133 -17 36 81 b 408 714 36 617 135 714 "},"č":{"ha":733,"x_min":0,"x_max":0,"o":"m 463 761 l 349 761 l 121 943 l 190 1050 l 400 944 l 411 944 l 622 1050 l 689 943 m 408 714 b 699 663 493 714 615 703 l 669 482 l 458 482 b 342 349 369 482 342 456 b 458 214 342 240 369 214 b 682 224 506 214 594 214 l 708 42 b 406 -17 626 -1 513 -17 b 36 349 133 -17 36 81 b 408 714 36 617 135 714 "},"ç":{"ha":733,"x_min":0,"x_max":0,"o":"m 408 714 b 699 663 493 714 615 703 l 669 482 l 458 482 b 342 349 369 482 342 456 b 458 214 342 240 369 214 b 682 224 506 214 594 214 l 708 42 b 406 -17 626 -1 513 -17 b 36 349 133 -17 36 81 b 408 714 36 617 135 714 m 289 -69 b 533 -160 463 -50 539 -49 b 208 -364 526 -319 382 -387 l 239 -256 b 360 -185 300 -256 354 -250 b 263 -169 363 -165 350 -169 "},"ċ":{"ha":733,"x_min":0,"x_max":0,"o":"m 450 1007 b 532 928 506 1007 532 982 l 532 863 b 450 783 532 810 506 783 l 363 783 b 281 863 307 783 281 810 l 281 928 b 363 1007 281 982 307 1007 m 408 714 b 699 663 493 714 615 703 l 669 482 l 458 482 b 342 349 369 482 342 456 b 458 214 342 240 369 214 b 682 224 506 214 594 214 l 708 42 b 406 -17 626 -1 513 -17 b 36 349 133 -17 36 81 b 408 714 36 617 135 714 "},"d":{"ha":861,"x_min":0,"x_max":0,"o":"m 801 0 l 569 0 l 546 114 b 290 -17 506 39 426 -17 b 39 356 108 -17 39 119 b 303 714 39 640 131 714 b 515 656 383 714 458 697 b 510 807 513 704 510 757 l 510 972 l 801 972 m 415 217 b 510 238 460 217 485 225 l 510 506 b 419 524 485 515 460 524 b 339 358 361 524 339 507 b 415 217 339 231 361 217 "},"ð":{"ha":839,"x_min":0,"x_max":0,"o":"m 682 797 b 800 404 763 696 800 558 b 413 -19 800 83 679 -19 b 38 297 156 -19 38 81 b 350 629 38 525 121 629 b 481 613 386 629 435 626 b 179 789 454 750 379 804 l 203 969 b 496 932 318 978 415 964 l 610 1047 l 775 890 m 415 181 b 494 403 485 181 494 215 l 494 428 b 419 432 471 431 446 432 b 343 303 368 432 343 424 b 415 181 343 204 356 181 "},"ď":{"ha":861,"x_min":0,"x_max":0,"o":"m 983 978 b 1061 908 1040 978 1061 961 l 1061 847 b 989 644 1061 750 1035 700 l 903 668 b 924 800 919 713 922 757 b 857 861 879 800 858 822 l 861 908 b 938 978 861 961 881 978 m 801 972 l 801 0 l 569 0 l 546 114 b 290 -17 506 39 426 -17 b 39 356 108 -17 39 119 b 303 714 39 640 131 714 b 515 656 383 714 458 697 b 510 807 513 704 510 757 l 510 972 m 415 217 b 510 238 460 217 485 225 l 510 506 b 419 524 485 515 460 524 b 339 358 361 524 339 507 b 415 217 339 231 361 217 "},"đ":{"ha":857,"x_min":0,"x_max":0,"o":"m 801 760 l 801 0 l 569 0 l 546 114 b 290 -17 506 39 426 -17 b 39 356 108 -17 39 119 b 303 714 39 640 131 714 b 515 656 383 714 458 697 b 510 760 513 689 511 725 l 361 760 l 361 876 l 510 876 l 510 972 l 801 972 l 801 876 l 876 876 l 876 760 m 415 217 b 510 238 460 217 485 225 l 510 506 b 419 524 485 515 460 524 b 339 358 361 524 339 507 b 415 217 339 231 361 217 "},"e":{"ha":819,"x_min":0,"x_max":0,"o":"m 463 207 b 744 222 518 207 625 210 l 771 47 b 431 -17 672 -3 556 -17 b 35 342 140 -17 35 106 b 429 714 35 615 142 714 b 790 467 690 714 789 629 b 521 283 792 338 725 283 l 347 283 b 463 207 358 226 389 207 m 438 526 b 342 421 367 528 346 515 l 439 421 b 511 474 501 421 511 426 b 438 526 511 518 490 526 "},"é":{"ha":819,"x_min":0,"x_max":0,"o":"m 292 858 l 615 1067 l 725 882 l 371 739 m 463 207 b 744 222 518 207 625 210 l 771 47 b 431 -17 672 -3 556 -17 b 35 342 140 -17 35 106 b 429 714 35 615 142 714 b 790 467 690 714 789 629 b 521 283 792 338 725 283 l 347 283 b 463 207 358 226 389 207 m 438 526 b 342 421 367 528 346 515 l 439 421 b 511 474 501 421 511 426 b 438 526 511 518 490 526 "},"ě":{"ha":819,"x_min":0,"x_max":0,"o":"m 149 943 l 218 1050 l 428 944 l 439 944 l 650 1050 l 717 943 l 490 761 l 376 761 m 463 207 b 744 222 518 207 625 210 l 771 47 b 431 -17 672 -3 556 -17 b 35 342 140 -17 35 106 b 429 714 35 615 142 714 b 790 467 690 714 789 629 b 521 283 792 338 725 283 l 347 283 b 463 207 358 226 389 207 m 438 526 b 342 421 367 528 346 515 l 439 421 b 511 474 501 421 511 426 b 438 526 511 518 490 526 "},"ê":{"ha":819,"x_min":0,"x_max":0,"o":"m 135 832 l 329 1017 l 540 1017 l 728 821 l 661 725 l 440 854 l 429 854 l 204 725 m 463 207 b 744 222 518 207 625 210 l 771 47 b 431 -17 672 -3 556 -17 b 35 342 140 -17 35 106 b 429 714 35 615 142 714 b 790 467 690 714 789 629 b 521 283 792 338 725 283 l 347 283 b 463 207 358 226 389 207 m 438 526 b 342 421 367 528 346 515 l 439 421 b 511 474 501 421 511 426 b 438 526 511 518 490 526 "},"ë":{"ha":819,"x_min":0,"x_max":0,"o":"m 251 799 b 197 853 215 799 197 817 l 197 940 b 251 994 197 976 215 994 l 347 994 b 401 940 383 994 401 976 l 401 853 b 347 799 401 817 383 799 m 514 799 b 460 853 478 799 460 817 l 460 940 b 514 994 460 976 478 994 l 610 994 b 664 940 646 994 664 976 l 664 853 b 610 799 664 817 646 799 m 463 207 b 744 222 518 207 625 210 l 771 47 b 431 -17 672 -3 556 -17 b 35 342 140 -17 35 106 b 429 714 35 615 142 714 b 790 467 690 714 789 629 b 521 283 792 338 725 283 l 347 283 b 463 207 358 226 389 207 m 438 526 b 342 421 367 528 346 515 l 439 421 b 511 474 501 421 511 426 b 438 526 511 518 490 526 "},"ė":{"ha":819,"x_min":0,"x_max":0,"o":"m 390 783 b 308 863 335 783 308 810 l 308 928 b 390 1007 308 982 335 1007 l 478 1007 b 560 928 533 1007 560 982 l 560 863 b 478 783 560 810 533 783 m 463 207 b 744 222 518 207 625 210 l 771 47 b 431 -17 672 -3 556 -17 b 35 342 140 -17 35 106 b 429 714 35 615 142 714 b 790 467 690 714 789 629 b 521 283 792 338 725 283 l 347 283 b 463 207 358 226 389 207 m 438 526 b 342 421 367 528 346 515 l 439 421 b 511 474 501 421 511 426 b 438 526 511 518 490 526 "},"è":{"ha":819,"x_min":0,"x_max":0,"o":"m 139 882 l 249 1067 l 572 858 l 493 739 m 463 207 b 744 222 518 207 625 210 l 771 47 b 431 -17 672 -3 556 -17 b 35 342 140 -17 35 106 b 429 714 35 615 142 714 b 790 467 690 714 789 629 b 521 283 792 338 725 283 l 347 283 b 463 207 358 226 389 207 m 438 526 b 342 421 367 528 346 515 l 439 421 b 511 474 501 421 511 426 b 438 526 511 518 490 526 "},"ē":{"ha":819,"x_min":0,"x_max":0,"o":"m 213 811 l 213 982 l 657 982 l 657 811 m 463 207 b 744 222 518 207 625 210 l 771 47 b 431 -17 672 -3 556 -17 b 35 342 140 -17 35 106 b 429 714 35 615 142 714 b 790 467 690 714 789 629 b 521 283 792 338 725 283 l 347 283 b 463 207 358 226 389 207 m 438 526 b 342 421 367 528 346 515 l 439 421 b 511 474 501 421 511 426 b 438 526 511 518 490 526 "},"ę":{"ha":819,"x_min":0,"x_max":0,"o":"m 706 -74 b 772 -119 682 -124 721 -128 l 789 -219 b 514 -99 564 -304 481 -200 b 578 -8 522 -71 543 -40 b 431 -17 531 -14 482 -17 b 35 342 140 -17 35 106 b 429 714 35 615 142 714 b 790 467 690 714 789 629 b 521 283 792 338 725 283 l 347 283 b 463 207 358 226 389 207 b 744 222 518 207 625 210 l 771 47 b 706 -74 749 7 728 -28 m 438 526 b 342 421 367 528 346 515 l 439 421 b 511 474 501 421 511 426 b 438 526 511 518 490 526 "},"f":{"ha":593,"x_min":0,"x_max":0,"o":"m 488 811 b 421 739 436 811 421 793 l 421 694 l 586 694 l 586 519 l 421 519 l 421 0 l 128 0 l 128 519 l 11 519 l 11 688 l 128 694 l 128 779 b 383 1006 128 910 193 1006 b 638 986 439 1006 568 1000 l 610 811 "},"g":{"ha":839,"x_min":0,"x_max":0,"o":"m 744 575 b 756 494 753 551 756 525 b 399 275 756 333 663 275 b 296 279 361 275 326 276 b 335 217 279 258 285 219 l 588 200 b 810 -18 746 189 810 119 b 408 -251 810 -215 690 -251 b 10 -54 76 -251 10 -197 b 118 93 10 11 33 57 b 157 307 56 160 81 271 b 40 494 75 339 40 399 b 400 714 40 654 138 714 b 601 694 483 714 550 708 l 835 694 l 821 588 m 399 433 b 485 494 467 433 485 446 b 399 554 485 543 467 554 b 311 494 331 554 311 543 b 399 433 311 446 331 433 m 538 -17 b 429 26 538 18 504 21 l 306 36 b 282 -10 288 22 282 13 b 404 -54 282 -46 308 -54 b 538 -17 510 -54 538 -47 "},"ğ":{"ha":839,"x_min":0,"x_max":0,"o":"m 406 763 b 157 1001 235 763 135 878 l 292 1019 b 406 938 292 961 322 938 b 518 1019 488 938 518 961 l 653 1001 b 406 763 675 878 576 763 m 744 575 b 756 494 753 551 756 525 b 399 275 756 333 663 275 b 296 279 361 275 326 276 b 335 217 279 258 285 219 l 588 200 b 810 -18 746 189 810 119 b 408 -251 810 -215 690 -251 b 10 -54 76 -251 10 -197 b 118 93 10 11 33 57 b 157 307 56 160 81 271 b 40 494 75 339 40 399 b 400 714 40 654 138 714 b 601 694 483 714 550 708 l 835 694 l 821 588 m 399 433 b 485 494 467 433 485 446 b 399 554 485 543 467 554 b 311 494 331 554 311 543 b 399 433 311 446 331 433 m 538 -17 b 429 26 538 18 504 21 l 306 36 b 282 -10 288 22 282 13 b 404 -54 282 -46 308 -54 b 538 -17 510 -54 538 -47 "},"ģ":{"ha":839,"x_min":0,"x_max":0,"o":"m 394 761 b 304 836 328 761 306 779 l 304 903 b 389 1124 304 1008 336 1063 l 488 1097 b 463 954 468 1050 464 1001 b 540 888 515 954 539 931 l 536 836 b 447 761 535 779 514 761 m 744 575 b 756 494 753 551 756 525 b 399 275 756 333 663 275 b 296 279 361 275 326 276 b 335 217 279 258 285 219 l 588 200 b 810 -18 746 189 810 119 b 408 -251 810 -215 690 -251 b 10 -54 76 -251 10 -197 b 118 93 10 11 33 57 b 157 307 56 160 81 271 b 40 494 75 339 40 399 b 400 714 40 654 138 714 b 601 694 483 714 550 708 l 835 694 l 821 588 m 399 433 b 485 494 467 433 485 446 b 399 554 485 543 467 554 b 311 494 331 554 311 543 b 399 433 311 446 331 433 m 538 -17 b 429 26 538 18 504 21 l 306 36 b 282 -10 288 22 282 13 b 404 -54 282 -46 308 -54 b 538 -17 510 -54 538 -47 "},"ġ":{"ha":839,"x_min":0,"x_max":0,"o":"m 363 783 b 281 863 307 783 281 810 l 281 928 b 363 1007 281 982 307 1007 l 450 1007 b 532 928 506 1007 532 982 l 532 863 b 450 783 532 810 506 783 m 744 575 b 756 494 753 551 756 525 b 399 275 756 333 663 275 b 296 279 361 275 326 276 b 335 217 279 258 285 219 l 588 200 b 810 -18 746 189 810 119 b 408 -251 810 -215 690 -251 b 10 -54 76 -251 10 -197 b 118 93 10 11 33 57 b 157 307 56 160 81 271 b 40 494 75 339 40 399 b 400 714 40 654 138 714 b 601 694 483 714 550 708 l 835 694 l 821 588 m 399 433 b 485 494 467 433 485 446 b 399 554 485 543 467 554 b 311 494 331 554 311 543 b 399 433 311 446 331 433 m 538 -17 b 429 26 538 18 504 21 l 306 36 b 282 -10 288 22 282 13 b 404 -54 282 -46 308 -54 b 538 -17 510 -54 538 -47 "},"h":{"ha":863,"x_min":0,"x_max":0,"o":"m 601 714 b 807 519 736 714 807 647 l 807 0 l 515 0 l 515 426 b 465 468 515 457 501 468 b 351 451 435 468 403 467 l 351 0 l 60 0 l 60 972 l 351 972 l 353 765 b 339 611 353 710 347 656 b 601 714 425 681 517 714 "},"ħ":{"ha":867,"x_min":0,"x_max":0,"o":"m 606 714 b 811 519 740 714 811 647 l 811 0 l 519 0 l 519 426 b 469 468 519 457 506 468 b 356 451 439 468 407 467 l 356 0 l 64 0 l 64 760 l -12 760 l -12 876 l 64 876 l 64 972 l 356 972 l 356 876 l 503 876 l 503 760 l 357 760 b 343 611 357 707 350 654 b 606 714 429 681 521 714 "},"i":{"ha":421,"x_min":0,"x_max":0,"o":"m 272 1013 b 357 926 329 1013 357 985 l 357 856 b 272 769 357 797 329 769 l 149 769 b 64 856 92 769 64 797 l 64 926 b 149 1013 64 985 92 1013 m 65 0 l 65 694 l 356 694 l 356 0 "},"ı":{"ha":424,"x_min":0,"x_max":0,"o":"m 65 0 l 65 694 l 358 694 l 358 0 "},"í":{"ha":424,"x_min":0,"x_max":0,"o":"m 150 739 l 71 858 l 394 1067 l 504 882 m 65 0 l 65 694 l 358 694 l 358 0 "},"î":{"ha":424,"x_min":0,"x_max":0,"o":"m 440 725 l 219 854 l 208 854 l -17 725 l -86 832 l 108 1017 l 319 1017 l 507 821 m 65 0 l 65 694 l 358 694 l 358 0 "},"ï":{"ha":424,"x_min":0,"x_max":0,"o":"m 126 994 b 181 940 163 994 181 976 l 181 853 b 126 799 181 817 163 799 l 31 799 b -24 853 -6 799 -24 817 l -24 940 b 31 994 -24 976 -6 994 m 389 994 b 443 940 425 994 443 976 l 443 853 b 389 799 443 817 425 799 l 293 799 b 239 853 257 799 239 817 l 239 940 b 293 994 239 976 257 994 m 65 0 l 65 694 l 358 694 l 358 0 "},"ì":{"ha":424,"x_min":0,"x_max":0,"o":"m 272 739 l -82 882 l 28 1067 l 351 858 m 65 0 l 65 694 l 358 694 l 358 0 "},"ĳ":{"ha":843,"x_min":0,"x_max":0,"o":"m 690 1026 b 775 940 747 1026 775 999 l 775 869 b 690 783 775 811 747 783 l 567 783 b 482 869 510 783 482 811 l 482 940 b 567 1026 482 999 510 1026 m 272 1013 b 357 926 329 1013 357 985 l 357 856 b 272 769 357 797 329 769 l 149 769 b 64 856 92 769 64 797 l 64 926 b 149 1013 64 985 92 1013 m 65 0 l 65 694 l 356 694 l 356 0 m 778 81 b 553 -264 778 -64 693 -207 l 392 -136 b 488 81 465 -62 488 1 l 488 694 l 778 694 "},"ī":{"ha":424,"x_min":0,"x_max":0,"o":"m -8 811 l -8 982 l 436 982 l 436 811 m 65 0 l 65 694 l 358 694 l 358 0 "},"į":{"ha":424,"x_min":0,"x_max":0,"o":"m 169 783 b 88 863 114 783 88 810 l 88 928 b 169 1007 88 982 114 1007 l 257 1007 b 339 928 313 1007 339 982 l 339 863 b 257 783 339 810 313 783 m 331 0 b 265 -121 308 -40 288 -75 b 332 -167 242 -171 281 -175 l 349 -267 b 74 -146 124 -351 40 -247 b 215 0 88 -103 132 -49 l 65 0 l 65 694 l 358 694 l 358 0 "},"j":{"ha":422,"x_min":0,"x_max":0,"o":"m 269 1026 b 354 940 326 1026 354 999 l 354 869 b 269 783 354 811 326 783 l 146 783 b 61 869 89 783 61 811 l 61 940 b 146 1026 61 999 89 1026 m 357 81 b 132 -264 357 -64 272 -207 l -29 -136 b 67 81 44 -62 67 1 l 67 694 l 357 694 "},"k":{"ha":846,"x_min":0,"x_max":0,"o":"m 342 300 b 351 199 347 264 351 228 l 351 0 l 60 0 l 60 972 l 351 972 l 351 600 b 340 464 351 556 347 508 l 381 464 l 513 694 l 832 694 l 686 467 b 606 383 665 429 626 396 l 606 378 b 686 285 626 367 665 324 l 858 0 l 538 0 l 379 300 "},"ķ":{"ha":846,"x_min":0,"x_max":0,"o":"m 60 0 l 60 972 l 351 972 l 351 600 b 340 464 351 556 347 508 l 381 464 l 513 694 l 832 694 l 686 467 b 606 383 665 429 626 396 l 606 378 b 686 285 626 367 665 324 l 858 0 l 538 0 l 379 300 l 342 300 b 351 199 347 264 351 228 l 351 0 m 451 -53 b 542 -128 518 -53 540 -71 l 542 -194 b 457 -415 542 -300 510 -354 l 358 -389 b 383 -246 378 -342 382 -293 b 306 -179 331 -246 307 -222 l 310 -128 b 399 -53 311 -71 332 -53 "},"l":{"ha":497,"x_min":0,"x_max":0,"o":"m 351 253 b 421 203 351 217 374 203 l 468 203 l 500 17 b 296 -19 458 -8 350 -19 b 61 175 150 -19 61 53 l 61 972 l 351 972 "},"ĺ":{"ha":497,"x_min":0,"x_max":0,"o":"m 153 1007 l 74 1126 l 397 1335 l 507 1150 m 351 253 b 421 203 351 217 374 203 l 468 203 l 500 17 b 296 -19 458 -8 350 -19 b 61 175 150 -19 61 53 l 61 972 l 351 972 "},"ľ":{"ha":497,"x_min":0,"x_max":0,"o":"m 532 978 b 610 908 589 978 610 961 l 610 847 b 538 644 610 750 583 700 l 451 668 b 472 800 468 713 471 757 b 406 861 428 800 407 822 l 410 908 b 486 978 410 961 429 978 m 351 253 b 421 203 351 217 374 203 l 468 203 l 500 17 b 296 -19 458 -8 350 -19 b 61 175 150 -19 61 53 l 61 972 l 351 972 "},"ļ":{"ha":497,"x_min":0,"x_max":0,"o":"m 351 253 b 421 203 351 217 374 203 l 468 203 l 500 17 b 296 -19 458 -8 350 -19 b 61 175 150 -19 61 53 l 61 972 l 351 972 m 292 -67 b 382 -142 358 -67 381 -85 l 382 -208 b 297 -429 382 -314 350 -368 l 199 -403 b 224 -260 218 -356 222 -307 b 146 -193 171 -260 147 -236 l 150 -142 b 239 -67 151 -85 172 -67 "},"ŀ":{"ha":664,"x_min":0,"x_max":0,"o":"m 351 253 b 421 203 351 217 374 203 l 468 203 l 500 17 b 296 -19 458 -8 350 -19 b 61 175 150 -19 61 53 l 61 972 l 351 972 m 492 432 b 410 511 436 432 410 457 l 410 576 b 492 656 410 629 436 656 l 579 656 b 661 576 635 656 661 629 l 661 511 b 579 432 661 457 635 432 "},"ł":{"ha":542,"x_min":0,"x_max":0,"o":"m 540 17 b 336 -19 499 -8 390 -19 b 101 175 190 -19 101 53 l 101 397 l 6 360 l 6 504 l 101 542 l 101 972 l 392 972 l 392 654 l 507 699 l 507 554 l 392 510 l 392 253 b 461 203 392 217 414 203 l 508 203 "},"m":{"ha":1229,"x_min":0,"x_max":0,"o":"m 974 714 b 1174 519 1106 714 1174 647 l 1174 0 l 883 0 l 883 426 b 838 468 883 457 872 468 b 757 451 817 468 796 467 l 757 0 l 476 0 l 476 426 b 429 468 476 457 463 468 b 350 453 408 468 389 467 l 350 0 l 60 0 l 60 694 l 288 694 l 313 593 b 561 714 390 675 460 714 b 742 611 654 714 715 679 b 974 714 813 681 881 714 "},"n":{"ha":863,"x_min":0,"x_max":0,"o":"m 601 714 b 807 519 736 714 807 647 l 807 0 l 515 0 l 515 426 b 465 468 515 457 501 468 b 351 451 435 468 403 467 l 351 0 l 60 0 l 60 694 l 289 694 l 315 592 b 601 714 406 675 508 714 "},"ń":{"ha":863,"x_min":0,"x_max":0,"o":"m 303 858 l 626 1067 l 736 882 l 382 739 m 601 714 b 807 519 736 714 807 647 l 807 0 l 515 0 l 515 426 b 465 468 515 457 501 468 b 351 451 435 468 403 467 l 351 0 l 60 0 l 60 694 l 289 694 l 315 592 b 601 714 406 675 508 714 "},"ň":{"ha":863,"x_min":0,"x_max":0,"o":"m 160 943 l 229 1050 l 439 944 l 450 944 l 661 1050 l 728 943 l 501 761 l 388 761 m 601 714 b 807 519 736 714 807 647 l 807 0 l 515 0 l 515 426 b 465 468 515 457 501 468 b 351 451 435 468 403 467 l 351 0 l 60 0 l 60 694 l 289 694 l 315 592 b 601 714 406 675 508 714 "},"ņ":{"ha":863,"x_min":0,"x_max":0,"o":"m 601 714 b 807 519 736 714 807 647 l 807 0 l 515 0 l 515 426 b 465 468 515 457 501 468 b 351 451 435 468 403 467 l 351 0 l 60 0 l 60 694 l 289 694 l 315 592 b 601 714 406 675 508 714 m 442 -53 b 532 -128 508 -53 531 -71 l 532 -194 b 447 -415 532 -300 500 -354 l 349 -389 b 374 -246 368 -342 372 -293 b 296 -179 321 -246 297 -222 l 300 -128 b 389 -53 301 -71 322 -53 "},"ŋ":{"ha":863,"x_min":0,"x_max":0,"o":"m 601 714 b 807 519 738 714 807 647 l 807 -33 b 589 -271 807 -183 728 -271 b 376 -235 532 -271 422 -260 l 408 -46 l 458 -46 b 515 -8 494 -46 515 -35 l 515 426 b 465 468 515 457 501 468 b 351 453 435 468 401 467 l 351 0 l 60 0 l 60 694 l 288 694 l 314 593 b 601 714 407 675 510 714 "},"ñ":{"ha":863,"x_min":0,"x_max":0,"o":"m 179 782 b 297 1017 149 947 224 1022 b 532 957 392 1010 460 972 b 572 1010 574 949 572 965 l 693 1010 b 575 775 722 854 661 769 b 339 835 481 782 401 824 b 300 782 297 842 300 826 m 601 714 b 807 519 736 714 807 647 l 807 0 l 515 0 l 515 426 b 465 468 515 457 501 468 b 351 451 435 468 403 467 l 351 0 l 60 0 l 60 694 l 289 694 l 315 592 b 601 714 406 675 508 714 "},"o":{"ha":849,"x_min":0,"x_max":0,"o":"m 425 714 b 813 346 708 714 813 617 b 425 -17 813 79 708 -17 b 36 346 140 -17 36 79 b 425 714 36 617 140 714 m 425 517 b 342 346 357 517 342 489 b 425 181 342 207 357 181 b 507 346 492 181 507 207 b 425 517 507 489 492 517 "},"ó":{"ha":849,"x_min":0,"x_max":0,"o":"m 367 739 l 288 858 l 611 1067 l 721 882 m 425 714 b 813 346 708 714 813 617 b 425 -17 813 79 708 -17 b 36 346 140 -17 36 79 b 425 714 36 617 140 714 m 425 517 b 342 346 357 517 342 489 b 425 181 342 207 357 181 b 507 346 492 181 507 207 b 425 517 507 489 492 517 "},"ô":{"ha":849,"x_min":0,"x_max":0,"o":"m 657 725 l 436 854 l 425 854 l 200 725 l 131 832 l 325 1017 l 536 1017 l 724 821 m 425 714 b 813 346 708 714 813 617 b 425 -17 813 79 708 -17 b 36 346 140 -17 36 79 b 425 714 36 617 140 714 m 425 517 b 342 346 357 517 342 489 b 425 181 342 207 357 181 b 507 346 492 181 507 207 b 425 517 507 489 492 517 "},"ö":{"ha":849,"x_min":0,"x_max":0,"o":"m 343 994 b 397 940 379 994 397 976 l 397 853 b 343 799 397 817 379 799 l 247 799 b 193 853 211 799 193 817 l 193 940 b 247 994 193 976 211 994 m 606 994 b 660 940 642 994 660 976 l 660 853 b 606 799 660 817 642 799 l 510 799 b 456 853 474 799 456 817 l 456 940 b 510 994 456 976 474 994 m 425 714 b 813 346 708 714 813 617 b 425 -17 813 79 708 -17 b 36 346 140 -17 36 79 b 425 714 36 617 140 714 m 425 517 b 342 346 357 517 342 489 b 425 181 342 207 357 181 b 507 346 492 181 507 207 b 425 517 507 489 492 517 "},"ò":{"ha":849,"x_min":0,"x_max":0,"o":"m 489 739 l 135 882 l 244 1067 l 568 858 m 425 714 b 813 346 708 714 813 617 b 425 -17 813 79 708 -17 b 36 346 140 -17 36 79 b 425 714 36 617 140 714 m 425 517 b 342 346 357 517 342 489 b 425 181 342 207 357 181 b 507 346 492 181 507 207 b 425 517 507 489 492 517 "},"ő":{"ha":849,"x_min":0,"x_max":0,"o":"m 263 722 l 147 815 l 318 1083 l 497 967 m 560 722 l 446 814 l 617 1083 l 796 967 m 425 714 b 813 346 708 714 813 617 b 425 -17 813 79 708 -17 b 36 346 140 -17 36 79 b 425 714 36 617 140 714 m 425 517 b 342 346 357 517 342 489 b 425 181 342 207 357 181 b 507 346 492 181 507 207 b 425 517 507 489 492 517 "},"ō":{"ha":849,"x_min":0,"x_max":0,"o":"m 208 811 l 208 982 l 653 982 l 653 811 m 425 714 b 813 346 708 714 813 617 b 425 -17 813 79 708 -17 b 36 346 140 -17 36 79 b 425 714 36 617 140 714 m 425 517 b 342 346 357 517 342 489 b 425 181 342 207 357 181 b 507 346 492 181 507 207 b 425 517 507 489 492 517 "},"ø":{"ha":849,"x_min":0,"x_max":0,"o":"m 690 658 b 813 346 776 603 813 504 b 425 -17 813 79 708 -17 b 367 -15 404 -17 385 -17 l 304 -144 l 110 -46 l 153 42 b 36 346 69 97 36 193 b 425 714 36 617 140 714 l 475 713 l 542 851 l 736 751 m 425 181 b 507 346 492 181 507 207 b 425 517 507 489 492 517 b 342 346 357 517 342 489 b 425 181 342 207 357 181 "},"õ":{"ha":849,"x_min":0,"x_max":0,"o":"m 282 1017 b 517 957 376 1010 444 972 b 557 1010 558 949 557 965 l 678 1010 b 560 775 707 854 646 769 b 324 835 465 782 386 824 b 285 782 282 842 285 826 l 164 782 b 282 1017 133 947 208 1022 m 425 714 b 813 346 708 714 813 617 b 425 -17 813 79 708 -17 b 36 346 140 -17 36 79 b 425 714 36 617 140 714 m 425 517 b 342 346 357 517 342 489 b 425 181 342 207 357 181 b 507 346 492 181 507 207 b 425 517 507 489 492 517 "},"œ":{"ha":1263,"x_min":0,"x_max":0,"o":"m 913 204 b 1188 219 964 204 1069 207 l 1214 44 b 881 -19 1117 -6 1004 -19 b 650 25 783 -19 708 -4 b 418 -17 593 -4 517 -17 b 36 346 138 -17 36 79 b 418 714 36 617 138 714 b 650 672 517 714 593 701 b 879 711 707 699 783 711 b 1233 464 1136 711 1232 626 b 963 281 1235 335 1169 281 l 796 281 b 913 204 807 224 836 204 m 883 524 b 792 418 815 525 796 513 l 882 418 b 954 471 944 418 954 424 b 883 524 954 515 933 524 m 418 181 b 501 304 479 181 497 201 l 500 339 b 501 383 500 354 500 369 b 422 517 499 494 482 517 b 343 346 356 517 343 489 b 418 181 343 207 356 181 "},"p":{"ha":861,"x_min":0,"x_max":0,"o":"m 572 711 b 822 339 753 711 822 575 b 560 -19 822 53 732 -19 b 347 39 479 -19 403 -3 b 351 -112 350 -10 353 -64 l 351 -250 l 60 -250 l 60 694 l 293 694 l 317 600 b 572 711 360 661 461 711 m 443 171 b 522 336 500 171 522 188 b 447 501 522 486 500 501 b 351 476 401 501 379 490 l 351 189 b 443 171 376 179 403 171 "},"þ":{"ha":861,"x_min":0,"x_max":0,"o":"m 569 711 b 822 339 753 711 822 575 b 560 -19 822 53 732 -19 b 346 38 481 -19 404 -4 b 351 -112 350 -11 353 -64 l 351 -250 l 60 -250 l 60 972 l 351 972 l 351 833 b 343 635 353 768 347 694 b 569 711 389 679 460 711 m 442 171 b 522 336 500 171 522 188 b 446 501 522 486 500 501 b 351 478 401 501 378 490 l 351 189 b 442 171 376 179 403 171 "},"q":{"ha":858,"x_min":0,"x_max":0,"o":"m 411 714 b 800 656 513 714 719 697 l 800 -250 l 508 -250 l 508 -69 b 528 100 507 -14 514 47 b 299 -17 476 43 393 -17 b 38 342 106 -17 38 115 b 411 714 38 556 94 714 m 338 343 b 421 215 338 236 356 215 b 508 233 457 215 482 224 l 508 513 b 417 518 476 517 439 519 b 338 343 356 514 338 485 "},"r":{"ha":628,"x_min":0,"x_max":0,"o":"m 600 447 l 526 447 b 351 433 482 447 432 444 l 351 0 l 60 0 l 60 694 l 288 694 l 314 593 b 585 714 401 675 496 714 l 625 714 "},"ŕ":{"ha":628,"x_min":0,"x_max":0,"o":"m 204 858 l 528 1067 l 638 882 l 283 739 m 314 593 b 585 714 401 675 496 714 l 625 714 l 600 447 l 526 447 b 351 433 482 447 432 444 l 351 0 l 60 0 l 60 694 l 288 694 "},"ř":{"ha":628,"x_min":0,"x_max":0,"o":"m 61 943 l 131 1050 l 340 944 l 351 944 l 563 1050 l 629 943 l 403 761 l 289 761 m 314 593 b 585 714 401 675 496 714 l 625 714 l 600 447 l 526 447 b 351 433 482 447 432 444 l 351 0 l 60 0 l 60 694 l 288 694 "},"ŗ":{"ha":628,"x_min":0,"x_max":0,"o":"m 600 447 l 526 447 b 351 433 482 447 432 444 l 351 0 l 60 0 l 60 694 l 288 694 l 314 593 b 585 714 401 675 496 714 l 625 714 m 215 -53 b 306 -128 282 -53 304 -71 l 306 -194 b 221 -415 306 -300 274 -354 l 122 -389 b 147 -246 142 -342 146 -293 b 69 -179 94 -246 71 -222 l 74 -128 b 163 -53 75 -71 96 -53 "},"s":{"ha":768,"x_min":0,"x_max":0,"o":"m 356 714 b 711 683 467 714 624 701 l 693 514 l 419 514 b 315 497 326 514 315 515 b 397 464 315 482 331 482 l 557 424 b 740 214 681 389 740 335 b 404 -15 740 38 646 -15 b 43 14 338 -15 196 -12 l 61 183 l 308 183 b 458 204 440 183 458 183 b 368 242 458 221 440 221 l 215 283 b 33 511 63 328 33 403 b 356 714 33 638 111 714 "},"ś":{"ha":768,"x_min":0,"x_max":0,"o":"m 328 739 l 249 858 l 572 1067 l 682 882 m 356 714 b 711 683 467 714 624 701 l 693 514 l 419 514 b 315 497 326 514 315 515 b 397 464 315 482 331 482 l 557 424 b 740 214 681 389 740 335 b 404 -15 740 38 646 -15 b 43 14 338 -15 196 -12 l 61 183 l 308 183 b 458 204 440 183 458 183 b 368 242 458 221 440 221 l 215 283 b 33 511 63 328 33 403 b 356 714 33 638 111 714 "},"š":{"ha":768,"x_min":0,"x_max":0,"o":"m 447 761 l 333 761 l 106 943 l 175 1050 l 385 944 l 396 944 l 607 1050 l 674 943 m 356 714 b 711 683 467 714 624 701 l 693 514 l 419 514 b 315 497 326 514 315 515 b 397 464 315 482 331 482 l 557 424 b 740 214 681 389 740 335 b 404 -15 740 38 646 -15 b 43 14 338 -15 196 -12 l 61 183 l 308 183 b 458 204 440 183 458 183 b 368 242 458 221 440 221 l 215 283 b 33 511 63 328 33 403 b 356 714 33 638 111 714 "},"ş":{"ha":768,"x_min":0,"x_max":0,"o":"m 356 714 b 711 683 467 714 624 701 l 693 514 l 419 514 b 315 497 326 514 315 515 b 397 464 315 482 331 482 l 557 424 b 740 214 681 389 740 335 b 404 -15 740 38 646 -15 b 43 14 338 -15 196 -12 l 61 183 l 308 183 b 458 204 440 183 458 183 b 368 242 458 221 440 221 l 215 283 b 33 511 63 328 33 403 b 356 714 33 638 111 714 m 271 -68 b 515 -158 444 -49 521 -47 b 190 -362 508 -318 364 -386 l 221 -254 b 342 -183 282 -254 336 -249 b 244 -168 344 -164 332 -168 "},"ș":{"ha":768,"x_min":0,"x_max":0,"o":"m 356 714 b 711 683 467 714 624 701 l 693 514 l 419 514 b 315 497 326 514 315 515 b 397 464 315 482 331 482 l 557 424 b 740 214 681 389 740 335 b 404 -15 740 38 646 -15 b 43 14 338 -15 196 -12 l 61 183 l 308 183 b 458 204 440 183 458 183 b 368 242 458 221 440 221 l 215 283 b 33 511 63 328 33 403 b 356 714 33 638 111 714 m 394 -53 b 485 -128 461 -53 483 -71 l 485 -194 b 400 -415 485 -300 453 -354 l 301 -389 b 326 -246 321 -342 325 -293 b 249 -179 274 -246 250 -222 l 253 -128 b 342 -53 254 -71 275 -53 "},"ß":{"ha":1025,"x_min":0,"x_max":0,"o":"m 903 385 b 1017 196 989 310 1017 283 b 731 -15 1017 63 956 -15 b 479 0 651 -15 585 -10 l 497 178 l 660 178 b 721 206 710 178 721 176 b 611 321 721 236 668 271 l 569 349 b 474 514 510 397 474 442 b 558 672 474 575 507 597 b 606 778 594 725 606 744 b 514 836 606 825 590 836 b 417 751 432 836 417 822 l 417 0 l 125 0 l 125 519 l 11 519 l 11 688 l 125 694 l 125 786 b 511 1031 125 968 228 1031 b 871 797 808 1031 871 963 b 807 640 871 742 861 713 b 749 536 779 604 749 565 b 831 443 749 506 789 479 "},"t":{"ha":608,"x_min":0,"x_max":0,"o":"m 424 253 b 483 203 424 217 440 203 l 557 203 l 589 17 b 353 -19 529 -8 418 -19 b 132 175 218 -19 132 53 l 132 519 l 14 519 l 14 688 l 131 693 l 131 876 l 424 876 l 424 694 l 592 694 l 592 519 l 424 519 "},"ŧ":{"ha":608,"x_min":0,"x_max":0,"o":"m 424 450 l 538 450 l 538 319 l 424 319 l 424 253 b 483 203 424 217 440 203 l 557 203 l 589 17 b 353 -19 529 -8 418 -19 b 132 175 218 -19 132 53 l 132 319 l 54 319 l 54 450 l 132 450 l 132 519 l 14 519 l 14 688 l 131 693 l 131 876 l 424 876 l 424 694 l 592 694 l 592 519 l 424 519 "},"ť":{"ha":608,"x_min":0,"x_max":0,"o":"m 563 1126 b 653 1051 629 1126 651 1108 l 653 985 b 568 764 653 879 621 825 l 469 790 b 494 933 489 838 493 886 b 417 1000 442 933 418 957 l 421 1051 b 510 1126 422 1108 443 1126 m 592 694 l 592 519 l 424 519 l 424 253 b 483 203 424 217 440 203 l 557 203 l 589 17 b 353 -19 529 -8 418 -19 b 132 175 218 -19 132 53 l 132 519 l 14 519 l 14 688 l 131 693 l 131 876 l 424 876 l 424 694 "},"ţ":{"ha":608,"x_min":0,"x_max":0,"o":"m 424 253 b 483 203 424 217 440 203 l 557 203 l 589 17 b 353 -19 529 -8 418 -19 b 132 175 218 -19 132 53 l 132 519 l 14 519 l 14 688 l 131 693 l 131 876 l 424 876 l 424 694 l 592 694 l 592 519 l 424 519 m 239 -72 b 483 -162 413 -53 489 -51 b 158 -367 476 -322 332 -390 l 189 -258 b 310 -187 250 -258 304 -253 b 213 -172 313 -168 300 -172 "},"ț":{"ha":608,"x_min":0,"x_max":0,"o":"m 424 253 b 483 203 424 217 440 203 l 557 203 l 589 17 b 353 -19 529 -8 418 -19 b 132 175 218 -19 132 53 l 132 519 l 14 519 l 14 688 l 131 693 l 131 876 l 424 876 l 424 694 l 592 694 l 592 519 l 424 519 m 360 -67 b 450 -142 426 -67 449 -85 l 450 -208 b 365 -429 450 -314 418 -368 l 267 -403 b 292 -260 286 -356 290 -307 b 214 -193 239 -260 215 -236 l 218 -142 b 307 -67 219 -85 240 -67 "},"u":{"ha":854,"x_min":0,"x_max":0,"o":"m 794 0 l 565 0 l 539 101 b 261 -19 449 19 363 -19 b 56 175 125 -19 56 47 l 56 694 l 347 694 l 347 268 b 399 225 347 238 363 225 b 501 242 429 225 457 228 l 501 694 l 794 694 "},"ú":{"ha":854,"x_min":0,"x_max":0,"o":"m 288 874 l 611 1082 l 721 897 l 367 754 m 794 0 l 565 0 l 539 101 b 261 -19 449 19 363 -19 b 56 175 125 -19 56 47 l 56 694 l 347 694 l 347 268 b 399 225 347 238 363 225 b 501 242 429 225 457 228 l 501 694 l 794 694 "},"û":{"ha":854,"x_min":0,"x_max":0,"o":"m 131 847 l 325 1032 l 536 1032 l 724 836 l 657 740 l 436 869 l 425 869 l 200 740 m 794 0 l 565 0 l 539 101 b 261 -19 449 19 363 -19 b 56 175 125 -19 56 47 l 56 694 l 347 694 l 347 268 b 399 225 347 238 363 225 b 501 242 429 225 457 228 l 501 694 l 794 694 "},"ü":{"ha":854,"x_min":0,"x_max":0,"o":"m 247 814 b 193 868 211 814 193 832 l 193 956 b 247 1010 193 992 211 1010 l 343 1010 b 397 956 379 1010 397 992 l 397 868 b 343 814 397 832 379 814 m 510 814 b 456 868 474 814 456 832 l 456 956 b 510 1010 456 992 474 1010 l 606 1010 b 660 956 642 1010 660 992 l 660 868 b 606 814 660 832 642 814 m 794 0 l 565 0 l 539 101 b 261 -19 449 19 363 -19 b 56 175 125 -19 56 47 l 56 694 l 347 694 l 347 268 b 399 225 347 238 363 225 b 501 242 429 225 457 228 l 501 694 l 794 694 "},"ù":{"ha":854,"x_min":0,"x_max":0,"o":"m 135 897 l 244 1082 l 568 874 l 489 754 m 794 0 l 565 0 l 539 101 b 261 -19 449 19 363 -19 b 56 175 125 -19 56 47 l 56 694 l 347 694 l 347 268 b 399 225 347 238 363 225 b 501 242 429 225 457 228 l 501 694 l 794 694 "},"ű":{"ha":854,"x_min":0,"x_max":0,"o":"m 147 831 l 318 1099 l 497 982 l 263 738 m 617 1099 l 796 982 l 560 738 l 446 829 m 794 694 l 794 0 l 565 0 l 539 101 b 261 -19 449 19 363 -19 b 56 175 125 -19 56 47 l 56 694 l 347 694 l 347 268 b 399 225 347 238 363 225 b 501 242 429 225 457 228 l 501 694 "},"ū":{"ha":854,"x_min":0,"x_max":0,"o":"m 208 826 l 208 997 l 653 997 l 653 826 m 794 0 l 565 0 l 539 101 b 261 -19 449 19 363 -19 b 56 175 125 -19 56 47 l 56 694 l 347 694 l 347 268 b 399 225 347 238 363 225 b 501 242 429 225 457 228 l 501 694 l 794 694 "},"ų":{"ha":854,"x_min":0,"x_max":0,"o":"m 813 -267 b 538 -146 588 -351 504 -247 b 679 0 551 -103 596 -49 l 565 0 l 539 101 b 261 -19 449 19 363 -19 b 56 175 125 -19 56 47 l 56 694 l 347 694 l 347 268 b 399 225 347 238 363 225 b 501 242 429 225 457 228 l 501 694 l 794 694 l 794 0 b 729 -121 772 -40 751 -75 b 796 -167 706 -171 744 -175 "},"ů":{"ha":854,"x_min":0,"x_max":0,"o":"m 429 744 b 250 918 332 744 250 821 b 429 1092 250 1014 332 1092 b 608 918 526 1092 608 1014 b 429 744 608 821 526 744 m 429 981 b 368 918 396 981 368 951 b 429 856 368 883 396 856 b 490 918 463 856 490 883 b 429 981 490 951 463 981 m 794 0 l 565 0 l 539 101 b 261 -19 449 19 363 -19 b 56 175 125 -19 56 47 l 56 694 l 347 694 l 347 268 b 399 225 347 238 363 225 b 501 242 429 225 457 228 l 501 694 l 794 694 "},"v":{"ha":835,"x_min":0,"x_max":0,"o":"m 633 68 b 542 0 621 26 586 0 l 293 0 b 201 68 249 0 214 26 l -4 694 l 304 694 l 389 311 b 408 181 397 268 403 224 l 426 181 b 447 311 432 224 440 268 l 531 694 l 839 694 "},"w":{"ha":1217,"x_min":0,"x_max":0,"o":"m 1064 74 b 969 0 1054 29 1017 0 l 765 0 b 665 86 714 0 671 35 l 625 401 b 617 524 621 443 619 482 l 599 524 b 589 401 596 482 593 443 l 549 86 b 449 0 543 35 500 0 l 247 0 b 153 74 200 0 163 29 l 11 694 l 300 694 l 350 304 b 361 181 354 263 358 222 l 378 181 b 390 304 381 222 386 263 l 429 610 b 528 694 435 660 476 694 l 688 694 b 786 608 739 694 781 660 l 824 304 b 838 181 828 263 835 222 l 854 181 b 867 304 858 222 861 263 l 915 694 l 1206 694 "},"ẃ":{"ha":1217,"x_min":0,"x_max":0,"o":"m 549 739 l 469 858 l 793 1067 l 903 882 m 1064 74 b 969 0 1054 29 1017 0 l 765 0 b 665 86 714 0 671 35 l 625 401 b 617 524 621 443 619 482 l 599 524 b 589 401 596 482 593 443 l 549 86 b 449 0 543 35 500 0 l 247 0 b 153 74 200 0 163 29 l 11 694 l 300 694 l 350 304 b 361 181 354 263 358 222 l 378 181 b 390 304 381 222 386 263 l 429 610 b 528 694 435 660 476 694 l 688 694 b 786 608 739 694 781 660 l 824 304 b 838 181 828 263 835 222 l 854 181 b 867 304 858 222 861 263 l 915 694 l 1206 694 "},"ŵ":{"ha":1217,"x_min":0,"x_max":0,"o":"m 839 725 l 618 854 l 607 854 l 382 725 l 313 832 l 507 1017 l 718 1017 l 906 821 m 1064 74 b 969 0 1054 29 1017 0 l 765 0 b 665 86 714 0 671 35 l 625 401 b 617 524 621 443 619 482 l 599 524 b 589 401 596 482 593 443 l 549 86 b 449 0 543 35 500 0 l 247 0 b 153 74 200 0 163 29 l 11 694 l 300 694 l 350 304 b 361 181 354 263 358 222 l 378 181 b 390 304 381 222 386 263 l 429 610 b 528 694 435 660 476 694 l 688 694 b 786 608 739 694 781 660 l 824 304 b 838 181 828 263 835 222 l 854 181 b 867 304 858 222 861 263 l 915 694 l 1206 694 "},"ẅ":{"ha":1217,"x_min":0,"x_max":0,"o":"m 525 994 b 579 940 561 994 579 976 l 579 853 b 525 799 579 817 561 799 l 429 799 b 375 853 393 799 375 817 l 375 940 b 429 994 375 976 393 994 m 788 994 b 842 940 824 994 842 976 l 842 853 b 788 799 842 817 824 799 l 692 799 b 638 853 656 799 638 817 l 638 940 b 692 994 638 976 656 994 m 1064 74 b 969 0 1054 29 1017 0 l 765 0 b 665 86 714 0 671 35 l 625 401 b 617 524 621 443 619 482 l 599 524 b 589 401 596 482 593 443 l 549 86 b 449 0 543 35 500 0 l 247 0 b 153 74 200 0 163 29 l 11 694 l 300 694 l 350 304 b 361 181 354 263 358 222 l 378 181 b 390 304 381 222 386 263 l 429 610 b 528 694 435 660 476 694 l 688 694 b 786 608 739 694 781 660 l 824 304 b 838 181 828 263 835 222 l 854 181 b 867 304 858 222 861 263 l 915 694 l 1206 694 "},"ẁ":{"ha":1217,"x_min":0,"x_max":0,"o":"m 671 739 l 317 882 l 426 1067 l 750 858 m 1064 74 b 969 0 1054 29 1017 0 l 765 0 b 665 86 714 0 671 35 l 625 401 b 617 524 621 443 619 482 l 599 524 b 589 401 596 482 593 443 l 549 86 b 449 0 543 35 500 0 l 247 0 b 153 74 200 0 163 29 l 11 694 l 300 694 l 350 304 b 361 181 354 263 358 222 l 378 181 b 390 304 381 222 386 263 l 429 610 b 528 694 435 660 476 694 l 688 694 b 786 608 739 694 781 660 l 824 304 b 838 181 828 263 835 222 l 854 181 b 867 304 858 222 861 263 l 915 694 l 1206 694 "},"x":{"ha":842,"x_min":0,"x_max":0,"o":"m 421 261 l 285 0 l -4 0 l 197 354 l 11 694 l 299 694 l 421 451 l 543 694 l 831 694 l 644 354 l 846 0 l 557 0 "},"y":{"ha":836,"x_min":0,"x_max":0,"o":"m 618 19 b 156 -274 571 -133 443 -335 l 136 -117 b 340 0 242 -94 303 -64 l 293 0 b 201 68 249 0 214 26 l -4 694 l 306 694 l 388 311 b 406 181 394 268 400 224 l 418 181 b 447 311 431 224 440 276 l 529 694 l 839 694 "},"ý":{"ha":836,"x_min":0,"x_max":0,"o":"m 282 858 l 606 1067 l 715 882 l 361 739 m 618 19 b 156 -274 571 -133 443 -335 l 136 -117 b 340 0 242 -94 303 -64 l 293 0 b 201 68 249 0 214 26 l -4 694 l 306 694 l 388 311 b 406 181 394 268 400 224 l 418 181 b 447 311 431 224 440 276 l 529 694 l 839 694 "},"ŷ":{"ha":836,"x_min":0,"x_max":0,"o":"m 125 832 l 319 1017 l 531 1017 l 718 821 l 651 725 l 431 854 l 419 854 l 194 725 m 618 19 b 156 -274 571 -133 443 -335 l 136 -117 b 340 0 242 -94 303 -64 l 293 0 b 201 68 249 0 214 26 l -4 694 l 306 694 l 388 311 b 406 181 394 268 400 224 l 418 181 b 447 311 431 224 440 276 l 529 694 l 839 694 "},"ÿ":{"ha":836,"x_min":0,"x_max":0,"o":"m 242 799 b 188 853 206 799 188 817 l 188 940 b 242 994 188 976 206 994 l 338 994 b 392 940 374 994 392 976 l 392 853 b 338 799 392 817 374 799 m 504 799 b 450 853 468 799 450 817 l 450 940 b 504 994 450 976 468 994 l 600 994 b 654 940 636 994 654 976 l 654 853 b 600 799 654 817 636 799 m 618 19 b 156 -274 571 -133 443 -335 l 136 -117 b 340 0 242 -94 303 -64 l 293 0 b 201 68 249 0 214 26 l -4 694 l 306 694 l 388 311 b 406 181 394 268 400 224 l 418 181 b 447 311 431 224 440 276 l 529 694 l 839 694 "},"ỳ":{"ha":836,"x_min":0,"x_max":0,"o":"m 129 882 l 239 1067 l 563 858 l 483 739 m 618 19 b 156 -274 571 -133 443 -335 l 136 -117 b 340 0 242 -94 303 -64 l 293 0 b 201 68 249 0 214 26 l -4 694 l 306 694 l 388 311 b 406 181 394 268 400 224 l 418 181 b 447 311 431 224 440 276 l 529 694 l 839 694 "},"z":{"ha":751,"x_min":0,"x_max":0,"o":"m 711 0 l 40 0 l 40 188 l 363 507 l 49 507 l 49 694 l 703 694 l 703 507 l 381 188 l 711 188 "},"ź":{"ha":751,"x_min":0,"x_max":0,"o":"m 242 858 l 565 1067 l 675 882 l 321 739 m 711 0 l 40 0 l 40 188 l 363 507 l 49 507 l 49 694 l 703 694 l 703 507 l 381 188 l 711 188 "},"ž":{"ha":751,"x_min":0,"x_max":0,"o":"m 99 943 l 168 1050 l 378 944 l 389 944 l 600 1050 l 667 943 l 440 761 l 326 761 m 711 0 l 40 0 l 40 188 l 363 507 l 49 507 l 49 694 l 703 694 l 703 507 l 381 188 l 711 188 "},"ż":{"ha":751,"x_min":0,"x_max":0,"o":"m 340 783 b 258 863 285 783 258 810 l 258 928 b 340 1007 258 982 285 1007 l 428 1007 b 510 928 483 1007 510 982 l 510 863 b 428 783 510 810 483 783 m 711 0 l 40 0 l 40 188 l 363 507 l 49 507 l 49 694 l 703 694 l 703 507 l 381 188 l 711 188 "},"ﬁ":{"ha":1010,"x_min":0,"x_max":0,"o":"m 860 1026 b 946 940 918 1026 946 999 l 946 869 b 860 783 946 811 918 783 l 739 783 b 653 869 681 783 653 811 l 653 940 b 739 1026 653 999 681 1026 m 944 0 l 651 0 l 651 519 l 419 519 l 419 0 l 126 0 l 126 519 l 11 519 l 11 688 l 126 694 l 126 779 b 381 1006 126 910 192 1006 b 590 986 433 1006 526 1000 l 590 811 l 485 811 b 419 739 435 811 419 793 l 419 694 l 944 694 "},"ﬂ":{"ha":1074,"x_min":0,"x_max":0,"o":"m 1074 17 b 876 -19 1033 -8 929 -19 b 656 175 739 -19 656 53 l 656 815 l 481 815 b 417 739 432 815 417 797 l 417 694 l 563 694 l 563 519 l 417 519 l 417 0 l 125 0 l 125 519 l 11 519 l 11 688 l 125 694 l 125 779 b 376 1006 125 910 189 1006 b 947 972 436 1006 758 1008 l 947 253 b 1004 203 947 217 965 203 l 1042 203 "},"ª":{"ha":601,"x_min":0,"x_max":0,"o":"m 338 865 b 546 669 472 865 546 819 l 546 385 l 378 385 l 361 446 b 203 371 331 407 281 371 b 42 504 117 371 42 417 l 42 550 b 197 672 42 625 101 672 l 336 672 b 288 713 336 701 322 713 b 88 708 239 713 165 713 l 68 842 b 338 865 138 854 267 865 m 244 536 b 279 513 244 522 256 513 b 336 529 297 513 317 519 l 336 578 l 278 572 b 244 547 256 569 244 561 "},"º":{"ha":604,"x_min":0,"x_max":0,"o":"m 303 865 b 567 617 497 865 567 799 b 303 374 567 438 497 374 b 38 617 108 374 38 438 b 303 865 38 799 108 865 m 303 724 b 257 617 264 724 257 708 b 303 514 257 529 264 514 b 347 617 340 514 347 529 b 303 724 347 708 340 724 "},"А":{"ha":949,"x_min":0,"x_max":0,"o":"m 343 207 l 294 0 l -12 0 l 236 881 b 338 958 249 928 289 958 l 611 958 b 713 881 660 958 700 928 l 961 0 l 654 0 l 606 207 m 510 624 b 493 733 503 658 496 699 l 456 733 b 439 624 451 699 446 658 l 392 418 l 557 418 "},"Б":{"ha":900,"x_min":0,"x_max":0,"o":"m 475 588 b 872 292 772 588 872 521 b 515 -11 872 57 760 -11 b 86 0 333 -11 217 -10 l 78 0 l 78 958 b 435 969 200 967 325 969 b 804 958 567 969 685 965 l 782 743 l 379 743 l 379 588 m 475 197 b 571 301 556 197 571 217 b 475 406 571 386 556 406 l 379 406 l 379 197 "},"В":{"ha":922,"x_min":0,"x_max":0,"o":"m 678 493 b 885 239 831 481 885 392 b 538 -11 885 42 778 -11 b 78 0 331 -11 214 -10 l 78 958 b 492 969 201 968 308 969 b 853 719 758 969 853 917 b 678 501 853 582 804 513 m 565 676 b 476 765 565 750 549 765 l 372 765 l 372 585 l 479 585 b 565 676 549 585 565 601 m 483 193 b 585 300 567 193 585 213 b 482 408 585 389 567 408 l 372 408 l 372 193 "},"Г":{"ha":769,"x_min":0,"x_max":0,"o":"m 299 964 b 764 944 456 964 633 964 l 750 733 l 435 733 b 376 683 399 733 376 713 l 376 0 l 75 0 l 75 746 b 299 964 75 875 168 964 "},"Ѓ":{"ha":769,"x_min":0,"x_max":0,"o":"m 360 1000 l 281 1119 l 604 1328 l 714 1143 m 299 964 b 764 944 456 964 633 964 l 750 733 l 435 733 b 376 683 399 733 376 713 l 376 0 l 75 0 l 75 746 b 299 964 75 875 168 964 "},"Ґ":{"ha":771,"x_min":0,"x_max":0,"o":"m 765 944 l 751 733 l 435 733 b 376 683 399 733 376 713 l 376 0 l 75 0 l 75 746 b 299 964 75 875 168 964 b 544 961 376 964 463 964 l 565 1171 l 765 1171 "},"Д":{"ha":1088,"x_min":0,"x_max":0,"o":"m 1071 -210 l 853 -210 l 832 0 l 254 0 l 233 -210 l 15 -210 l 15 197 l 121 197 b 238 746 185 379 218 561 b 475 958 250 868 342 958 l 939 958 l 939 197 l 1071 197 m 638 761 l 581 761 b 517 694 542 761 521 739 b 404 197 490 447 463 317 l 638 197 "},"Е":{"ha":831,"x_min":0,"x_max":0,"o":"m 792 13 b 293 -6 653 -6 458 -6 b 68 213 161 -6 68 83 l 68 746 b 293 964 68 875 161 964 b 792 946 458 964 653 964 l 778 733 l 426 733 b 369 683 392 733 369 713 l 369 590 l 728 590 l 728 390 l 369 390 l 369 275 b 426 225 369 246 392 225 l 778 225 "},"Ё":{"ha":831,"x_min":0,"x_max":0,"o":"m 269 1060 b 215 1114 233 1060 215 1078 l 215 1201 b 269 1256 215 1238 233 1256 l 365 1256 b 419 1201 401 1256 419 1238 l 419 1114 b 365 1060 419 1078 401 1060 m 532 1060 b 478 1114 496 1060 478 1078 l 478 1201 b 532 1256 478 1238 496 1256 l 628 1256 b 682 1201 664 1256 682 1238 l 682 1114 b 628 1060 682 1078 664 1060 m 792 13 b 293 -6 653 -6 458 -6 b 68 213 161 -6 68 83 l 68 746 b 293 964 68 875 161 964 b 792 946 458 964 653 964 l 778 733 l 426 733 b 369 683 392 733 369 713 l 369 590 l 728 590 l 728 390 l 369 390 l 369 275 b 426 225 369 246 392 225 l 778 225 "},"Ж":{"ha":1344,"x_min":0,"x_max":0,"o":"m 1021 496 b 1335 0 1218 465 1219 419 l 1019 0 b 836 400 913 367 914 400 l 804 400 b 815 313 811 369 815 339 l 815 0 l 528 0 l 528 313 b 540 400 528 339 533 369 l 507 400 b 325 0 433 400 433 367 l 10 0 b 324 496 125 419 126 465 l 324 504 b 38 958 132 532 143 589 l 343 958 b 508 594 428 654 433 594 l 543 594 b 529 717 533 635 529 678 l 529 958 l 815 958 l 815 717 b 803 594 815 678 811 635 l 833 594 b 1001 958 910 594 915 654 l 1307 958 b 1021 504 1201 589 1213 532 "},"З":{"ha":814,"x_min":0,"x_max":0,"o":"m 393 969 b 742 719 651 969 742 917 b 575 501 742 582 696 513 l 575 493 b 772 239 721 481 772 392 b 438 -11 772 42 669 -11 b 28 42 257 -11 147 3 l 50 238 b 378 206 189 215 293 206 b 464 300 447 206 464 225 b 376 399 464 379 447 397 l 165 403 l 165 590 l 374 594 b 444 676 431 596 444 611 b 372 753 444 738 431 753 b 65 732 269 753 186 746 l 43 938 b 393 969 144 961 240 969 "},"И":{"ha":1019,"x_min":0,"x_max":0,"o":"m 654 0 l 654 440 b 669 589 654 490 661 539 l 660 589 b 601 442 644 538 626 489 l 367 0 l 79 0 l 79 958 l 365 958 l 365 533 b 350 378 365 486 358 431 l 360 378 b 421 525 376 429 397 481 l 654 958 l 940 958 l 940 0 "},"Й":{"ha":1019,"x_min":0,"x_max":0,"o":"m 769 1264 b 522 1024 792 1144 693 1024 b 274 1264 351 1024 251 1144 l 450 1264 b 522 1157 439 1178 468 1157 b 593 1264 575 1157 604 1178 m 654 0 l 654 440 b 669 589 654 490 661 539 l 660 589 b 601 442 644 538 626 489 l 367 0 l 79 0 l 79 958 l 365 958 l 365 533 b 350 378 365 486 358 431 l 360 378 b 421 525 376 429 397 481 l 654 958 l 940 958 l 940 0 "},"Ѝ":{"ha":1019,"x_min":0,"x_max":0,"o":"m 582 1000 l 228 1143 l 338 1328 l 661 1119 m 654 0 l 654 440 b 669 589 654 490 661 539 l 660 589 b 601 442 644 538 626 489 l 367 0 l 79 0 l 79 958 l 365 958 l 365 533 b 350 378 365 486 358 431 l 360 378 b 421 525 376 429 397 481 l 654 958 l 940 958 l 940 0 "},"К":{"ha":946,"x_min":0,"x_max":0,"o":"m 613 496 b 939 0 815 465 819 419 l 625 0 b 401 400 526 367 525 400 l 369 400 b 381 313 376 369 381 339 l 381 0 l 79 0 l 79 958 l 381 958 l 381 717 b 367 594 381 678 376 635 l 397 594 b 606 958 524 594 532 654 l 911 958 b 613 504 801 589 810 532 "},"Ќ":{"ha":946,"x_min":0,"x_max":0,"o":"m 351 1119 l 675 1328 l 785 1143 l 431 1000 m 613 496 b 939 0 815 465 819 419 l 625 0 b 401 400 526 367 525 400 l 369 400 b 381 313 376 369 381 339 l 381 0 l 79 0 l 79 958 l 381 958 l 381 717 b 367 594 381 678 376 635 l 397 594 b 606 958 524 594 532 654 l 911 958 b 613 504 801 589 810 532 "},"Л":{"ha":986,"x_min":0,"x_max":0,"o":"m 907 0 l 606 0 l 606 761 l 547 761 b 474 697 501 761 476 739 b 407 228 461 535 440 339 b 15 -7 342 6 200 -40 l -6 226 b 131 308 60 233 108 242 b 189 718 158 389 176 533 b 442 958 199 876 285 958 l 907 958 "},"М":{"ha":1333,"x_min":0,"x_max":0,"o":"m 1133 958 b 1239 854 1203 958 1236 922 l 1272 0 l 1001 0 l 972 733 l 951 733 l 857 244 b 743 153 847 183 807 153 l 588 153 b 472 244 524 153 483 183 l 376 733 l 356 733 l 332 0 l 61 0 l 94 854 b 200 958 97 922 131 958 l 460 958 b 574 865 522 958 563 928 l 643 485 b 658 342 650 438 654 389 l 671 342 b 688 485 676 389 681 438 l 753 865 b 868 958 764 928 804 958 "},"Н":{"ha":1003,"x_min":0,"x_max":0,"o":"m 924 0 l 622 0 l 622 403 l 381 403 l 381 0 l 79 0 l 79 958 l 381 958 l 381 614 l 622 614 l 622 958 l 924 958 "},"О":{"ha":982,"x_min":0,"x_max":0,"o":"m 490 978 b 938 479 819 978 938 874 b 490 -19 938 85 819 -19 b 44 479 163 -19 44 85 b 490 978 44 874 163 978 m 490 754 b 361 479 388 754 361 701 b 490 204 361 257 388 204 b 619 479 593 204 619 257 b 490 754 619 701 593 754 "},"П":{"ha":997,"x_min":0,"x_max":0,"o":"m 918 0 l 617 0 l 617 761 l 381 761 l 381 0 l 79 0 l 79 958 l 918 958 "},"Р":{"ha":903,"x_min":0,"x_max":0,"o":"m 483 972 b 881 646 788 972 881 901 b 525 322 881 393 788 322 b 379 331 476 322 426 325 l 379 0 l 78 0 l 78 958 b 483 972 206 971 292 972 m 476 535 b 579 646 558 535 579 557 b 476 760 579 738 558 760 l 379 760 l 379 535 "},"С":{"ha":840,"x_min":0,"x_max":0,"o":"m 479 975 b 794 938 629 975 699 964 l 772 718 b 479 721 675 719 611 721 b 361 479 385 721 361 674 b 479 238 361 285 385 238 b 793 249 618 238 700 239 l 815 29 b 479 -17 718 -4 629 -17 b 44 479 161 -17 44 114 b 479 975 44 844 161 975 "},"Т":{"ha":865,"x_min":0,"x_max":0,"o":"m 583 733 l 583 0 l 282 0 l 282 733 l 14 733 l 14 958 l 851 958 l 851 733 "},"У":{"ha":865,"x_min":0,"x_max":0,"o":"m 667 260 b 403 -19 614 78 557 -4 b 107 0 319 -28 178 -11 l 139 206 b 364 244 288 203 347 194 l 369 267 l 313 267 b 163 397 224 267 185 319 l -10 958 l 299 958 l 407 493 b 429 478 408 483 418 478 l 442 478 l 567 958 l 875 958 "},"Ў":{"ha":865,"x_min":0,"x_max":0,"o":"m 439 1024 b 190 1263 268 1024 168 1139 l 325 1281 b 439 1199 325 1222 356 1199 b 551 1281 521 1199 551 1222 l 686 1263 b 439 1024 708 1139 610 1024 m 667 260 b 403 -19 614 78 557 -4 b 107 0 319 -28 178 -11 l 139 206 b 364 244 288 203 347 194 l 369 267 l 313 267 b 163 397 224 267 185 319 l -10 958 l 299 958 l 407 493 b 429 478 408 483 418 478 l 442 478 l 567 958 l 875 958 "},"Ф":{"ha":1218,"x_min":0,"x_max":0,"o":"m 1196 493 b 760 96 1196 219 1081 118 l 760 -19 l 458 -19 l 458 96 b 22 493 138 117 22 219 b 458 904 22 776 138 882 l 458 1019 l 760 1019 l 760 904 b 1196 493 1081 882 1196 776 m 324 493 b 472 307 324 364 346 319 l 472 693 b 324 493 346 679 324 632 m 746 307 b 894 493 871 319 894 364 b 746 693 894 632 871 679 "},"Х":{"ha":940,"x_min":0,"x_max":0,"o":"m 471 403 l 292 0 l -7 0 l 231 489 l 13 958 l 310 958 l 471 579 l 631 958 l 928 958 l 710 489 l 947 0 l 649 0 "},"Ч":{"ha":964,"x_min":0,"x_max":0,"o":"m 885 0 l 583 0 l 583 364 b 321 300 493 322 392 300 b 49 550 133 300 49 378 l 49 958 l 350 958 l 350 615 b 432 546 346 560 364 546 b 583 565 472 546 517 546 l 583 958 l 885 958 "},"Ц":{"ha":1019,"x_min":0,"x_max":0,"o":"m 1001 -210 l 783 -210 l 763 0 l 79 0 l 79 958 l 381 958 l 381 197 l 594 197 l 594 958 l 896 958 l 896 197 l 1001 197 "},"Ш":{"ha":1415,"x_min":0,"x_max":0,"o":"m 1336 0 l 79 0 l 79 958 l 374 958 l 374 197 l 561 197 l 561 958 l 854 958 l 854 197 l 1042 197 l 1042 958 l 1336 958 "},"Щ":{"ha":1456,"x_min":0,"x_max":0,"o":"m 1436 -210 l 1218 -210 l 1197 0 l 79 0 l 79 958 l 374 958 l 374 197 l 558 197 l 558 958 l 853 958 l 853 197 l 1038 197 l 1038 958 l 1332 958 l 1332 197 l 1436 197 "},"Џ":{"ha":1001,"x_min":0,"x_max":0,"o":"m 922 0 l 619 0 l 608 -210 l 403 -210 l 392 0 l 79 0 l 79 958 l 381 958 l 381 197 l 621 197 l 621 958 l 922 958 "},"Я":{"ha":922,"x_min":0,"x_max":0,"o":"m 450 972 b 844 958 636 972 721 971 l 844 0 l 543 0 l 543 350 l 468 350 b 393 285 419 350 403 338 l 333 0 l 18 0 l 90 294 b 243 444 113 411 193 438 l 243 453 b 57 681 99 468 57 565 b 450 972 57 904 176 972 m 543 760 l 457 760 b 360 661 378 760 360 740 b 457 563 360 582 378 563 l 543 563 "},"Ь":{"ha":881,"x_min":0,"x_max":0,"o":"m 465 629 b 853 310 757 629 853 557 b 519 -11 853 60 750 -11 b 88 0 324 -11 215 -10 l 79 0 l 79 958 l 381 958 l 381 629 m 465 197 b 551 321 538 197 551 219 b 465 447 551 422 538 447 l 381 447 l 381 197 "},"Ъ":{"ha":1092,"x_min":0,"x_max":0,"o":"m 682 629 b 1064 310 969 629 1064 557 b 736 -11 1064 60 963 -11 b 311 0 544 -11 438 -10 l 303 0 l 303 733 l 13 733 l 13 958 l 606 958 l 606 629 m 682 197 b 761 321 749 197 761 219 b 682 447 761 422 749 447 l 606 447 l 606 197 "},"Ы":{"ha":1326,"x_min":0,"x_max":0,"o":"m 460 629 b 843 310 749 629 843 557 b 514 -11 843 60 742 -11 b 88 0 322 -11 214 -10 l 79 0 l 79 958 l 382 958 l 382 629 m 1247 0 l 944 0 l 944 958 l 1247 958 m 460 197 b 540 321 528 197 540 219 b 460 447 540 422 528 447 l 382 447 l 382 197 "},"Љ":{"ha":1365,"x_min":0,"x_max":0,"o":"m 957 629 b 1338 311 1243 629 1338 557 b 1010 -11 1338 60 1239 -11 b 607 0 821 -11 732 -10 l 599 0 l 599 761 l 550 761 b 485 697 511 761 489 739 b 419 228 468 508 454 349 b 35 -7 357 11 229 -42 l 14 199 b 147 308 75 210 118 222 b 201 732 175 389 188 543 b 438 958 213 886 296 958 l 896 958 l 896 629 m 957 197 b 1035 321 1022 197 1035 219 b 957 447 1035 422 1022 447 l 896 447 l 896 197 "},"Њ":{"ha":1353,"x_min":0,"x_max":0,"o":"m 961 606 b 1326 310 1235 606 1326 536 b 1015 -11 1326 60 1229 -11 b 597 0 825 -11 722 -10 l 589 0 l 589 410 l 382 410 l 382 0 l 79 0 l 79 958 l 382 958 l 382 607 l 589 607 l 589 958 l 886 958 l 886 606 m 961 197 b 1024 313 1014 197 1024 219 b 961 424 1024 401 1014 424 l 886 424 l 886 197 "},"Ѕ":{"ha":847,"x_min":0,"x_max":0,"o":"m 436 978 b 785 929 536 978 669 969 l 767 736 b 429 739 683 738 549 739 b 340 703 360 739 340 732 b 424 638 340 676 358 663 l 597 565 b 813 274 757 496 813 414 b 421 -19 813 58 719 -19 b 50 28 356 -19 217 -15 l 68 239 b 417 232 233 235 365 232 b 511 265 493 232 511 239 b 446 324 511 292 497 304 l 256 407 b 42 696 100 476 42 556 b 436 978 42 914 147 978 "},"Є":{"ha":843,"x_min":0,"x_max":0,"o":"m 811 29 b 485 -17 717 -4 631 -17 b 44 479 163 -17 44 114 b 485 975 44 844 163 975 b 804 938 635 975 708 964 l 782 718 b 485 721 683 719 617 721 b 358 583 401 721 368 692 l 732 583 l 732 397 l 357 397 b 485 238 364 271 396 238 b 789 249 618 238 699 239 "},"Э":{"ha":843,"x_min":0,"x_max":0,"o":"m 358 975 b 799 479 681 975 799 844 b 358 -17 799 114 681 -17 b 32 29 213 -17 126 -4 l 54 249 b 358 238 144 239 225 238 b 486 397 447 238 479 271 l 111 397 l 111 583 l 485 583 b 358 721 475 692 442 721 b 61 718 226 721 160 719 l 39 938 b 358 975 135 964 208 975 "},"І":{"ha":457,"x_min":0,"x_max":0,"o":"m 79 0 l 79 958 l 378 958 l 378 0 "},"Ї":{"ha":457,"x_min":0,"x_max":0,"o":"m 143 1256 b 197 1201 179 1256 197 1238 l 197 1114 b 143 1060 197 1078 179 1060 l 47 1060 b -7 1114 11 1060 -7 1078 l -7 1201 b 47 1256 -7 1238 11 1256 m 406 1256 b 460 1201 442 1256 460 1238 l 460 1114 b 406 1060 460 1078 442 1060 l 310 1060 b 256 1114 274 1060 256 1078 l 256 1201 b 310 1256 256 1238 274 1256 m 79 0 l 79 958 l 378 958 l 378 0 "},"Ј":{"ha":567,"x_min":0,"x_max":0,"o":"m 492 176 b 238 -19 492 51 394 -19 b 14 17 176 -19 61 -8 l 46 206 l 111 206 b 193 254 167 206 193 219 l 193 958 l 492 958 "},"Ћ":{"ha":1125,"x_min":0,"x_max":0,"o":"m 818 644 b 1086 394 1003 644 1086 567 l 1086 0 l 783 0 l 783 329 b 706 399 783 385 772 399 l 579 399 l 579 0 l 278 0 l 278 733 l 14 733 l 14 958 l 843 958 l 843 733 l 579 733 l 579 601 b 818 644 667 629 772 644 "},"Ю":{"ha":1418,"x_min":0,"x_max":0,"o":"m 931 978 b 1374 479 1257 978 1374 874 b 931 -19 1374 85 1257 -19 b 519 396 649 -19 535 69 l 382 396 l 382 0 l 79 0 l 79 958 l 382 958 l 382 593 l 522 593 b 931 978 543 894 658 978 m 931 204 b 1054 479 1031 204 1054 257 b 931 754 1054 701 1031 754 b 813 479 833 754 813 701 b 931 204 813 257 833 204 "},"Ђ":{"ha":1079,"x_min":0,"x_max":0,"o":"m 811 631 b 1058 333 988 631 1058 561 b 674 -22 1058 53 890 -24 l 646 186 b 756 321 735 208 756 247 b 690 399 756 392 744 399 b 579 383 663 399 622 396 l 579 0 l 278 0 l 278 733 l 14 733 l 14 958 l 843 958 l 843 733 l 579 733 l 579 576 b 811 631 660 613 758 631 "},"Ұ":{"ha":914,"x_min":0,"x_max":0,"o":"m 793 419 l 793 275 l 608 275 l 608 0 l 307 0 l 307 275 l 122 275 l 122 419 l 247 419 l -11 958 l 299 958 l 419 657 b 449 522 436 615 442 565 l 467 522 b 496 658 474 565 481 617 l 615 958 l 925 958 l 667 419 "},"Ҷ":{"ha":1026,"x_min":0,"x_max":0,"o":"m 1010 -210 l 792 -210 l 771 0 l 578 0 l 578 363 b 319 300 489 322 389 300 b 49 550 132 300 49 378 l 49 958 l 350 958 l 350 615 b 432 546 346 560 364 546 b 578 565 469 546 513 546 l 578 958 l 879 958 l 879 197 l 1010 197 "},"Һ":{"ha":964,"x_min":0,"x_max":0,"o":"m 643 658 b 915 408 831 658 915 581 l 915 0 l 614 0 l 614 343 b 531 413 618 399 600 413 b 381 393 492 413 446 413 l 381 0 l 79 0 l 79 958 l 381 958 l 381 596 b 643 658 471 636 574 658 "},"Ӏ":{"ha":457,"x_min":0,"x_max":0,"o":"m 79 0 l 79 958 l 378 958 l 378 0 "},"а":{"ha":825,"x_min":0,"x_max":0,"o":"m 464 714 b 768 431 660 714 768 647 l 768 0 l 536 0 l 510 97 b 269 -19 463 38 388 -19 b 31 178 140 -19 31 47 l 31 247 b 260 426 31 358 118 426 l 476 426 l 476 432 b 394 501 475 481 456 501 b 94 494 322 501 213 500 l 68 679 b 464 714 174 699 358 714 m 314 221 b 372 178 314 196 333 178 b 476 213 404 178 442 192 l 476 286 l 367 286 b 314 243 332 286 314 268 "},"б":{"ha":854,"x_min":0,"x_max":0,"o":"m 776 808 b 404 751 639 736 519 783 b 296 694 349 736 315 719 b 260 589 271 664 267 635 l 265 589 b 503 669 328 647 397 669 b 817 343 738 669 817 575 b 447 -17 817 97 719 -17 b 49 442 60 -17 49 183 b 304 960 49 697 90 883 b 738 1029 454 1013 596 972 m 431 503 b 347 346 360 503 347 478 b 429 181 347 207 363 181 b 511 346 496 181 511 207 b 431 503 511 478 496 503 "},"в":{"ha":824,"x_min":0,"x_max":0,"o":"m 613 354 b 794 172 746 346 794 282 b 489 -12 794 26 699 -12 b 64 -4 300 -12 189 -11 l 64 694 b 447 703 176 701 279 703 b 767 518 685 703 767 664 b 613 361 767 419 724 369 m 497 476 b 433 525 497 515 483 525 l 338 525 l 338 428 l 436 428 b 497 476 485 428 497 439 m 438 169 b 506 231 489 169 506 181 b 436 288 506 276 489 288 l 338 288 l 338 169 "},"г":{"ha":685,"x_min":0,"x_max":0,"o":"m 263 706 b 678 682 401 706 565 706 l 664 479 l 396 479 b 349 438 361 479 349 468 l 349 0 l 60 0 l 60 522 b 263 706 60 650 124 706 "},"ѓ":{"ha":685,"x_min":0,"x_max":0,"o":"m 288 739 l 208 858 l 532 1067 l 642 882 m 263 706 b 678 682 401 706 565 706 l 664 479 l 396 479 b 349 438 361 479 349 468 l 349 0 l 60 0 l 60 522 b 263 706 60 650 124 706 "},"ґ":{"ha":685,"x_min":0,"x_max":0,"o":"m 678 682 l 664 479 l 396 479 b 349 438 361 479 349 468 l 349 0 l 60 0 l 60 522 b 263 706 60 650 124 706 b 467 703 328 706 399 706 l 488 892 l 678 892 "},"д":{"ha":935,"x_min":0,"x_max":0,"o":"m 918 -189 l 725 -189 l 706 0 l 226 0 l 207 -189 l 14 -189 l 14 189 l 99 189 b 179 525 138 301 160 411 b 383 694 197 636 258 694 l 799 694 l 799 189 l 918 189 m 525 517 l 486 517 b 431 468 456 517 436 503 b 357 189 410 349 386 261 l 525 189 "},"е":{"ha":819,"x_min":0,"x_max":0,"o":"m 463 207 b 744 222 518 207 625 210 l 771 47 b 431 -17 672 -3 556 -17 b 35 342 140 -17 35 106 b 429 714 35 615 142 714 b 790 467 690 714 789 629 b 521 283 792 338 725 283 l 347 283 b 463 207 358 226 389 207 m 438 526 b 342 421 367 528 346 515 l 439 421 b 511 474 501 421 511 426 b 438 526 511 518 490 526 "},"ё":{"ha":819,"x_min":0,"x_max":0,"o":"m 251 799 b 197 853 215 799 197 817 l 197 940 b 251 994 197 976 215 994 l 347 994 b 401 940 383 994 401 976 l 401 853 b 347 799 401 817 383 799 m 514 799 b 460 853 478 799 460 817 l 460 940 b 514 994 460 976 478 994 l 610 994 b 664 940 646 994 664 976 l 664 853 b 610 799 664 817 646 799 m 463 207 b 744 222 518 207 625 210 l 771 47 b 431 -17 672 -3 556 -17 b 35 342 140 -17 35 106 b 429 714 35 615 142 714 b 790 467 690 714 789 629 b 521 283 792 338 725 283 l 347 283 b 463 207 358 226 389 207 m 438 526 b 342 421 367 528 346 515 l 439 421 b 511 474 501 421 511 426 b 438 526 511 518 490 526 "},"ж":{"ha":1189,"x_min":0,"x_max":0,"o":"m 911 358 b 1181 0 1083 332 1078 347 l 886 0 b 771 269 811 233 801 265 l 715 269 b 722 214 719 249 722 231 l 722 0 l 467 0 l 467 214 b 475 269 467 231 469 249 l 419 269 b 304 0 392 265 381 233 l 10 0 b 279 358 113 347 106 332 l 279 367 b 32 694 111 389 129 385 l 318 694 b 449 450 393 450 392 450 l 478 450 b 468 540 471 481 468 511 l 468 694 l 722 694 l 722 540 b 713 450 722 511 718 481 l 739 450 b 871 694 799 450 796 450 l 1157 694 b 911 367 1061 385 1079 389 "},"з":{"ha":743,"x_min":0,"x_max":0,"o":"m 315 714 b 685 522 576 714 685 692 b 532 361 685 413 639 369 l 532 354 b 713 174 661 346 713 286 b 369 -19 713 0 592 -19 b 26 14 254 -19 146 -14 l 44 200 b 349 183 165 188 271 183 b 415 228 403 183 415 185 b 347 264 415 260 406 261 l 114 269 l 114 432 l 346 438 b 400 471 390 440 400 442 b 335 507 400 506 390 507 b 58 490 239 507 142 500 l 40 676 b 315 714 142 707 253 714 "},"и":{"ha":878,"x_min":0,"x_max":0,"o":"m 554 -3 l 554 269 b 565 400 554 313 558 351 l 558 400 b 500 275 546 360 521 307 l 322 0 l 64 0 l 64 694 l 322 694 l 322 404 b 311 292 322 367 318 335 l 318 292 b 372 400 331 335 350 364 l 556 694 l 814 694 l 814 0 "},"й":{"ha":878,"x_min":0,"x_max":0,"o":"m 688 1003 b 440 763 710 883 611 763 b 192 1003 269 763 169 883 l 368 1003 b 440 896 357 917 386 896 b 511 1003 493 896 522 917 m 554 -3 l 554 269 b 565 400 554 313 558 351 l 558 400 b 500 275 546 360 521 307 l 322 0 l 64 0 l 64 694 l 322 694 l 322 404 b 311 292 322 367 318 335 l 318 292 b 372 400 331 335 350 364 l 556 694 l 814 694 l 814 0 "},"ѝ":{"ha":878,"x_min":0,"x_max":0,"o":"m 500 739 l 146 882 l 256 1067 l 579 858 m 554 -3 l 554 269 b 565 400 554 313 558 351 l 558 400 b 500 275 546 360 521 307 l 322 0 l 64 0 l 64 694 l 322 694 l 322 404 b 311 292 322 367 318 335 l 318 292 b 372 400 331 335 350 364 l 556 694 l 814 694 l 814 0 "},"к":{"ha":825,"x_min":0,"x_max":0,"o":"m 557 357 b 815 0 725 331 717 353 l 513 0 b 411 265 454 219 446 260 l 347 265 b 354 211 351 246 354 226 l 354 0 l 64 0 l 64 694 l 354 694 l 354 543 b 344 451 354 515 351 483 l 369 451 b 497 694 447 451 443 460 l 792 694 b 557 365 699 378 724 390 "},"ќ":{"ha":825,"x_min":0,"x_max":0,"o":"m 290 858 l 614 1067 l 724 882 l 369 739 m 557 357 b 815 0 725 331 717 353 l 513 0 b 411 265 454 219 446 260 l 347 265 b 354 211 351 246 354 226 l 354 0 l 64 0 l 64 694 l 354 694 l 354 543 b 344 451 354 515 351 483 l 369 451 b 497 694 447 451 443 460 l 792 694 b 557 365 699 378 724 390 "},"л":{"ha":864,"x_min":0,"x_max":0,"o":"m 800 0 l 510 0 l 510 506 l 474 506 b 415 457 438 506 418 489 b 381 183 404 354 389 242 b 33 -7 354 -10 194 -40 l 4 206 b 119 261 58 213 106 203 b 150 514 129 299 140 378 b 340 694 158 632 221 694 l 800 694 "},"м":{"ha":1142,"x_min":0,"x_max":0,"o":"m 974 694 b 1072 596 1039 694 1071 661 l 1088 0 l 824 0 l 808 483 l 793 483 l 736 190 b 628 101 726 131 689 101 l 513 101 b 403 190 451 101 413 131 l 344 483 l 329 483 l 319 0 l 56 0 l 69 596 b 169 694 71 661 104 694 l 408 694 b 515 604 468 694 507 665 l 556 388 b 565 282 563 351 563 318 l 574 282 b 583 388 578 318 576 351 l 621 604 b 729 694 629 665 668 694 "},"н":{"ha":872,"x_min":0,"x_max":0,"o":"m 808 0 l 522 0 l 522 271 l 351 271 l 351 0 l 64 0 l 64 694 l 351 694 l 351 458 l 522 458 l 522 694 l 808 694 "},"о":{"ha":849,"x_min":0,"x_max":0,"o":"m 425 714 b 813 346 708 714 813 617 b 425 -17 813 79 708 -17 b 36 346 140 -17 36 79 b 425 714 36 617 140 714 m 425 517 b 342 346 357 517 342 489 b 425 181 342 207 357 181 b 507 346 492 181 507 207 b 425 517 507 489 492 517 "},"п":{"ha":863,"x_min":0,"x_max":0,"o":"m 799 0 l 515 0 l 515 507 l 347 507 l 347 0 l 64 0 l 64 696 l 799 696 "},"р":{"ha":865,"x_min":0,"x_max":0,"o":"m 576 711 b 826 339 757 711 826 575 b 564 -19 826 53 736 -19 b 351 39 483 -19 407 -3 b 356 -112 354 -10 357 -64 l 356 -250 l 64 -250 l 64 694 l 297 694 l 321 600 b 576 711 364 661 465 711 m 447 171 b 526 336 504 171 526 188 b 451 501 526 486 504 501 b 356 476 406 501 383 490 l 356 189 b 447 171 381 179 407 171 "},"с":{"ha":733,"x_min":0,"x_max":0,"o":"m 408 714 b 699 663 493 714 615 703 l 669 482 l 458 482 b 342 349 369 482 342 456 b 458 214 342 240 369 214 b 682 224 506 214 594 214 l 708 42 b 406 -17 626 -1 513 -17 b 36 349 133 -17 36 81 b 408 714 36 617 135 714 "},"т":{"ha":746,"x_min":0,"x_max":0,"o":"m 518 478 l 518 0 l 228 0 l 228 478 l 15 478 l 15 694 l 731 694 l 731 478 "},"у":{"ha":836,"x_min":0,"x_max":0,"o":"m 618 19 b 342 -274 558 -181 463 -239 b 56 -274 257 -297 150 -294 l 78 -89 b 283 -58 176 -90 239 -81 b 342 0 306 -47 326 -25 l 293 0 b 201 68 249 0 214 26 l -4 694 l 306 694 l 388 311 b 406 181 394 268 400 224 l 418 181 b 447 311 431 225 440 276 l 529 694 l 839 694 "},"ў":{"ha":836,"x_min":0,"x_max":0,"o":"m 417 763 b 168 1003 246 763 146 883 l 344 1003 b 417 896 333 917 363 896 b 488 1003 469 896 499 917 l 664 1003 b 417 763 686 883 588 763 m 618 19 b 342 -274 558 -181 463 -239 b 56 -274 257 -297 150 -294 l 78 -89 b 283 -58 176 -90 239 -81 b 342 0 306 -47 326 -25 l 293 0 b 201 68 249 0 214 26 l -4 694 l 306 694 l 388 311 b 406 181 394 268 400 224 l 418 181 b 447 311 431 225 440 276 l 529 694 l 839 694 "},"ф":{"ha":1083,"x_min":0,"x_max":0,"o":"m 1047 346 b 671 -12 1047 113 943 10 l 671 -250 l 411 -250 l 411 -12 b 35 346 139 11 35 114 b 411 708 35 582 139 686 l 411 972 l 671 972 l 671 710 b 1047 346 943 686 1047 582 m 657 174 b 772 346 749 189 772 233 b 657 524 772 461 749 507 m 310 346 b 425 174 310 233 333 189 l 425 524 b 310 346 333 507 310 461 "},"х":{"ha":842,"x_min":0,"x_max":0,"o":"m 421 261 l 285 0 l -4 0 l 197 354 l 11 694 l 299 694 l 421 451 l 543 694 l 831 694 l 644 354 l 846 0 l 557 0 "},"ч":{"ha":840,"x_min":0,"x_max":0,"o":"m 776 0 l 486 0 l 486 231 b 282 196 422 208 351 196 b 43 361 117 196 43 247 l 43 694 l 333 694 l 333 446 b 382 404 333 418 346 404 b 486 424 414 404 446 408 l 486 694 l 776 694 "},"ц":{"ha":915,"x_min":0,"x_max":0,"o":"m 897 -189 l 704 -189 l 685 0 l 64 0 l 64 694 l 351 694 l 351 189 l 499 189 l 499 694 l 786 694 l 786 189 l 897 189 "},"ш":{"ha":1208,"x_min":0,"x_max":0,"o":"m 1144 0 l 64 0 l 64 694 l 344 694 l 344 189 l 476 189 l 476 694 l 732 694 l 732 189 l 864 189 l 864 694 l 1144 694 "},"щ":{"ha":1269,"x_min":0,"x_max":0,"o":"m 1251 -189 l 1058 -189 l 1039 0 l 64 0 l 64 694 l 344 694 l 344 189 l 475 189 l 475 694 l 731 694 l 731 189 l 861 189 l 861 694 l 1142 694 l 1142 189 l 1251 189 "},"џ":{"ha":868,"x_min":0,"x_max":0,"o":"m 549 0 l 532 -225 l 336 -225 l 318 0 l 64 0 l 64 694 l 350 694 l 353 189 l 515 189 l 518 694 l 804 694 l 804 0 "},"ь":{"ha":782,"x_min":0,"x_max":0,"o":"m 397 476 b 760 235 672 476 760 425 b 447 -8 760 46 663 -8 b 72 0 278 -8 182 -7 l 64 0 l 64 694 l 343 694 l 343 476 m 397 178 b 468 246 457 178 468 189 b 397 315 468 306 457 315 l 343 315 l 343 178 "},"ъ":{"ha":949,"x_min":0,"x_max":0,"o":"m 568 476 b 926 235 840 476 926 425 b 619 -8 926 46 831 -8 b 249 0 451 -8 357 -7 l 240 0 l 240 486 l 15 486 l 15 694 l 521 694 l 521 476 m 568 178 b 633 246 624 178 633 189 b 568 315 633 306 625 315 l 521 315 l 521 178 "},"ы":{"ha":1169,"x_min":0,"x_max":0,"o":"m 393 476 b 753 235 665 476 753 425 b 444 -8 753 46 657 -8 b 72 0 276 -8 182 -7 l 64 0 l 64 694 l 344 694 l 344 476 m 1106 0 l 813 0 l 813 694 l 1106 694 m 393 178 b 460 246 450 178 460 189 b 393 315 460 306 451 315 l 344 315 l 344 178 "},"љ":{"ha":1171,"x_min":0,"x_max":0,"o":"m 803 471 b 1149 231 1065 471 1149 419 b 850 -8 1149 46 1057 -8 b 506 0 692 -8 610 -4 l 497 0 l 497 522 l 464 522 b 408 464 428 522 413 508 b 360 176 401 394 382 253 b 36 -6 310 7 196 -36 l 18 194 b 128 261 68 199 114 204 b 167 515 140 311 156 419 b 367 694 179 633 243 694 l 765 694 l 765 471 m 803 172 b 871 242 863 172 871 185 b 803 311 871 301 861 311 l 765 311 l 765 172 "},"њ":{"ha":1157,"x_min":0,"x_max":0,"o":"m 804 450 b 1136 231 1056 450 1136 401 b 851 -8 1136 46 1049 -8 b 486 0 692 -8 592 -7 l 481 0 l 481 279 l 329 279 l 329 0 l 64 0 l 64 694 l 329 694 l 329 451 l 481 451 l 481 694 l 753 694 l 753 450 m 804 172 b 858 233 850 172 858 185 b 804 292 858 282 851 292 l 753 292 l 753 172 "},"є":{"ha":783,"x_min":0,"x_max":0,"o":"m 754 26 b 449 -19 667 -8 557 -19 b 36 344 146 -19 36 75 b 449 714 36 621 146 714 b 749 671 561 714 657 706 l 726 496 b 449 494 635 494 564 494 b 335 428 378 496 347 488 l 682 428 l 682 275 l 332 275 b 449 200 342 203 374 200 b 733 206 572 200 647 201 "},"э":{"ha":783,"x_min":0,"x_max":0,"o":"m 335 714 b 747 344 638 714 747 621 b 335 -19 747 75 638 -19 b 29 26 213 -19 117 -6 l 50 206 b 335 200 136 201 211 200 b 451 275 414 200 443 203 l 103 275 l 103 428 l 449 428 b 335 496 436 488 406 496 b 57 496 219 496 149 494 l 35 671 b 335 714 126 703 236 714 "},"ю":{"ha":1208,"x_min":0,"x_max":0,"o":"m 799 714 b 1171 344 1069 714 1171 647 b 799 -15 1171 53 1069 -15 b 453 260 568 -15 471 39 l 356 260 l 356 0 l 64 0 l 64 694 l 356 694 l 356 449 l 454 449 b 799 714 476 663 574 714 m 794 200 b 869 349 860 200 869 219 b 794 499 869 479 860 499 b 717 349 724 499 717 479 b 794 200 717 219 724 200 "},"я":{"ha":815,"x_min":0,"x_max":0,"o":"m 388 714 b 751 703 588 714 665 713 l 751 0 l 468 0 l 468 218 l 407 218 b 354 186 368 218 358 214 l 314 0 l 17 0 l 68 222 b 201 293 88 282 161 290 l 201 300 b 50 485 82 325 50 411 b 388 714 50 672 114 714 m 468 514 l 393 514 b 333 467 344 514 333 504 b 393 389 333 401 344 389 l 468 389 "},"ђ":{"ha":872,"x_min":0,"x_max":0,"o":"m 629 589 b 833 394 764 589 833 522 l 833 81 b 621 -264 833 -64 754 -207 l 458 -136 b 540 81 525 -62 540 1 l 540 301 b 490 343 540 332 526 343 b 385 326 461 343 432 342 l 385 0 l 92 0 l 92 649 l 14 649 l 14 774 l 92 774 l 92 972 l 385 972 l 385 774 l 615 774 l 615 649 l 385 649 l 385 640 b 371 488 385 586 379 531 b 629 589 456 556 547 589 "},"ѕ":{"ha":768,"x_min":0,"x_max":0,"o":"m 356 714 b 711 683 467 714 624 701 l 693 514 l 419 514 b 315 497 326 514 315 515 b 397 464 315 482 331 482 l 557 424 b 740 214 681 389 740 335 b 404 -15 740 38 646 -15 b 43 14 338 -15 196 -12 l 61 183 l 308 183 b 458 204 440 183 458 183 b 368 242 458 221 440 221 l 215 283 b 33 511 63 328 33 403 b 356 714 33 638 111 714 "},"і":{"ha":429,"x_min":0,"x_max":0,"o":"m 276 1013 b 361 926 333 1013 361 985 l 361 856 b 276 769 361 797 333 769 l 153 769 b 68 856 96 769 68 797 l 68 926 b 153 1013 68 985 96 1013 m 69 0 l 69 694 l 360 694 l 360 0 "},"ї":{"ha":432,"x_min":0,"x_max":0,"o":"m 131 994 b 185 940 167 994 185 976 l 185 853 b 131 799 185 817 167 799 l 35 799 b -19 853 -1 799 -19 817 l -19 940 b 35 994 -19 976 -1 994 m 393 994 b 447 940 429 994 447 976 l 447 853 b 393 799 447 817 429 799 l 297 799 b 243 853 261 799 243 817 l 243 940 b 297 994 243 976 261 994 m 69 0 l 69 694 l 363 694 l 363 0 "},"ј":{"ha":429,"x_min":0,"x_max":0,"o":"m 272 1026 b 357 940 329 1026 357 999 l 357 869 b 272 783 357 811 329 783 l 149 783 b 64 869 92 783 64 811 l 64 940 b 149 1026 64 999 92 1026 m 360 81 b 135 -264 360 -64 275 -207 l -26 -136 b 69 81 47 -62 69 1 l 69 694 l 360 694 "},"ћ":{"ha":872,"x_min":0,"x_max":0,"o":"m 629 589 b 833 394 764 589 833 522 l 833 0 l 540 0 l 540 301 b 490 343 540 332 526 343 b 385 326 461 343 432 342 l 385 0 l 92 0 l 92 649 l 14 649 l 14 774 l 92 774 l 92 972 l 385 972 l 385 774 l 615 774 l 615 649 l 385 649 l 385 640 b 371 488 385 586 379 531 b 629 589 456 556 547 589 "},"ұ":{"ha":908,"x_min":0,"x_max":0,"o":"m 789 163 l 789 -10 l 607 -10 l 607 -250 l 304 -250 l 304 -10 l 122 -10 l 122 163 l 246 163 l -10 694 l 300 694 l 418 400 b 447 265 435 358 439 308 l 464 265 b 493 401 472 308 476 360 l 610 694 l 919 694 l 664 163 "},"ҷ":{"ha":897,"x_min":0,"x_max":0,"o":"m 879 -189 l 686 -189 l 667 0 l 479 0 l 479 231 b 279 196 417 208 349 196 b 43 361 117 196 43 247 l 43 694 l 333 694 l 333 446 b 379 404 333 418 346 404 b 479 422 410 404 440 408 l 479 694 l 769 694 l 768 189 l 879 189 "},"Δ":{"ha":978,"x_min":0,"x_max":0,"o":"m 954 0 l 24 0 l 24 94 l 340 958 l 638 958 l 954 94 m 489 672 b 460 532 479 625 472 578 l 358 211 l 619 211 l 517 532 b 489 672 504 578 497 625 "},"Ω":{"ha":1000,"x_min":0,"x_max":0,"o":"m 501 978 b 942 557 825 978 942 843 b 751 197 942 388 890 303 b 856 225 792 217 821 225 l 950 225 l 950 0 l 526 0 l 526 211 b 628 517 606 289 628 363 b 500 756 628 715 604 756 b 372 514 396 756 372 715 b 474 211 372 343 399 292 l 474 0 l 50 0 l 50 225 l 144 225 b 249 197 179 225 208 219 b 58 563 113 310 58 394 b 501 978 58 843 178 978 "},"μ":{"ha":907,"x_min":0,"x_max":0,"o":"m 821 0 l 593 0 l 567 101 b 321 -18 489 28 411 -11 b 333 -101 329 -46 333 -75 l 333 -250 l 82 -250 l 82 694 l 374 694 l 374 268 b 428 225 374 238 390 225 b 529 242 457 225 485 228 l 529 694 l 821 694 "},"π":{"ha":910,"x_min":0,"x_max":0,"o":"m 803 507 l 803 0 l 511 0 l 511 507 l 399 507 l 399 0 l 107 0 l 107 507 l 18 507 l 18 696 l 892 696 l 892 507 "},"⁄":{"ha":222,"x_min":0,"x_max":0,"o":"m -242 0 l 286 958 l 461 958 l -67 0 "},"½":{"ha":1310,"x_min":0,"x_max":0,"o":"m 167 383 l 167 704 b 175 788 167 732 168 758 l 51 768 l 26 904 l 167 958 l 389 958 l 389 383 m 236 0 l 772 958 l 949 958 l 411 0 m 1001 585 b 1256 421 1175 585 1256 557 b 1168 279 1256 385 1225 328 l 1047 175 b 1124 186 1075 183 1096 188 l 1268 182 l 1268 0 l 778 0 l 778 110 b 808 199 778 146 783 175 l 908 286 b 1014 389 961 335 1003 372 b 978 403 1022 401 1008 403 b 789 406 915 403 872 403 l 783 568 b 1001 585 874 583 961 585 "},"¼":{"ha":1311,"x_min":0,"x_max":0,"o":"m 167 704 b 175 788 167 732 168 758 l 51 768 l 26 904 l 167 958 l 389 958 l 389 383 l 167 383 m 411 0 l 236 0 l 774 958 l 949 958 m 1278 125 l 1217 106 l 1215 106 l 1215 0 l 1011 0 l 1011 106 l 772 106 b 704 196 719 106 685 149 l 847 575 l 1043 575 l 928 260 b 942 246 924 249 929 246 l 1011 246 l 1011 375 l 1046 460 l 1215 460 l 1215 246 l 1278 246 "},"¾":{"ha":1413,"x_min":0,"x_max":0,"o":"m 521 539 b 281 367 522 413 458 367 b 42 383 200 367 117 374 l 47 540 b 217 539 136 538 165 539 b 293 571 286 539 293 542 b 242 608 293 603 288 608 l 124 607 l 124 739 l 242 739 b 289 771 285 739 289 743 b 240 796 289 793 285 794 b 61 799 174 797 108 799 l 56 950 b 282 967 132 961 208 967 b 504 832 450 967 504 935 b 396 686 504 743 488 697 l 396 683 b 521 539 493 671 519 633 m 517 0 l 342 0 l 878 958 l 1054 958 m 1382 125 l 1321 106 l 1319 106 l 1319 0 l 1115 0 l 1115 106 l 878 106 b 808 196 824 106 790 149 l 951 575 l 1147 575 l 1032 260 b 1047 246 1028 249 1033 246 l 1115 246 l 1115 375 l 1150 460 l 1319 460 l 1319 246 l 1382 246 "},"¹":{"ha":446,"x_min":0,"x_max":0,"o":"m 160 500 l 160 821 b 168 904 160 849 161 875 l 33 885 l 8 1021 l 160 1075 l 382 1075 l 382 500 "},"²":{"ha":599,"x_min":0,"x_max":0,"o":"m 279 1085 b 536 921 454 1085 536 1057 b 447 779 536 885 506 828 l 321 675 b 400 686 349 683 371 688 l 550 682 l 550 500 l 51 500 l 51 610 b 82 699 51 646 57 675 l 186 786 b 294 889 243 835 283 872 b 256 903 303 901 288 903 b 63 906 192 903 147 903 l 57 1068 b 279 1085 149 1083 238 1085 "},"³":{"ha":571,"x_min":0,"x_max":0,"o":"m 288 1088 b 517 953 460 1088 517 1056 b 406 807 517 864 499 818 l 406 804 b 533 660 504 792 532 754 b 288 488 535 533 469 488 b 44 504 206 488 121 494 l 50 661 b 224 660 139 658 171 660 b 306 692 297 660 306 663 b 249 725 306 719 299 724 l 128 729 l 128 858 l 249 864 b 301 892 296 865 301 868 b 247 917 301 914 294 917 b 64 919 179 917 113 918 l 58 1071 b 288 1088 136 1082 214 1088 "},"*":{"ha":633,"x_min":0,"x_max":0,"o":"m 529 539 l 406 447 l 317 613 l 229 447 l 104 539 l 264 717 l 239 961 l 394 961 l 372 718 m 435 683 l 400 725 l 397 793 l 554 865 l 601 717 m 236 725 l 201 683 l 32 717 l 79 864 l 236 793 "},"\\":{"ha":817,"x_min":0,"x_max":0,"o":"m 567 -110 l 21 958 l 250 958 l 796 -110 "},"•":{"ha":529,"x_min":0,"x_max":0,"o":"m 282 558 b 451 389 408 558 451 515 l 451 365 b 282 185 451 228 408 185 l 258 185 b 78 365 121 185 78 228 l 78 389 b 258 558 78 515 121 558 "},":":{"ha":385,"x_min":0,"x_max":0,"o":"m 214 642 b 314 542 290 642 314 618 l 314 485 b 214 385 314 408 290 385 l 149 385 b 49 485 72 385 49 408 l 49 542 b 149 642 49 618 72 642 m 214 258 b 314 158 290 258 314 235 l 314 101 b 214 1 314 25 290 1 l 149 1 b 49 101 72 1 49 25 l 49 158 b 149 258 49 235 72 258 "},",":{"ha":354,"x_min":0,"x_max":0,"o":"m 204 257 b 304 157 278 257 303 233 l 304 68 b 211 -225 304 -72 269 -144 l 103 -190 b 129 0 124 -128 128 -62 b 44 89 72 0 46 32 l 49 157 b 147 257 50 233 74 257 "},"…":{"ha":1285,"x_min":0,"x_max":0,"o":"m 201 257 b 301 157 278 257 301 233 l 301 100 b 201 0 301 24 278 0 l 136 0 b 36 100 60 0 36 24 l 36 157 b 136 257 36 233 60 257 m 664 257 b 764 157 740 257 764 233 l 764 100 b 664 0 764 24 740 0 l 599 0 b 499 100 522 0 499 24 l 499 157 b 599 257 499 233 522 257 m 1126 257 b 1226 157 1203 257 1226 233 l 1226 100 b 1126 0 1226 24 1203 0 l 1061 0 b 961 100 985 0 961 24 l 961 157 b 1061 257 961 233 985 257 "},"!":{"ha":457,"x_min":0,"x_max":0,"o":"m 342 315 l 114 315 l 83 640 l 83 965 l 372 965 l 372 640 m 261 257 b 361 157 338 257 361 233 l 361 100 b 261 0 361 24 338 0 l 196 0 b 96 100 119 0 96 24 l 96 157 b 196 257 96 233 119 257 "},"¡":{"ha":433,"x_min":0,"x_max":0,"o":"m 250 722 b 350 622 326 722 350 699 l 350 565 b 250 465 350 489 326 465 l 185 465 b 85 565 108 465 85 489 l 85 622 b 185 722 85 699 108 722 m 361 -243 l 72 -243 l 72 82 l 103 407 l 331 407 l 361 82 "},"#":{"ha":1028,"x_min":0,"x_max":0,"o":"m 788 422 l 940 422 l 907 253 l 758 253 l 714 0 l 499 0 l 543 253 l 410 253 l 365 0 l 150 0 l 194 253 l 31 253 l 64 422 l 224 422 l 247 561 l 89 561 l 122 731 l 276 731 l 317 958 l 532 958 l 492 731 l 625 731 l 665 958 l 881 958 l 840 731 l 999 731 l 965 561 l 811 561 m 463 561 l 439 422 l 572 422 l 596 561 "},".":{"ha":360,"x_min":0,"x_max":0,"o":"m 213 257 b 313 157 289 257 313 233 l 313 100 b 213 0 313 24 289 0 l 147 0 b 47 100 71 0 47 24 l 47 157 b 147 257 47 233 71 257 "},"·":{"ha":368,"x_min":0,"x_max":0,"o":"m 217 488 b 317 388 293 488 317 464 l 317 331 b 217 231 317 254 293 231 l 151 231 b 51 331 75 231 51 254 l 51 388 b 151 488 51 464 75 488 "},"?":{"ha":744,"x_min":0,"x_max":0,"o":"m 400 989 b 715 774 614 989 715 921 b 463 315 715 572 490 543 l 235 315 b 406 713 221 546 392 647 b 328 758 414 747 392 758 l 40 758 l 33 950 b 400 989 149 972 203 989 m 381 257 b 481 157 457 257 481 233 l 481 100 b 381 0 481 24 457 0 l 315 0 b 215 100 239 0 215 24 l 215 157 b 315 257 215 233 239 257 "},"¿":{"ha":738,"x_min":0,"x_max":0,"o":"m 426 719 b 526 619 503 719 526 696 l 526 563 b 426 463 526 486 503 463 l 361 463 b 261 563 285 463 261 486 l 261 619 b 361 719 261 696 285 719 m 507 404 b 336 7 521 174 350 72 b 414 -39 328 -28 350 -39 l 701 -39 l 708 -231 b 342 -269 593 -253 539 -269 b 26 -54 128 -269 26 -201 b 279 404 26 147 251 176 "},"\"":{"ha":546,"x_min":0,"x_max":0,"o":"m 65 642 l 49 958 l 249 958 l 232 642 m 314 642 l 297 958 l 497 958 l 481 642 "},"'":{"ha":297,"x_min":0,"x_max":0,"o":"m 65 642 l 49 958 l 249 958 l 232 642 "},";":{"ha":385,"x_min":0,"x_max":0,"o":"m 226 642 b 326 542 303 642 326 618 l 326 485 b 226 385 326 408 303 385 l 161 385 b 61 485 85 385 61 408 l 61 542 b 161 642 61 618 85 642 m 218 257 b 318 157 292 257 317 233 l 318 68 b 225 -225 318 -72 283 -144 l 117 -190 b 143 0 138 -128 142 -62 b 58 89 86 0 60 32 l 63 157 b 161 257 64 233 88 257 "},"/":{"ha":817,"x_min":0,"x_max":0,"o":"m 21 -110 l 567 958 l 796 958 l 250 -110 "},"_":{"ha":738,"x_min":0,"x_max":0,"o":"m 56 -169 l 56 0 l 682 0 l 682 -169 "},"{":{"ha":499,"x_min":0,"x_max":0,"o":"m 458 889 b 371 836 392 889 371 890 l 371 663 b 210 456 374 544 340 474 b 376 254 340 421 375 351 l 376 -3 b 464 -51 376 -57 397 -51 l 464 -229 b 99 -26 206 -271 99 -169 l 99 282 b 31 365 99 342 79 346 l 31 546 b 93 635 82 563 93 563 l 93 864 b 458 1067 93 1007 200 1108 "},"}":{"ha":499,"x_min":0,"x_max":0,"o":"m 40 1067 b 406 864 299 1108 406 1007 l 406 635 b 468 546 406 563 417 563 l 468 365 b 400 282 419 346 400 342 l 400 -26 b 35 -229 400 -169 293 -271 l 35 -51 b 122 -3 101 -51 122 -57 l 122 254 b 289 456 124 351 158 421 b 128 663 158 474 125 544 l 128 836 b 40 889 128 890 107 889 "},"[":{"ha":504,"x_min":0,"x_max":0,"o":"m 388 889 b 357 858 369 889 357 876 l 357 -21 b 388 -51 357 -39 369 -51 l 471 -51 l 471 -229 l 225 -229 b 85 -89 142 -229 85 -200 l 85 926 b 225 1067 85 1010 142 1067 l 471 1067 l 471 889 "},"]":{"ha":504,"x_min":0,"x_max":0,"o":"m 279 1067 b 419 926 363 1067 419 1010 l 419 -89 b 279 -229 419 -172 363 -229 l 33 -229 l 33 -51 l 117 -51 b 147 -21 135 -51 147 -39 l 147 858 b 117 889 147 876 135 889 l 33 889 l 33 1067 "},"(":{"ha":517,"x_min":0,"x_max":0,"o":"m 508 975 b 317 435 364 917 317 718 b 508 -107 317 157 364 -43 l 475 -229 b 35 433 171 -150 35 58 b 475 1097 35 811 171 1019 "},")":{"ha":517,"x_min":0,"x_max":0,"o":"m 42 1097 b 482 433 346 1019 482 811 b 42 -229 482 58 346 -150 l 8 -107 b 200 435 153 -43 200 157 b 8 975 200 718 153 917 "},"—":{"ha":1138,"x_min":0,"x_max":0,"o":"m 61 272 l 61 442 l 1076 442 l 1076 272 "},"–":{"ha":735,"x_min":0,"x_max":0,"o":"m 61 272 l 61 442 l 674 442 l 674 272 "},"-":{"ha":526,"x_min":0,"x_max":0,"o":"m 61 272 l 61 442 l 465 442 l 465 272 "},"­":{"ha":528,"x_min":0,"x_max":0,"o":"m 61 272 l 61 442 l 465 442 l 465 272 "},"«":{"ha":767,"x_min":0,"x_max":0,"o":"m 282 349 l 401 132 l 249 36 l 29 318 l 29 379 l 249 653 l 401 557 m 608 349 l 728 132 l 575 36 l 356 318 l 356 379 l 575 653 l 728 557 "},"»":{"ha":767,"x_min":0,"x_max":0,"o":"m 411 318 l 192 36 l 39 132 l 158 349 l 39 557 l 192 653 l 411 379 m 738 318 l 518 36 l 365 132 l 485 349 l 365 557 l 518 653 l 738 379 "},"‹":{"ha":440,"x_min":0,"x_max":0,"o":"m 282 349 l 401 132 l 249 36 l 29 318 l 29 379 l 249 653 l 401 557 "},"›":{"ha":440,"x_min":0,"x_max":0,"o":"m 411 318 l 192 36 l 39 132 l 160 349 l 39 557 l 192 653 l 411 379 "},"„":{"ha":596,"x_min":0,"x_max":0,"o":"m 183 213 b 271 122 247 213 269 192 l 271 42 b 190 -225 271 -86 240 -153 l 96 -194 b 119 -21 114 -137 118 -78 b 46 60 69 -21 47 8 l 49 122 b 135 213 50 192 71 213 m 460 213 b 547 122 524 213 546 192 l 547 42 b 467 -225 547 -86 517 -153 l 372 -194 b 396 -21 390 -137 394 -78 b 322 60 346 -21 324 8 l 325 122 b 411 213 326 192 347 213 "},"“":{"ha":583,"x_min":0,"x_max":0,"o":"m 133 549 b 46 639 69 549 47 569 l 46 719 b 126 986 46 847 76 914 l 221 956 b 197 782 203 899 199 839 b 271 701 247 782 269 753 l 268 639 b 182 549 267 569 246 549 m 410 549 b 322 639 346 549 324 569 l 322 719 b 403 986 322 847 353 914 l 497 956 b 474 782 479 899 475 839 b 547 701 524 782 546 753 l 544 639 b 458 549 543 569 522 549 "},"”":{"ha":579,"x_min":0,"x_max":0,"o":"m 172 972 b 260 882 236 972 258 951 l 260 801 b 179 535 260 674 229 607 l 85 565 b 108 739 103 622 107 682 b 35 819 58 739 36 768 l 38 882 b 124 972 39 951 60 972 m 449 972 b 536 882 513 972 535 951 l 536 801 b 456 535 536 674 506 607 l 361 565 b 385 739 379 622 383 682 b 311 819 335 739 313 768 l 314 882 b 400 972 315 951 336 972 "},"‘":{"ha":307,"x_min":0,"x_max":0,"o":"m 133 549 b 46 639 69 549 47 569 l 46 719 b 126 986 46 847 76 914 l 221 956 b 197 782 203 899 199 839 b 271 701 247 782 269 753 l 268 639 b 182 549 267 569 246 549 "},"’":{"ha":303,"x_min":0,"x_max":0,"o":"m 172 972 b 260 882 236 972 258 951 l 260 801 b 179 535 260 674 229 607 l 85 565 b 108 739 103 622 107 682 b 35 819 58 739 36 768 l 38 882 b 124 972 39 951 60 972 "},"‚":{"ha":322,"x_min":0,"x_max":0,"o":"m 185 257 b 272 157 249 257 271 233 l 272 68 b 192 -225 272 -72 242 -144 l 97 -190 b 121 0 115 -128 119 -62 b 47 89 71 0 49 32 l 50 157 b 136 257 51 233 72 257 "}," ":{"ha":292,"x_min":0,"x_max":0,"o":""}," ":{"ha":292,"x_min":0,"x_max":0,"o":""},"ƒ":{"ha":713,"x_min":0,"x_max":0,"o":"m 569 783 b 507 711 526 783 511 765 l 494 569 l 625 569 l 611 394 l 479 394 l 443 -24 b 176 -250 431 -154 360 -250 b -37 -231 129 -250 19 -244 l 6 -56 l 90 -56 b 153 17 133 -56 149 -37 l 186 394 l 60 394 l 72 563 l 201 569 l 217 751 b 483 978 229 882 300 978 b 697 958 531 978 640 972 l 654 783 "},"¢":{"ha":751,"x_min":0,"x_max":0,"o":"m 714 175 b 482 119 650 142 567 125 l 468 0 l 253 0 l 268 128 b 35 482 99 161 35 265 b 365 846 35 735 124 836 l 379 958 l 596 958 l 581 833 b 704 796 625 825 668 813 l 675 629 l 461 629 b 322 482 351 629 322 603 b 461 333 322 360 351 333 b 688 343 508 333 599 333 "},"¤":{"ha":799,"x_min":0,"x_max":0,"o":"m 689 489 b 654 351 689 439 676 393 l 753 256 l 633 138 l 536 233 b 399 199 496 211 449 199 b 263 232 350 199 304 211 l 169 139 l 42 267 l 138 361 b 108 489 119 400 108 443 b 143 628 108 539 121 586 l 50 721 l 169 839 l 263 744 b 399 779 303 767 350 779 b 539 743 450 779 497 767 l 635 839 l 753 721 l 656 624 b 689 489 676 583 689 538 m 399 363 b 524 490 465 363 524 421 b 399 618 524 561 465 618 b 274 490 332 618 274 561 b 399 363 274 421 332 363 "},"$":{"ha":826,"x_min":0,"x_max":0,"o":"m 794 274 b 474 -18 794 74 718 -7 l 460 -153 l 244 -153 l 260 -11 b 51 28 199 -4 129 7 l 69 239 b 408 232 226 235 361 232 b 499 265 481 232 499 239 b 433 324 499 292 485 304 l 251 407 b 44 696 101 476 44 556 b 385 978 44 901 135 971 l 400 1096 l 617 1096 l 600 968 b 768 929 656 961 714 949 l 750 736 b 421 739 669 738 539 739 b 338 703 354 739 338 732 b 421 638 338 676 354 663 l 586 565 b 794 274 740 496 794 414 "},"€":{"ha":894,"x_min":0,"x_max":0,"o":"m 39 501 l 39 654 l 132 654 b 578 975 171 872 301 975 b 835 938 686 975 771 958 l 811 732 b 554 735 783 735 625 750 b 456 654 506 724 475 701 l 726 654 l 711 501 m 861 29 b 578 -17 793 3 700 -17 b 132 307 300 -17 171 86 l 38 307 l 38 460 l 703 460 l 688 307 l 453 307 b 554 224 471 256 503 232 b 839 235 614 214 751 219 "},"£":{"ha":838,"x_min":0,"x_max":0,"o":"m 799 0 l 53 0 l 53 232 b 158 422 151 278 167 343 l 157 436 l 51 436 l 49 575 l 146 575 l 135 707 b 443 976 119 921 218 976 b 768 963 506 976 640 972 l 754 747 l 497 747 b 429 693 446 747 425 731 l 442 575 l 651 575 l 644 436 l 457 436 l 458 422 b 356 218 469 296 410 260 b 475 232 394 232 435 232 l 799 232 "},"¥":{"ha":986,"x_min":0,"x_max":0,"o":"m 849 525 l 849 372 l 140 372 l 138 525 l 233 525 l 25 958 l 335 958 l 456 671 b 485 536 474 629 478 579 l 503 536 b 532 672 510 579 515 632 l 651 958 l 961 958 l 753 525 m 849 331 l 849 178 l 644 178 l 644 0 l 343 0 l 343 178 l 140 178 l 138 331 "},"≈":{"ha":800,"x_min":0,"x_max":0,"o":"m 256 669 b 515 613 313 664 460 619 b 550 664 557 607 550 626 l 724 664 b 540 418 765 500 694 411 b 278 475 482 421 340 468 b 244 425 236 479 244 461 l 69 425 b 256 669 28 599 118 682 m 256 388 b 515 329 313 382 460 336 b 550 381 557 324 550 344 l 724 381 b 540 135 765 218 694 128 b 278 193 482 138 340 186 b 244 142 236 197 244 179 l 69 142 b 256 388 28 315 118 400 "},"~":{"ha":694,"x_min":0,"x_max":0,"o":"m 181 522 b 471 463 246 521 433 469 b 511 515 513 454 511 471 l 632 515 b 514 281 661 354 600 278 b 222 340 447 282 268 332 b 183 288 181 347 183 332 l 63 288 b 181 522 33 453 101 524 "},"÷":{"ha":743,"x_min":0,"x_max":0,"o":"m 406 801 b 513 694 486 801 513 776 l 513 669 b 406 563 513 588 486 563 l 336 563 b 229 669 254 563 229 588 l 229 694 b 336 801 229 776 254 801 m 38 304 l 38 507 l 706 507 l 706 304 m 406 244 b 513 138 486 244 513 219 l 513 113 b 406 6 513 32 486 6 l 336 6 b 229 113 254 6 229 32 l 229 138 b 336 244 229 219 254 244 "},"∅":{"ha":951,"x_min":0,"x_max":0,"o":"m 476 879 b 882 474 700 879 882 697 b 476 67 882 249 700 67 b 69 474 251 67 69 249 b 476 879 69 697 251 879 m 476 757 b 307 742 385 757 361 750 l 311 679 b 476 692 367 688 392 692 b 568 628 535 692 568 668 b 433 335 568 538 433 494 l 508 335 b 639 628 508 481 639 501 b 476 757 639 715 582 757 m 444 238 b 435 226 439 238 435 233 l 435 175 b 444 165 435 169 439 165 l 499 165 b 510 175 506 165 510 169 l 510 226 b 499 238 510 233 506 238 "},"=":{"ha":793,"x_min":0,"x_max":0,"o":"m 63 468 l 63 671 l 731 671 l 731 468 m 63 168 l 63 371 l 731 371 l 731 168 "},">":{"ha":697,"x_min":0,"x_max":0,"o":"m 661 310 l 61 90 l 61 317 l 417 421 l 61 525 l 61 751 l 661 533 "},"≥":{"ha":769,"x_min":0,"x_max":0,"o":"m 700 435 l 86 271 l 86 497 l 454 546 l 86 592 l 86 818 l 700 658 m 90 33 l 90 253 l 717 253 l 717 33 "},"∞":{"ha":1050,"x_min":0,"x_max":0,"o":"m 794 636 b 1011 426 907 636 1011 571 b 775 203 1011 279 903 203 b 525 304 675 203 590 249 b 269 203 457 250 365 203 b 39 426 149 203 39 279 b 268 636 39 571 143 636 b 526 526 376 636 458 588 b 794 636 593 579 690 636 m 243 421 b 310 372 243 388 264 372 b 417 421 354 372 386 392 b 310 465 392 450 367 465 b 243 421 264 465 243 451 m 742 372 b 807 419 786 372 807 388 b 742 465 807 451 786 465 b 633 414 685 465 660 444 b 742 372 658 392 693 372 "},"∫":{"ha":489,"x_min":0,"x_max":0,"o":"m 260 992 b 458 986 300 992 375 994 l 442 776 l 358 776 b 335 747 342 776 333 774 l 408 -124 b 213 -308 419 -250 374 -308 b 31 -303 193 -308 57 -307 l 47 -93 l 124 -93 b 151 -54 147 -93 154 -85 l 81 807 b 260 992 72 929 154 992 "},"<":{"ha":701,"x_min":0,"x_max":0,"o":"m 281 421 l 640 317 l 640 90 l 36 310 l 36 533 l 640 751 l 640 525 "},"≤":{"ha":769,"x_min":0,"x_max":0,"o":"m 315 546 l 683 497 l 683 271 l 69 435 l 69 658 l 683 818 l 683 592 m 53 33 l 53 253 l 679 253 l 679 33 "},"¬":{"ha":793,"x_min":0,"x_max":0,"o":"m 726 192 l 511 190 l 511 329 l 57 329 l 57 529 l 726 529 "},"−":{"ha":793,"x_min":0,"x_max":0,"o":"m 63 304 l 63 507 l 731 507 l 731 304 "},"×":{"ha":703,"x_min":0,"x_max":0,"o":"m 679 257 l 544 97 l 353 267 l 160 97 l 26 257 l 194 407 l 26 556 l 160 717 l 353 546 l 544 717 l 679 556 l 510 407 "},"≠":{"ha":851,"x_min":0,"x_max":0,"o":"m 760 468 l 92 468 l 92 671 l 421 671 l 482 842 l 636 786 l 596 671 l 760 671 m 760 371 l 760 168 l 415 168 l 353 -8 l 194 49 l 238 168 l 92 168 l 92 371 "},"∂":{"ha":851,"x_min":0,"x_max":0,"o":"m 144 978 b 813 471 624 997 832 886 b 388 -17 794 76 646 -17 b 38 343 88 -17 25 189 b 353 635 49 479 128 635 b 521 590 421 635 474 624 b 144 789 515 731 449 789 m 403 200 b 511 424 485 200 497 272 b 426 431 481 429 457 431 b 328 336 354 431 332 381 b 403 200 319 244 339 200 "},"%":{"ha":1279,"x_min":0,"x_max":0,"o":"m 282 978 b 536 692 471 978 536 913 b 282 406 536 471 471 406 b 31 692 96 406 31 471 b 282 978 31 913 96 978 m 288 0 l 815 958 l 990 958 l 463 0 m 282 826 b 243 692 249 826 243 819 b 282 557 243 563 249 557 b 324 692 317 557 324 563 b 282 826 324 819 317 826 m 996 553 b 1250 267 1185 553 1250 488 b 996 -19 1250 46 1185 -19 b 744 267 810 -19 744 46 b 996 553 744 488 810 553 m 996 401 b 957 267 963 401 957 396 b 996 132 957 139 963 132 b 1038 267 1031 132 1038 139 b 996 401 1038 396 1031 401 "},"‰":{"ha":1840,"x_min":0,"x_max":0,"o":"m 282 978 b 536 692 471 978 536 913 b 282 406 536 471 471 406 b 31 692 96 406 31 471 b 282 978 31 913 96 978 m 288 0 l 815 958 l 990 958 l 463 0 m 282 826 b 243 692 249 826 243 819 b 282 557 243 563 249 557 b 324 692 317 557 324 563 b 282 826 324 819 317 826 m 996 553 b 1250 267 1185 553 1250 488 b 996 -19 1250 46 1185 -19 b 744 267 810 -19 744 46 b 996 553 744 488 810 553 m 1554 553 b 1808 267 1743 553 1808 488 b 1554 -19 1808 46 1743 -19 b 1303 267 1368 -19 1303 46 b 1554 553 1303 488 1368 553 m 996 401 b 957 267 963 401 957 396 b 996 132 957 139 963 132 b 1038 267 1031 132 1038 139 b 996 401 1038 396 1031 401 m 1554 401 b 1515 267 1521 401 1515 396 b 1554 132 1515 139 1521 132 b 1596 267 1589 132 1596 139 b 1554 401 1596 396 1589 401 "},"+":{"ha":726,"x_min":0,"x_max":0,"o":"m 469 314 l 469 94 l 257 94 l 257 314 l 36 314 l 36 529 l 257 529 l 257 749 l 469 749 l 469 529 l 690 529 l 690 314 "},"±":{"ha":775,"x_min":0,"x_max":0,"o":"m 714 432 l 494 432 l 494 283 l 282 283 l 282 432 l 61 432 l 61 646 l 282 646 l 282 796 l 493 796 l 493 646 l 714 646 m 714 242 l 714 26 l 61 26 l 61 242 "},"∏":{"ha":985,"x_min":0,"x_max":0,"o":"m 853 756 l 853 -125 l 561 -125 l 561 756 l 424 756 l 424 -125 l 132 -125 l 132 756 l 35 756 l 35 958 l 950 958 l 950 756 "},"√":{"ha":819,"x_min":0,"x_max":0,"o":"m 558 11 b 540 0 557 4 549 0 l 194 0 b 176 11 186 0 178 4 l 4 694 l 235 694 l 358 183 l 376 183 l 590 1217 l 824 1217 "},"∑":{"ha":831,"x_min":0,"x_max":0,"o":"m 388 761 l 553 446 l 368 -29 l 794 -29 l 794 -226 l 44 -226 l 44 -29 l 228 446 l 61 761 l 61 958 l 781 958 l 781 761 "},"◊":{"ha":793,"x_min":0,"x_max":0,"o":"m 763 496 b 763 465 769 485 769 476 l 413 3 b 382 3 403 -10 392 -10 l 31 465 b 31 496 24 476 24 485 l 382 956 b 413 956 392 968 403 968 m 397 283 l 538 481 l 397 675 l 256 481 "},"&":{"ha":1057,"x_min":0,"x_max":0,"o":"m 1031 17 b 822 -19 978 -8 875 -19 b 638 67 735 -19 671 11 b 349 -19 568 7 493 -19 b 49 244 136 -19 49 51 b 239 493 49 390 99 481 l 239 501 b 79 722 124 513 79 581 b 465 978 79 947 183 978 b 696 958 524 978 613 976 l 661 764 b 457 768 604 765 549 768 b 382 675 396 768 382 753 b 457 582 382 601 396 582 l 621 582 l 636 706 l 883 706 l 883 582 l 1004 582 l 1004 400 l 883 400 l 883 253 b 929 203 883 217 896 203 l 999 203 m 367 307 b 440 208 367 225 375 207 b 610 229 489 210 560 218 l 610 400 l 440 400 b 367 307 376 400 367 383 "},"^":{"ha":690,"x_min":0,"x_max":0,"o":"m 536 517 l 353 735 l 342 735 l 153 517 l 42 575 l 242 907 l 453 907 l 649 575 "},"@":{"ha":1113,"x_min":0,"x_max":0,"o":"m 779 857 b 1054 594 957 857 1054 792 l 1054 192 l 842 192 l 819 279 b 603 174 778 226 708 174 b 388 351 488 174 388 235 l 388 414 b 592 578 388 515 465 578 l 788 578 l 788 596 b 718 658 788 640 771 658 l 554 658 b 319 375 344 657 319 657 b 626 92 319 78 351 92 l 1056 92 l 1056 -86 b 626 -110 914 -99 769 -110 b 54 375 111 -110 54 -47 b 554 857 54 794 104 857 m 692 450 b 644 411 661 447 644 433 l 644 392 b 696 353 644 369 663 353 b 788 382 724 353 758 364 l 788 457 "},"|":{"ha":383,"x_min":0,"x_max":0,"o":"m 90 -235 l 90 1085 l 293 1085 l 293 -235 "},"¦":{"ha":386,"x_min":0,"x_max":0,"o":"m 92 529 l 92 1085 l 294 1085 l 294 529 m 92 -235 l 92 321 l 294 321 l 294 -235 "},"©":{"ha":1086,"x_min":0,"x_max":0,"o":"m 543 978 b 1049 479 828 978 1049 769 b 543 -19 1049 189 828 -19 b 38 479 260 -19 38 189 b 543 978 38 769 260 978 m 543 843 b 179 479 344 843 179 690 b 543 115 179 268 344 115 b 907 479 744 115 907 268 b 543 843 907 690 744 843 m 549 751 b 742 729 640 751 682 744 l 726 578 b 549 578 667 576 628 578 b 500 481 503 578 500 564 b 549 383 500 396 503 383 b 739 388 632 383 681 383 l 754 238 b 549 208 693 217 640 208 b 279 481 351 208 279 279 b 549 751 279 681 351 751 "},"†":{"ha":675,"x_min":0,"x_max":0,"o":"m 224 -153 l 238 546 l 239 672 l 224 960 l 451 960 l 436 672 l 438 546 l 451 -153 m 31 694 l 210 694 l 210 526 l 31 496 m 644 496 l 465 526 l 465 694 l 644 694 "},"‡":{"ha":725,"x_min":0,"x_max":0,"o":"m 461 135 l 476 -153 l 249 -153 l 264 135 l 263 694 l 249 960 l 476 960 l 463 694 m 56 496 l 56 694 l 235 694 l 235 526 m 490 526 l 490 694 l 669 694 l 669 496 m 235 113 l 56 113 l 56 311 l 235 281 m 490 113 l 490 281 l 669 311 l 669 113 "},"°":{"ha":451,"x_min":0,"x_max":0,"o":"m 226 978 b 424 785 333 978 424 893 b 226 590 424 675 333 590 b 28 785 118 590 28 675 b 226 978 28 893 118 978 m 226 853 b 161 785 190 853 161 824 b 226 715 161 746 190 715 b 290 785 261 715 290 746 b 226 853 290 824 261 853 "},"¶":{"ha":863,"x_min":0,"x_max":0,"o":"m 496 975 b 763 951 569 975 681 969 l 763 0 l 586 0 l 586 803 l 532 804 l 532 -292 l 356 -292 l 356 279 b 28 625 121 300 28 399 b 496 975 28 882 160 975 "},"®":{"ha":685,"x_min":0,"x_max":0,"o":"m 343 978 b 651 669 514 978 651 840 b 343 360 651 497 514 360 b 33 669 171 360 33 497 b 343 978 33 840 171 978 m 343 439 b 571 669 467 439 571 542 b 343 899 571 796 467 899 b 114 669 218 899 114 796 b 343 439 114 542 218 439 m 381 532 l 365 615 b 340 631 360 629 356 631 l 324 631 l 324 532 l 206 532 l 206 821 b 349 825 250 825 279 825 b 493 736 449 825 493 804 b 425 669 493 707 479 675 l 425 667 b 482 619 446 665 472 661 l 506 532 m 344 701 b 374 724 369 701 374 707 b 344 743 374 740 369 743 l 324 743 l 324 701 "},"§":{"ha":785,"x_min":0,"x_max":0,"o":"m 393 978 b 721 961 453 978 618 972 l 701 764 b 483 765 633 768 590 765 b 358 736 396 765 364 763 b 418 675 351 707 383 690 l 578 600 b 706 246 751 518 769 414 l 506 246 b 390 410 506 346 488 357 l 189 515 b 46 746 139 542 46 582 b 393 978 46 929 163 978 m 279 458 b 394 294 279 358 299 346 l 596 189 b 739 -43 647 163 739 122 b 392 -274 739 -225 622 -274 b 64 -257 331 -274 164 -269 l 83 -60 b 301 -62 150 -64 186 -62 b 426 -32 390 -62 421 -57 b 367 28 433 -3 401 13 l 207 104 b 79 458 33 186 15 290 "},"™":{"ha":1383,"x_min":0,"x_max":0,"o":"m 556 818 l 408 818 l 408 439 l 210 439 l 210 818 l 61 818 l 61 967 l 556 967 m 1142 439 l 1125 818 l 1114 818 l 1083 592 b 1008 532 1078 551 1050 532 l 903 532 b 828 592 861 532 833 551 l 796 818 l 785 818 l 772 439 l 592 439 l 608 899 b 675 967 610 943 631 967 l 851 967 b 925 906 892 967 919 946 l 946 735 b 953 654 950 708 950 681 l 958 654 b 965 735 961 681 963 708 l 983 906 b 1058 967 989 946 1017 967 l 1238 967 b 1306 899 1282 967 1303 943 l 1321 439 "},"´":{"ha":544,"x_min":0,"x_max":0,"o":"m 135 710 l 56 829 l 379 1038 l 489 853 "},"˘":{"ha":571,"x_min":0,"x_max":0,"o":"m 533 981 b 286 742 556 857 457 742 b 38 981 115 742 15 857 l 172 999 b 286 917 172 940 203 917 b 399 999 368 917 399 940 "},"ˇ":{"ha":663,"x_min":0,"x_max":0,"o":"m 390 758 l 276 758 l 49 940 l 118 1047 l 328 942 l 339 942 l 550 1047 l 617 940 "},"¸":{"ha":365,"x_min":0,"x_max":0,"o":"m 100 -46 b 344 -136 274 -26 350 -25 b 19 -340 338 -296 193 -364 l 50 -232 b 171 -161 111 -232 165 -226 b 74 -146 174 -142 161 -146 "},"ˆ":{"ha":663,"x_min":0,"x_max":0,"o":"m 560 729 l 339 858 l 328 858 l 103 729 l 33 836 l 228 1021 l 439 1021 l 626 825 "},"¨":{"ha":606,"x_min":0,"x_max":0,"o":"m 219 1000 b 274 946 256 1000 274 982 l 274 858 b 219 804 274 822 256 804 l 124 804 b 69 858 88 804 69 822 l 69 946 b 124 1000 69 982 88 1000 m 482 1000 b 536 946 518 1000 536 982 l 536 858 b 482 804 536 822 518 804 l 386 804 b 332 858 350 804 332 822 l 332 946 b 386 1000 332 982 350 1000 "},"˙":{"ha":349,"x_min":0,"x_max":0,"o":"m 218 1006 b 300 926 274 1006 300 981 l 300 861 b 218 782 300 808 274 782 l 131 782 b 49 861 75 782 49 808 l 49 926 b 131 1006 49 981 75 1006 "},"`":{"ha":544,"x_min":0,"x_max":0,"o":"m 410 710 l 56 853 l 165 1038 l 489 829 "},"˝":{"ha":760,"x_min":0,"x_max":0,"o":"m 171 689 l 56 782 l 226 1050 l 406 933 m 468 689 l 354 781 l 525 1050 l 704 933 "},"¯":{"ha":556,"x_min":0,"x_max":0,"o":"m 56 819 l 56 990 l 500 990 l 500 819 "},"˛":{"ha":347,"x_min":0,"x_max":0,"o":"m 304 0 b 239 -121 282 -40 261 -75 b 306 -167 215 -171 254 -175 l 322 -267 b 47 -146 97 -351 14 -247 b 193 3 61 -101 107 -47 "},"˚":{"ha":442,"x_min":0,"x_max":0,"o":"m 221 1083 b 400 910 318 1083 400 1006 b 221 736 400 813 318 736 b 42 910 124 736 42 813 b 221 1083 42 1006 124 1083 m 221 972 b 160 910 188 972 160 943 b 221 847 160 875 188 847 b 282 910 254 847 282 875 b 221 972 282 943 254 972 "},"˜":{"ha":639,"x_min":0,"x_max":0,"o":"m 181 1006 b 415 946 275 999 343 961 b 456 999 457 938 456 954 l 576 999 b 458 764 606 843 544 758 b 222 824 364 771 285 813 b 183 771 181 831 183 815 l 63 771 b 181 1006 32 936 107 1011 "}}}
